<svg xmlns="http://www.w3.org/2000/svg" xmlns:xlink="http://www.w3.org/1999/xlink" width="500" zoomAndPan="magnify" viewBox="0 0 375 374.999991" height="500" preserveAspectRatio="xMidYMid meet" version="1.0"><defs><clipPath id="b11ed501ba"><path d="M 122.71875 204 L 232 204 L 232 249 L 122.71875 249 Z M 122.71875 204 " clip-rule="nonzero"/></clipPath><clipPath id="4166661430"><path d="M 143 112.5 L 212 112.5 L 212 164 L 143 164 Z M 143 112.5 " clip-rule="nonzero"/></clipPath><clipPath id="10087e61db"><path d="M 231 187 L 252.46875 187 L 252.46875 208 L 231 208 Z M 231 187 " clip-rule="nonzero"/></clipPath><clipPath id="c208e4418c"><path d="M 177 242 L 198 242 L 198 262.5 L 177 262.5 Z M 177 242 " clip-rule="nonzero"/></clipPath><clipPath id="f29d02a5d2"><path d="M 177 252 L 188 252 L 188 262.5 L 177 262.5 Z M 177 252 " clip-rule="nonzero"/></clipPath></defs><g clip-path="url(#b11ed501ba)"><path fill="#4fc3f7" d="M 194.234375 204.503906 C 194.234375 204.503906 190.828125 218.105469 177.207031 218.105469 C 163.585938 218.105469 160.179688 204.503906 160.179688 204.503906 C 160.179688 204.503906 122.71875 211.257812 122.71875 248.710938 L 231.695312 248.710938 C 231.695312 211.390625 194.234375 204.503906 194.234375 204.503906 " fill-opacity="1" fill-rule="nonzero"/></g><path fill="#ff9800" d="M 177.207031 224.90625 C 160.179688 224.90625 160.179688 204.503906 160.179688 204.503906 L 160.179688 184.097656 L 194.234375 184.097656 L 194.234375 204.503906 C 194.234375 204.503906 194.234375 224.90625 177.207031 224.90625 Z M 177.207031 224.90625 " fill-opacity="1" fill-rule="nonzero"/><path fill="#ffa726" d="M 214.667969 163.695312 C 214.667969 167.457031 211.617188 170.496094 207.855469 170.496094 C 204.089844 170.496094 201.046875 167.457031 201.046875 163.695312 C 201.046875 159.9375 204.09375 156.894531 207.855469 156.894531 C 211.621094 156.894531 214.667969 159.9375 214.667969 163.695312 M 153.367188 163.695312 C 153.367188 159.9375 150.316406 156.894531 146.558594 156.894531 C 142.789062 156.894531 139.746094 159.9375 139.746094 163.695312 C 139.746094 167.457031 142.789062 170.496094 146.558594 170.496094 C 150.320312 170.496094 153.367188 167.457031 153.367188 163.695312 " fill-opacity="1" fill-rule="nonzero"/><path fill="#ffb74d" d="M 207.855469 143.292969 C 207.855469 117.328125 146.558594 126.386719 146.558594 143.292969 L 146.558594 167.097656 C 146.558594 184 160.273438 197.703125 177.207031 197.703125 C 194.136719 197.703125 207.855469 184 207.855469 167.097656 Z M 207.855469 143.292969 " fill-opacity="1" fill-rule="nonzero"/><g clip-path="url(#4166661430)"><path fill="#424242" d="M 177.207031 112.6875 C 156.519531 112.6875 143.152344 129.4375 143.152344 150.09375 L 143.152344 157.867188 L 149.960938 163.695312 L 149.960938 146.691406 L 190.828125 133.089844 L 204.449219 146.691406 L 204.449219 163.695312 L 211.261719 157.773438 L 211.261719 150.09375 C 211.261719 136.40625 207.726562 122.835938 190.828125 119.488281 L 187.421875 112.6875 Z M 177.207031 112.6875 " fill-opacity="1" fill-rule="nonzero"/></g><path fill="#784719" d="M 187.421875 163.695312 C 187.421875 161.820312 188.949219 160.296875 190.828125 160.296875 C 192.707031 160.296875 194.234375 161.820312 194.234375 163.695312 C 194.234375 165.570312 192.707031 167.097656 190.828125 167.097656 C 188.949219 167.097656 187.421875 165.570312 187.421875 163.695312 M 160.179688 163.695312 C 160.179688 165.570312 161.703125 167.097656 163.585938 167.097656 C 165.464844 167.097656 166.992188 165.570312 166.992188 163.695312 C 166.992188 161.820312 165.464844 160.296875 163.585938 160.296875 C 161.703125 160.296875 160.179688 161.820312 160.179688 163.695312 " fill-opacity="1" fill-rule="nonzero"/><path fill="#01579b" d="M 177.207031 224.90625 C 194.234375 224.90625 200.175781 211.542969 200.875 206.449219 C 196.9375 205.007812 194.234375 204.503906 194.234375 204.503906 C 194.234375 204.503906 190.828125 218.105469 177.207031 218.105469 C 163.585938 218.105469 160.179688 204.503906 160.179688 204.503906 C 160.179688 204.503906 157.472656 204.996094 153.53125 206.425781 C 154.226562 211.511719 160.179688 224.90625 177.207031 224.90625 Z M 177.207031 224.90625 " fill-opacity="1" fill-rule="nonzero"/><g clip-path="url(#10087e61db)"><path fill="#e57373" d="M 251.03125 198.179688 L 241.429688 188.597656 C 239.96875 187.136719 237.59375 187.136719 236.132812 188.597656 L 231.609375 193.113281 L 246.511719 207.992188 L 251.03125 203.476562 C 252.492188 202.015625 252.492188 199.648438 251.03125 198.179688 " fill-opacity="1" fill-rule="nonzero"/></g><path fill="#ff9800" d="M 182.21875 242.433594 L 224.160156 200.550781 L 239.0625 215.433594 L 197.121094 257.3125 Z M 182.21875 242.433594 " fill-opacity="1" fill-rule="nonzero"/><path fill="#b0bec5" d="M 246.511719 207.984375 L 239.0625 215.425781 L 224.15625 200.542969 L 231.609375 193.101562 Z M 246.511719 207.984375 " fill-opacity="1" fill-rule="nonzero"/><g clip-path="url(#c208e4418c)"><path fill="#ffc107" d="M 182.222656 242.425781 L 177.207031 262.3125 L 197.121094 257.304688 Z M 182.222656 242.425781 " fill-opacity="1" fill-rule="nonzero"/></g><g clip-path="url(#f29d02a5d2)"><path fill="#37474f" d="M 179.742188 252.253906 L 177.207031 262.3125 L 187.273438 259.78125 Z M 179.742188 252.253906 " fill-opacity="1" fill-rule="nonzero"/></g><path fill="#01579b" d="M 177.207031 224.90625 C 194.234375 224.90625 200.175781 211.542969 200.875 206.449219 C 196.9375 205.007812 194.234375 204.503906 194.234375 204.503906 C 194.234375 204.503906 190.828125 218.105469 177.207031 218.105469 C 163.585938 218.105469 160.179688 204.503906 160.179688 204.503906 C 160.179688 204.503906 157.472656 204.996094 153.53125 206.425781 C 154.226562 211.511719 160.179688 224.90625 177.207031 224.90625 Z M 177.207031 224.90625 " fill-opacity="1" fill-rule="nonzero"/></svg>