<?xml version="1.0" standalone="no"?>
<!DOCTYPE svg PUBLIC "-//W3C//DTD SVG 20010904//EN"
 "http://www.w3.org/TR/2001/REC-SVG-20010904/DTD/svg10.dtd">
<svg version="1.0" xmlns="http://www.w3.org/2000/svg"
 width="50.000000pt" height="50.000000pt" viewBox="0 0 50.000000 50.000000"
 preserveAspectRatio="xMidYMid meet">

<g transform="translate(0.000000,50.000000) scale(0.100000,-0.100000)"
fill="#000000" stroke="none">
<path d="M170 455 c-14 -15 -35 -25 -52 -25 -22 0 -28 -5 -28 -21 0 -12 -14
-34 -30 -49 -25 -23 -29 -34 -24 -55 3 -14 1 -39 -6 -56 -11 -27 -10 -32 9
-53 14 -15 21 -33 19 -47 -2 -19 4 -27 29 -39 18 -8 33 -20 33 -27 0 -22 28
-41 53 -36 14 3 36 -3 51 -12 25 -16 27 -16 52 0 15 9 37 15 51 12 25 -5 53
14 53 36 0 7 15 19 33 27 25 12 31 20 29 39 -2 14 5 32 19 47 19 21 20 26 9
53 -7 17 -9 43 -6 57 6 22 1 32 -23 55 -17 15 -31 37 -31 48 0 16 -6 21 -27
21 -16 0 -39 11 -55 27 -24 23 -31 25 -53 15 -18 -8 -32 -9 -45 -2 -27 14 -34
13 -60 -15z m-14 -192 l18 -28 7 30 c6 27 7 26 8 -12 1 -50 -9 -54 -35 -15
l-18 27 -7 -30 c-6 -27 -7 -26 -8 13 -1 49 9 53 35 15z m99 20 c-35 -9 -41
-23 -9 -24 26 -1 27 -2 6 -7 -30 -9 -30 -25 0 -34 20 -5 18 -6 -9 -7 -32 -1
-33 0 -33 39 0 39 1 40 33 39 21 -1 25 -3 12 -6z m45 -13 c0 -26 16 -26 23 1
7 25 27 16 27 -12 0 -11 5 -17 10 -14 6 3 10 15 10 26 0 10 5 19 11 19 6 0 8
-7 5 -16 -3 -9 -9 -27 -12 -40 -8 -31 -18 -30 -31 4 l-10 27 -8 -27 c-9 -34
-21 -36 -29 -4 -3 13 -9 31 -12 40 -3 9 -1 16 5 16 6 0 11 -9 11 -20z"/>
</g>
</svg>
