<svg xmlns="http://www.w3.org/2000/svg" xmlns:xlink="http://www.w3.org/1999/xlink" width="500" zoomAndPan="magnify" viewBox="0 0 375 374.999991" height="500" preserveAspectRatio="xMidYMid meet" version="1.0"><defs><g/><clipPath id="03e3642bae"><path d="M 90 162.6875 L 126 162.6875 L 126 180 L 90 180 Z M 90 162.6875 " clip-rule="nonzero"/></clipPath><clipPath id="47dbc4c92f"><path d="M 85.222656 165 L 91 165 L 91 171 L 85.222656 171 Z M 85.222656 165 " clip-rule="nonzero"/></clipPath><clipPath id="e5b6ebe55b"><path d="M 99 204 L 115 204 L 115 212.1875 L 99 212.1875 Z M 99 204 " clip-rule="nonzero"/></clipPath></defs><path fill="#a47551" d="M 109.015625 185.527344 C 104.179688 185.308594 99.035156 184.074219 95.464844 180.621094 C 93.851562 179.015625 93.292969 176.710938 94.621094 174.742188 C 94.863281 174.394531 95.117188 174.054688 95.390625 173.734375 C 95.671875 173.445312 95.953125 173.851562 95.996094 174.121094 C 96.089844 174.519531 96.074219 175 95.804688 175.332031 C 95.355469 175.914062 94.730469 176.523438 94.792969 177.316406 C 95.15625 178.53125 96.214844 179.402344 97.191406 180.148438 C 102.105469 183.570312 108.523438 184.261719 114.339844 183.46875 C 118.347656 182.851562 127.285156 180.027344 128.289062 175.644531 C 127.625 173.878906 124.453125 173.011719 122.828125 172.269531 C 122.347656 172 122.371094 171.082031 122.636719 170.660156 C 122.707031 170.558594 122.839844 170.441406 122.976562 170.496094 C 123.496094 170.710938 124.011719 170.925781 124.535156 171.132812 C 126.125 171.816406 128.082031 172.558594 128.863281 174.214844 C 129.003906 174.503906 129.097656 174.804688 129.15625 175.117188 C 129.582031 179.019531 125.058594 181.65625 121.980469 183.007812 C 117.914062 184.773438 113.464844 185.796875 109.015625 185.527344 Z M 109.015625 185.527344 " fill-opacity="1" fill-rule="nonzero"/><g clip-path="url(#03e3642bae)"><path fill="#a47551" d="M 125 179.773438 C 124.683594 179.519531 124.679688 178.933594 124.492188 178.578125 C 124.265625 178.085938 123.863281 177.703125 123.464844 177.351562 C 122.296875 176.390625 120.875 175.824219 119.46875 175.308594 C 118.058594 174.800781 116.644531 174.308594 115.21875 173.851562 C 113.75 173.300781 112 173.058594 110.859375 171.90625 C 110.078125 171.019531 109.777344 169.824219 109.03125 168.910156 C 107.242188 166.925781 103.945312 165.28125 101.328125 164.800781 C 98.296875 164.382812 95.585938 164.492188 92.871094 166.050781 C 93.804688 166.457031 94.835938 166.550781 95.847656 166.605469 C 97.289062 166.675781 98.734375 166.671875 100.179688 166.679688 C 100.554688 166.722656 101.074219 166.558594 101.335938 166.902344 C 101.621094 167.386719 101.582031 168.085938 101.230469 168.527344 C 100.957031 168.78125 100.566406 168.859375 100.21875 168.964844 C 97.859375 169.496094 95.351562 169.773438 93.285156 171.132812 C 92.359375 171.675781 91.484375 172.398438 91.046875 173.40625 C 92.164062 173.734375 93.460938 172.578125 94.425781 172.101562 C 95.980469 171.238281 97.660156 170.554688 99.402344 170.183594 C 100.132812 170.085938 101.152344 169.761719 101.769531 170.28125 C 102.246094 170.816406 102.195312 171.734375 101.769531 172.285156 C 101.519531 172.59375 101.203125 172.882812 101.144531 173.296875 C 101.039062 173.769531 101.117188 174.285156 100.894531 174.730469 C 100.746094 175.105469 100.367188 175.285156 99.984375 175.332031 C 99.558594 175.425781 99.125 175.457031 98.691406 175.484375 C 98.304688 175.53125 97.824219 175.449219 97.546875 175.777344 C 97.609375 175.996094 97.777344 176.171875 97.789062 176.414062 C 97.839844 176.792969 97.828125 177.289062 97.507812 177.550781 C 97.066406 177.769531 96.859375 176.949219 96.761719 176.652344 C 96.597656 176.113281 96.566406 175.527344 96.71875 174.980469 C 97.210938 173.164062 98.835938 173.945312 100.195312 173.472656 C 100.214844 173.25 100.242188 173.027344 100.28125 172.804688 C 100.335938 172.460938 100.425781 172.125 100.566406 171.808594 C 97.976562 172.085938 95.574219 173.238281 93.378906 174.585938 C 92.53125 175.066406 91.308594 175.675781 90.457031 174.898438 C 89.847656 174.253906 89.96875 173.226562 90.269531 172.464844 C 91.0625 170.351562 93.171875 169.117188 95.191406 168.359375 C 94.222656 168.257812 93.210938 168.136719 92.359375 167.632812 C 91.734375 167.203125 91.496094 166.351562 91.621094 165.625 C 91.792969 164.609375 92.847656 164.1875 93.679688 163.796875 C 95.476562 162.953125 97.460938 162.695312 99.429688 162.828125 C 102.222656 162.847656 104.847656 163.941406 107.171875 165.421875 C 108.0625 165.992188 108.925781 166.644531 109.582031 167.484375 C 110.449219 168.488281 110.652344 170.015625 111.8125 170.753906 C 112.359375 171.09375 112.972656 171.289062 113.578125 171.496094 C 115.761719 172.199219 117.941406 172.914062 120.089844 173.714844 C 122.390625 174.566406 125.027344 175.867188 125.539062 178.507812 C 125.671875 178.890625 125.570312 180 125 179.773438 Z M 125 179.773438 " fill-opacity="1" fill-rule="nonzero"/></g><path fill="#a47551" d="M 113.679688 179.527344 C 113.539062 179.476562 113.472656 179.332031 113.382812 179.226562 C 113.1875 179 112.976562 178.777344 112.75 178.578125 C 111.421875 177.535156 109.839844 176.886719 108.21875 176.464844 C 107.488281 176.402344 107.480469 175.257812 107.78125 174.785156 C 107.859375 174.671875 107.976562 174.582031 108.121094 174.621094 C 108.410156 174.703125 108.699219 174.789062 108.988281 174.875 C 110.222656 175.207031 111.382812 175.757812 112.453125 176.453125 C 113.050781 176.847656 114.183594 177.734375 114.195312 178.492188 C 114.222656 178.828125 114.148438 179.59375 113.679688 179.527344 Z M 113.679688 179.527344 " fill-opacity="1" fill-rule="nonzero"/><path fill="#a47551" d="M 109.898438 180.644531 C 108.945312 180.160156 107.867188 180.066406 106.839844 179.808594 C 106.335938 179.554688 106.347656 178.402344 106.769531 178.070312 C 106.839844 178.027344 106.90625 178.019531 106.984375 178.039062 C 107.445312 178.136719 107.902344 178.238281 108.359375 178.335938 C 108.855469 178.449219 110.203125 178.683594 110.335938 179.230469 C 110.496094 179.589844 110.46875 180.714844 109.898438 180.644531 Z M 109.898438 180.644531 " fill-opacity="1" fill-rule="nonzero"/><g clip-path="url(#47dbc4c92f)"><path fill="#a47551" d="M 87.46875 170.234375 C 85.222656 169.949219 85.476562 166.496094 87.363281 165.84375 C 87.519531 165.515625 87.734375 165.597656 88.027344 165.652344 C 88.210938 165.597656 88.425781 165.554688 88.542969 165.753906 C 89.914062 165.9375 90.324219 167.007812 89.988281 168.246094 C 89.710938 169.363281 88.699219 170.4375 87.46875 170.234375 Z M 88.011719 168.4375 C 88.457031 168.378906 88.8125 168.078125 89.050781 167.710938 C 88.730469 167.578125 88.378906 167.527344 88.039062 167.457031 C 87.585938 167.554688 87.101562 167.738281 86.835938 168.144531 C 87.148438 168.429688 87.605469 168.496094 88.011719 168.4375 Z M 88.011719 168.4375 " fill-opacity="1" fill-rule="nonzero"/></g><path fill="#a47551" d="M 123.691406 172.644531 C 121.234375 171.898438 118.6875 171.449219 116.109375 171.515625 C 114.6875 171.574219 113.222656 171.484375 111.855469 171.941406 C 111.605469 172.019531 111.355469 172.207031 111.171875 171.90625 C 110.90625 171.496094 110.886719 170.550781 111.367188 170.292969 C 112.808594 169.710938 114.394531 169.773438 115.925781 169.726562 C 118.613281 169.636719 121.273438 170.09375 123.839844 170.875 C 124.371094 171.070312 124.359375 172.71875 123.691406 172.644531 Z M 123.691406 172.644531 " fill-opacity="1" fill-rule="nonzero"/><path fill="#a47551" d="M 108.84375 206.140625 C 98.433594 204.570312 92.640625 194.867188 92.847656 184.875 C 92.839844 183.667969 92.851562 182.460938 92.949219 181.253906 C 93.027344 180.246094 93.074219 179.1875 93.632812 178.308594 C 94.429688 176.8125 94.980469 178.761719 94.394531 179.441406 C 94.105469 179.742188 93.964844 180.15625 93.917969 180.566406 C 93.855469 181.242188 93.800781 181.921875 93.769531 182.605469 C 93.007812 193.109375 98.273438 202.785156 109.304688 204.421875 C 112.144531 204.867188 115.109375 204.792969 117.863281 203.910156 C 119.144531 203.503906 120.378906 202.96875 121.628906 202.484375 C 122.003906 202.414062 122.121094 202.945312 122.144531 203.226562 C 122.167969 203.582031 122.125 204.070312 121.773438 204.257812 C 120.863281 204.617188 119.953125 204.984375 119.035156 205.332031 C 115.800781 206.570312 112.234375 206.761719 108.84375 206.140625 Z M 108.84375 206.140625 " fill-opacity="1" fill-rule="nonzero"/><path fill="#a47551" d="M 122.769531 202.917969 C 122.457031 202.527344 122.46875 201.925781 122.660156 201.484375 C 122.816406 201.175781 123.242188 201.0625 123.511719 200.855469 C 126.9375 198.761719 129.203125 194.34375 130.15625 190.539062 C 130.957031 186.5625 130.125 182.484375 129.125 178.621094 C 128.933594 177.855469 128.695312 176.085938 129.085938 175.429688 C 129.304688 175.101562 129.621094 175.300781 129.714844 175.625 C 129.8125 175.886719 129.804688 176.164062 129.785156 176.441406 C 129.777344 176.835938 129.792969 177.230469 129.882812 177.617188 C 131.292969 182.984375 132.292969 188.890625 130.066406 194.179688 C 128.707031 197.441406 126.800781 200.777344 123.679688 202.632812 C 123.417969 202.746094 123.011719 203.203125 122.769531 202.917969 Z M 122.769531 202.917969 " fill-opacity="1" fill-rule="nonzero"/><path fill="#a47551" d="M 130.40625 192.699219 C 130.140625 192.308594 130.117188 191.332031 130.597656 191.089844 C 131.359375 190.839844 132.121094 190.585938 132.839844 190.222656 C 135.03125 189.046875 137.207031 187.425781 138.273438 185.113281 C 138.699219 184.125 138.707031 183.003906 138.488281 181.960938 C 137.78125 178.839844 135.207031 175.417969 131.714844 175.578125 C 130.945312 175.589844 130.179688 175.714844 129.4375 175.929688 C 129.0625 175.988281 128.949219 175.472656 128.921875 175.1875 C 128.898438 174.890625 128.9375 174.570312 129.101562 174.316406 C 129.277344 174.050781 129.8125 174.054688 130.109375 173.960938 C 130.933594 173.800781 131.78125 173.734375 132.617188 173.824219 C 137.617188 174.476562 140.773438 181.597656 139.042969 186.0625 C 137.867188 188.917969 135.214844 190.949219 132.484375 192.230469 C 131.917969 192.476562 131.328125 192.667969 130.742188 192.863281 C 130.609375 192.90625 130.480469 192.8125 130.40625 192.699219 Z M 130.40625 192.699219 " fill-opacity="1" fill-rule="nonzero"/><path fill="#a47551" d="M 131.167969 186.949219 C 130.835938 186.535156 130.851562 185.871094 131.109375 185.425781 C 131.148438 185.363281 131.207031 185.304688 131.28125 185.273438 C 131.464844 185.179688 131.648438 185.082031 131.828125 184.972656 C 132.671875 184.417969 133.417969 183.355469 133.097656 182.308594 C 132.851562 181.410156 131.890625 180.832031 130.976562 181 C 130.820312 181.03125 130.664062 181.082031 130.515625 181.136719 C 130.140625 181.203125 130.023438 180.679688 130 180.394531 C 129.980469 180.039062 130.011719 179.546875 130.367188 179.363281 C 130.964844 179.125 131.652344 179.117188 132.246094 179.375 C 134.890625 180.742188 134.515625 185.054688 132.222656 186.605469 C 132.011719 186.75 131.734375 186.890625 131.515625 187.003906 C 131.40625 187.085938 131.253906 187.046875 131.167969 186.949219 Z M 131.167969 186.949219 " fill-opacity="1" fill-rule="nonzero"/><path fill="#a47551" d="M 117.105469 190.921875 C 116.121094 190.746094 115.703125 189.613281 115.324219 188.804688 C 115.121094 188.230469 114.835938 187.683594 114.875 187.074219 C 114.898438 186.789062 115.015625 186.269531 115.390625 186.332031 C 115.609375 186.410156 115.675781 186.671875 115.734375 186.867188 C 115.835938 187.167969 115.9375 187.46875 116.054688 187.761719 C 116.261719 188.242188 116.996094 189.792969 117.480469 188.757812 C 117.660156 188.160156 117.679688 187.535156 117.714844 186.917969 C 117.800781 186.394531 117.539062 185.023438 118.199219 184.878906 C 118.578125 184.941406 118.636719 185.457031 118.644531 185.777344 C 118.640625 186.277344 118.625 186.773438 118.597656 187.273438 C 118.515625 188.355469 118.46875 190.703125 117.105469 190.921875 Z M 117.105469 190.921875 " fill-opacity="1" fill-rule="nonzero"/><path fill="#a47551" d="M 121.394531 188.90625 C 120.355469 188.292969 119.976562 186.964844 119.859375 185.828125 C 119.75 184.835938 120.574219 184.222656 120.746094 185.535156 C 120.800781 186.140625 121.058594 186.785156 121.5625 187.144531 C 121.75 187.019531 121.730469 186.226562 121.765625 185.976562 C 121.792969 185.382812 121.816406 184.792969 121.828125 184.199219 C 121.84375 183.011719 122.714844 183.011719 122.726562 184.199219 C 122.640625 185.152344 122.902344 189.21875 121.394531 188.90625 Z M 121.394531 188.90625 " fill-opacity="1" fill-rule="nonzero"/><path fill="#a47551" d="M 115.941406 197.351562 C 112.964844 196.816406 110.511719 194.441406 109.441406 191.667969 C 109.265625 191.148438 109.015625 190.609375 109.117188 190.050781 C 109.148438 189.785156 109.347656 189.296875 109.6875 189.484375 C 109.910156 189.636719 109.9375 189.933594 110.011719 190.171875 C 111.601562 194.84375 116.683594 197.0625 121.128906 194.796875 C 123.90625 193.453125 125.890625 190.742188 126.40625 187.707031 C 126.484375 187.351562 126.484375 186.40625 127.050781 186.625 C 127.714844 187.175781 127.105469 188.84375 126.953125 189.585938 C 125.769531 194.324219 120.945312 198.289062 115.941406 197.351562 Z M 115.941406 197.351562 " fill-opacity="1" fill-rule="nonzero"/><path fill="#a47551" d="M 106.460938 194.066406 C 106.015625 193.324219 106.480469 192.46875 106.777344 191.757812 C 107.382812 190.285156 108.753906 189.242188 110.167969 188.605469 C 110.710938 188.71875 110.6875 189.746094 110.484375 190.140625 C 110.378906 190.398438 110.074219 190.457031 109.863281 190.601562 C 109.453125 190.851562 109.03125 191.085938 108.664062 191.390625 C 108.09375 191.855469 107.5625 192.527344 107.332031 193.203125 C 107.242188 193.421875 107.160156 193.648438 107.089844 193.871094 C 107.011719 194.175781 106.679688 194.40625 106.460938 194.066406 Z M 106.460938 194.066406 " fill-opacity="1" fill-rule="nonzero"/><path fill="#a47551" d="M 128.386719 187.96875 C 127.609375 187.566406 126.742188 187.398438 125.871094 187.453125 C 125.265625 187.375 125.265625 185.738281 125.871094 185.65625 C 126.53125 185.628906 127.203125 185.683594 127.828125 185.902344 C 128.117188 186 128.398438 186.125 128.671875 186.261719 C 128.8125 186.363281 128.882812 186.539062 128.929688 186.703125 C 129.050781 187.058594 128.96875 188.210938 128.386719 187.96875 Z M 128.386719 187.96875 " fill-opacity="1" fill-rule="nonzero"/><path fill="#a47551" d="M 98.164062 192.359375 C 96.78125 190.335938 95.953125 188.347656 95.949219 185.859375 C 95.988281 185.414062 95.832031 184.101562 96.5 184.140625 C 97.101562 184.488281 96.785156 185.488281 96.851562 186.066406 C 96.90625 187.359375 97.285156 188.632812 97.960938 189.738281 C 98.203125 190.132812 98.453125 190.519531 98.695312 190.910156 C 98.804688 191.085938 98.855469 191.285156 98.871094 191.488281 C 98.953125 191.875 98.652344 192.949219 98.164062 192.359375 Z M 98.164062 192.359375 " fill-opacity="1" fill-rule="nonzero"/><path fill="#a47551" d="M 100.371094 195.351562 C 99.648438 195.152344 99.449219 193.085938 100.203125 193.042969 C 100.542969 192.558594 100.921875 193.242188 101.046875 193.558594 C 101.28125 194.050781 101.171875 195.582031 100.371094 195.351562 Z M 100.371094 195.351562 " fill-opacity="1" fill-rule="nonzero"/><g clip-path="url(#e5b6ebe55b)"><path fill="#a47551" d="M 108.222656 212.277344 C 105.945312 212.210938 102.144531 211.984375 100.316406 210.589844 C 99.707031 209.957031 99.746094 208.574219 100.421875 208.003906 C 101.488281 207.355469 102.792969 207.246094 104.015625 207.128906 C 105.078125 207.066406 106.144531 207.121094 107.207031 207.1875 C 107.828125 207.222656 108.445312 207.363281 109.066406 207.371094 C 109.039062 206.917969 109.011719 206.464844 108.988281 206.011719 C 108.972656 205.695312 108.941406 205.367188 109.054688 205.0625 C 109.140625 204.757812 109.464844 204.527344 109.683594 204.867188 C 109.796875 205.039062 109.847656 205.246094 109.863281 205.449219 C 109.894531 206.109375 109.9375 206.773438 109.96875 207.433594 C 110.011719 207.867188 110.007812 208.324219 109.816406 208.726562 C 109.460938 209.464844 108.503906 209.070312 107.871094 209.050781 C 105.726562 208.851562 103.496094 208.730469 101.410156 209.378906 C 103.121094 210.109375 105.011719 210.28125 106.84375 210.433594 C 108.925781 210.523438 111.253906 210.621094 113.050781 209.402344 C 113.429688 209.152344 113.230469 208.769531 113.136719 208.417969 C 112.953125 207.859375 112.746094 207.308594 112.484375 206.78125 C 112.277344 206.386719 112.261719 205.363281 112.800781 205.25 C 113.167969 205.21875 113.554688 206.589844 113.707031 206.910156 C 114.234375 208.265625 114.597656 210.21875 113.222656 211.191406 C 111.753906 212.128906 109.929688 212.292969 108.222656 212.277344 Z M 108.222656 212.277344 " fill-opacity="1" fill-rule="nonzero"/></g><path fill="#a47551" d="M 123.839844 209.617188 C 122.355469 209.488281 121.621094 208.101562 121.113281 206.871094 C 120.796875 206.167969 120.472656 205.472656 120.097656 204.800781 C 119.890625 204.40625 119.875 203.382812 120.414062 203.265625 C 120.726562 203.292969 120.863281 203.847656 121.023438 204.082031 C 121.566406 205.050781 121.882812 206.140625 122.511719 207.0625 C 123.925781 208.726562 126.644531 207.445312 128.253906 206.691406 C 130.546875 205.476562 133.054688 204.007812 134.164062 201.550781 C 132.878906 200.839844 130.523438 202.027344 129.285156 202.589844 C 128.367188 203.042969 127.46875 203.546875 126.660156 204.175781 C 126.398438 204.382812 126.269531 204.488281 126.0625 204.699219 C 125.972656 204.898438 125.738281 205.039062 125.546875 204.875 C 125.046875 204.4375 124.738281 203.816406 124.417969 203.242188 C 124.0625 202.550781 123.519531 201.765625 123.914062 200.972656 C 124.066406 200.628906 124.394531 200.625 124.546875 200.972656 C 124.894531 201.679688 125.234375 202.40625 125.714844 203.039062 C 127 201.832031 128.605469 201.03125 130.203125 200.328125 C 131.46875 199.824219 133.910156 198.832031 134.847656 200.28125 C 135.28125 201.226562 135.085938 202.378906 134.59375 203.265625 C 133.382812 205.488281 131.191406 206.964844 129.019531 208.148438 C 127.421875 208.953125 125.679688 209.84375 123.839844 209.617188 Z M 123.839844 209.617188 " fill-opacity="1" fill-rule="nonzero"/><g fill="#30691c" fill-opacity="1"><g transform="translate(149.455322, 195.374987)"><g><path d="M 1.101562 0.0234375 L 1.425781 0 L 1.601562 0.0234375 L 2.300781 0.0234375 L 2.550781 0 L 4.597656 0 L 5.097656 -0.0234375 L 5.449219 0.0234375 L 5.824219 0 L 6.273438 0.0234375 L 6.824219 -0.0507812 L 7.148438 -0.101562 L 7.625 -0.101562 L 7.824219 -0.273438 L 7.925781 -0.675781 L 7.972656 -1.050781 L 8 -1.199219 L 8 -1.375 L 8.074219 -1.550781 L 8.199219 -2.425781 L 8.273438 -2.625 L 8.25 -2.800781 L 8.300781 -2.976562 L 8.324219 -3.351562 L 8.175781 -3.425781 L 7.523438 -3.425781 L 6.972656 -3.398438 L 5.675781 -3.398438 L 5.449219 -3.425781 L 5.199219 -3.425781 L 5.074219 -3.550781 L 5.074219 -3.800781 L 5.125 -4.050781 L 5.148438 -4.324219 L 5.199219 -4.5 L 5.222656 -4.648438 L 5.25 -4.824219 L 5.25 -5.074219 L 5.300781 -5.300781 L 5.324219 -5.625 L 5.425781 -5.949219 L 5.449219 -6.300781 L 5.5 -6.5 L 5.5 -6.675781 L 5.597656 -7.074219 L 5.625 -7.25 L 5.648438 -7.449219 L 5.722656 -7.800781 L 5.75 -8.175781 L 5.847656 -8.574219 L 5.875 -8.75 L 5.949219 -9.125 L 6 -9.300781 L 6 -9.648438 L 6.050781 -9.824219 L 6.125 -10.347656 L 6.125 -10.550781 L 6.175781 -10.722656 L 6.148438 -10.925781 L 6.25 -11.097656 L 6.324219 -11.425781 L 6.398438 -11.773438 L 6.449219 -11.949219 L 6.472656 -12.125 L 6.523438 -12.324219 L 6.472656 -12.523438 L 6.574219 -12.699219 L 6.625 -13.046875 L 6.722656 -13.398438 L 6.722656 -13.597656 L 6.800781 -13.949219 L 7 -14.824219 L 7.050781 -15.074219 L 7.097656 -15.347656 L 7.175781 -15.875 L 7.222656 -16.023438 L 7.222656 -16.199219 L 7.375 -16.796875 L 7.375 -16.972656 L 7.398438 -17.148438 L 7.324219 -17.449219 L 6.824219 -17.472656 L 5.847656 -17.472656 L 4.925781 -17.5 L 4.324219 -17.5 L 3.925781 -17.449219 L 3.851562 -17.296875 L 3.726562 -16.796875 L 3.675781 -16.648438 L 3.675781 -16.472656 L 3.648438 -16.171875 L 3.550781 -15.875 L 3.476562 -15.472656 L 3.449219 -15.074219 L 3.351562 -14.898438 L 3.351562 -14.75 L 3.324219 -14.574219 L 3.324219 -14.398438 L 3.226562 -14.25 L 3.175781 -13.972656 L 3.148438 -13.648438 L 3.101562 -13.449219 L 3.148438 -13.273438 L 3.101562 -13.074219 L 3 -12.722656 L 2.925781 -12.523438 L 2.949219 -12.324219 L 2.875 -11.796875 L 2.824219 -11.5 L 2.824219 -11.324219 L 2.699219 -11 L 2.699219 -10.648438 L 2.675781 -10.449219 L 2.550781 -10.125 L 2.5 -9.824219 L 2.449219 -9.5 L 2.300781 -8.800781 L 2.300781 -8.675781 L 2.199219 -8.324219 L 2.101562 -7.574219 L 1.976562 -7.222656 L 1.976562 -7.050781 L 1.875 -6.699219 L 1.875 -6.550781 L 1.851562 -6.375 L 1.824219 -6.222656 L 1.824219 -5.875 L 1.773438 -5.722656 L 1.726562 -5.375 L 1.699219 -5.222656 L 1.699219 -5.074219 L 1.625 -4.898438 L 1.550781 -4.574219 L 1.574219 -4.425781 L 1.5 -4.25 L 1.449219 -4.097656 L 1.324219 -3.75 L 1.324219 -3.449219 L 1.273438 -3.226562 L 1.226562 -2.898438 L 1.199219 -2.75 L 1.199219 -2.574219 L 1.101562 -2.25 L 1.101562 -1.875 L 1 -1.550781 L 0.976562 -1.398438 L 0.949219 -1.226562 L 0.875 -0.976562 L 0.773438 -0.726562 L 0.75 -0.574219 L 0.773438 -0.425781 L 0.800781 -0.25 L 0.898438 -0.101562 Z M 1.101562 0.0234375 "/></g></g></g><g fill="#30691c" fill-opacity="1"><g transform="translate(158.253935, 195.374987)"><g><path d="M 2.023438 0.0507812 L 2.226562 0.0234375 L 2.925781 0.0507812 L 3.074219 -0.0507812 L 3.175781 -0.226562 L 3.25 -0.351562 L 3.324219 -0.625 L 3.476562 -1 L 3.726562 -1.476562 L 3.824219 -1.773438 L 3.898438 -1.949219 L 3.949219 -2.125 L 4.125 -2.449219 L 4.25 -2.726562 L 4.925781 -2.726562 L 6.023438 -2.699219 L 6.425781 -2.648438 L 6.972656 -2.625 L 7 -2.425781 L 7 -1.25 L 6.972656 -1 L 7 -0.75 L 7.023438 -0.300781 L 7.074219 -0.0507812 L 7.175781 0.0234375 L 7.550781 0.0234375 L 7.875 0.0507812 L 8.125 0.0234375 L 8.300781 0 L 8.597656 0.0234375 L 8.800781 0.0234375 L 9.347656 0 L 9.699219 0 L 9.898438 0.0234375 L 10.074219 0 C 10.175781 0 10.25 0.0234375 10.347656 0 C 10.472656 -0.0742188 10.449219 -0.300781 10.425781 -0.398438 L 10.425781 -0.925781 L 10.398438 -1.476562 L 10.398438 -1.699219 L 10.375 -1.898438 L 10.398438 -2.25 L 10.398438 -2.625 L 10.375 -2.800781 L 10.347656 -3.125 L 10.347656 -3.273438 L 10.300781 -4.222656 L 10.324219 -4.398438 L 10.300781 -4.75 L 10.324219 -5.125 L 10.300781 -5.5 L 10.300781 -5.675781 L 10.273438 -6.824219 L 10.273438 -7.574219 L 10.25 -7.773438 L 10.222656 -8.074219 L 10.222656 -9.050781 L 10.175781 -9.324219 L 10.148438 -9.722656 L 10.148438 -9.875 L 10.125 -10.199219 L 10.148438 -10.347656 L 10.125 -10.699219 L 10.125 -11.199219 L 10.074219 -11.550781 L 10.074219 -12.097656 L 10.097656 -12.273438 L 10.074219 -12.648438 L 10.074219 -13 L 10.023438 -13.5 L 10 -13.824219 L 10 -14.171875 L 9.972656 -15.074219 L 9.972656 -15.523438 L 9.925781 -15.671875 L 9.925781 -16.222656 L 9.847656 -17.296875 L 9.675781 -17.421875 L 9.550781 -17.472656 L 9.148438 -17.472656 L 8.925781 -17.449219 L 8.75 -17.5 L 8.523438 -17.5 L 8.050781 -17.472656 L 7.648438 -17.472656 L 7.398438 -17.449219 L 6.925781 -17.472656 L 6.675781 -17.472656 L 6.5 -17.449219 L 6.398438 -17.171875 L 6.324219 -17.023438 L 6.25 -16.847656 L 6.023438 -16.398438 L 5.847656 -16.074219 L 5.699219 -15.625 L 5.648438 -15.5 L 5.550781 -15.347656 L 5.398438 -15.074219 L 5.347656 -14.898438 L 5.300781 -14.75 L 5.222656 -14.597656 L 5.175781 -14.421875 L 4.949219 -13.972656 L 4.875 -13.796875 L 4.800781 -13.546875 L 4.648438 -13.324219 L 4.574219 -13.171875 L 4.449219 -12.847656 L 4.25 -12.324219 L 4.148438 -12.171875 L 4.023438 -12 L 3.949219 -11.648438 L 3.800781 -11.324219 L 3.75 -11.199219 L 3.675781 -10.875 L 3.550781 -10.699219 L 3.476562 -10.375 L 3.398438 -10.222656 L 3.25 -9.949219 L 3.125 -9.523438 L 2.949219 -9.199219 L 2.875 -9 L 2.675781 -8.300781 L 2.601562 -8.148438 L 2.476562 -7.800781 L 2.398438 -7.648438 L 2.324219 -7.472656 L 2.300781 -7.324219 L 2.148438 -6.972656 L 2.101562 -6.800781 L 1.949219 -6.5 L 1.824219 -6.300781 L 1.773438 -6.074219 L 1.726562 -5.898438 L 1.550781 -5.550781 L 1.476562 -5.375 L 1.351562 -5.050781 L 1.273438 -4.898438 L 1.25 -4.722656 L 1.199219 -4.574219 L 1.074219 -4.273438 L 0.949219 -4.097656 L 0.898438 -3.949219 L 0.699219 -3.5 L 0.601562 -3.175781 L 0.324219 -2.574219 L 0.199219 -2.273438 L 0.0507812 -1.976562 L -0.199219 -1.226562 L -0.398438 -0.898438 L -0.550781 -0.601562 L -0.574219 -0.449219 L -0.625 -0.273438 L -0.574219 -0.0742188 L -0.351562 -0.0234375 L 1.476562 0 L 1.648438 0.0234375 Z M 6.148438 -5.972656 L 5.925781 -6 L 5.648438 -6.023438 L 5.449219 -6.023438 L 5.273438 -6.175781 L 5.347656 -6.347656 L 5.398438 -6.574219 L 5.449219 -6.75 L 5.574219 -7.175781 L 5.675781 -7.347656 L 5.800781 -7.722656 L 5.824219 -7.898438 L 5.972656 -8.449219 L 6.050781 -8.675781 L 6.125 -8.847656 L 6.199219 -9.074219 L 6.300781 -9.25 L 6.324219 -9.425781 L 6.425781 -9.675781 L 6.523438 -9.875 L 6.648438 -10.273438 L 6.722656 -10.523438 L 6.847656 -10.925781 L 6.949219 -11.25 L 7.148438 -11.324219 L 7.175781 -10.75 L 7.148438 -9.847656 L 7.125 -8.898438 L 7.148438 -8.300781 L 7.097656 -8.097656 L 7.097656 -7.675781 L 7.074219 -7.5 L 7.074219 -6.847656 L 7.050781 -6.648438 L 7.074219 -6.449219 L 7.050781 -6.097656 L 6.898438 -5.972656 Z M 6.148438 -5.972656 "/></g></g></g><g fill="#30691c" fill-opacity="1"><g transform="translate(169.402172, 195.374987)"><g/></g></g><g fill="#30691c" fill-opacity="1"><g transform="translate(175.001287, 195.374987)"><g><path d="M 2.898438 0.0507812 L 3.074219 0.0234375 L 3.199219 0 L 3.949219 0 L 4.25 -0.125 L 4.398438 -0.398438 L 4.425781 -0.648438 L 4.449219 -0.800781 L 4.523438 -0.976562 L 4.550781 -1.300781 L 4.550781 -1.625 L 4.625 -1.925781 L 4.648438 -2.074219 L 4.699219 -2.425781 L 4.75 -2.824219 L 4.773438 -3.050781 L 4.800781 -3.25 L 4.898438 -3.550781 L 4.898438 -3.699219 L 4.949219 -4.050781 L 4.972656 -4.398438 L 4.972656 -4.574219 L 5.023438 -4.875 L 5.074219 -5.222656 L 5.125 -5.398438 L 5.148438 -5.550781 L 5.199219 -5.875 L 5.222656 -6.050781 L 5.222656 -6.523438 L 5.273438 -6.675781 L 5.300781 -6.847656 L 5.398438 -7.773438 L 5.5 -8.175781 L 5.5 -8.472656 L 5.625 -9.5 L 5.722656 -9.5 L 5.824219 -8.347656 L 5.847656 -8.199219 L 5.875 -8.023438 L 5.925781 -7.648438 L 5.972656 -7.125 L 6.125 -6.074219 L 6.175781 -5.75 L 6.25 -5.398438 L 6.300781 -5.25 L 6.347656 -4.722656 L 6.398438 -4.300781 L 6.449219 -4.125 L 6.472656 -3.949219 L 6.5 -3.75 L 6.550781 -3.574219 L 6.574219 -3.375 L 6.699219 -2.949219 L 6.722656 -2.773438 L 7.023438 -2.625 L 7.25 -2.601562 L 7.722656 -2.523438 L 8.273438 -2.574219 L 8.5 -2.523438 L 8.648438 -2.523438 L 8.925781 -2.574219 L 9.050781 -2.824219 L 9.222656 -3.125 L 9.898438 -4.597656 L 10.449219 -5.625 L 10.773438 -6.375 L 11.347656 -7.648438 L 12.097656 -9.125 L 12.171875 -9.125 L 12.074219 -8.523438 L 12.023438 -8.347656 L 12 -8.199219 L 11.921875 -7.847656 L 11.847656 -7.398438 L 11.648438 -6.425781 L 11.597656 -6.25 L 11.597656 -6.097656 L 11.574219 -5.925781 L 11.5 -5.648438 L 11.472656 -5.472656 L 11.449219 -5.324219 L 11.425781 -5.023438 L 11.347656 -4.847656 L 11.300781 -4.523438 L 11.300781 -4.175781 L 11.222656 -3.851562 L 11.125 -3.550781 L 11.097656 -3.226562 L 11 -2.898438 L 10.925781 -2.550781 L 10.875 -2.175781 L 10.824219 -1.824219 L 10.773438 -1.625 L 10.722656 -1.25 L 10.699219 -1.074219 L 10.625 -0.726562 L 10.597656 -0.574219 L 10.625 -0.398438 L 10.675781 -0.125 L 10.847656 0 L 11.023438 0 L 11.148438 0.0234375 L 11.5 0 L 12.597656 0 L 13.347656 0.0234375 L 13.625 0.0234375 L 13.972656 -0.0742188 L 14.046875 -0.300781 L 14.097656 -0.625 L 14.171875 -0.949219 L 14.25 -1.300781 L 14.273438 -1.5 L 14.347656 -1.824219 L 14.347656 -2 L 14.375 -2.175781 L 14.398438 -2.5 L 14.449219 -2.648438 L 14.472656 -2.824219 L 14.546875 -3.148438 L 14.574219 -3.351562 L 14.625 -3.699219 L 14.671875 -3.851562 L 14.722656 -4.199219 L 14.75 -4.398438 L 14.773438 -4.574219 L 14.847656 -4.949219 L 14.875 -5.125 L 15 -5.5 L 15.046875 -5.824219 L 15.046875 -5.972656 L 15.125 -6.324219 L 15.171875 -6.699219 L 15.097656 -6.898438 L 15.222656 -7.074219 L 15.296875 -7.398438 L 15.324219 -7.550781 L 15.347656 -7.722656 L 15.375 -7.875 L 15.347656 -8.050781 L 15.347656 -8.222656 L 15.449219 -8.398438 L 15.472656 -8.773438 L 15.5 -9.050781 L 15.574219 -9.347656 L 15.597656 -9.523438 L 15.625 -9.675781 L 15.699219 -9.972656 L 15.75 -10.324219 L 15.824219 -10.648438 L 15.875 -10.800781 L 15.898438 -10.972656 L 15.898438 -11.125 L 15.921875 -11.347656 L 16.023438 -11.550781 L 16.046875 -11.949219 L 16.097656 -12.296875 L 16.125 -12.449219 L 16.25 -12.773438 L 16.324219 -12.921875 L 16.324219 -13.347656 L 16.421875 -13.523438 L 16.398438 -13.671875 L 16.421875 -13.972656 L 16.472656 -14.125 L 16.546875 -14.472656 L 16.546875 -14.671875 L 16.671875 -15 L 16.699219 -15.171875 L 16.75 -15.324219 L 16.75 -15.671875 L 16.773438 -15.75 L 16.796875 -15.921875 L 16.824219 -16.074219 L 16.847656 -16.25 L 16.875 -16.347656 L 16.898438 -16.699219 L 16.949219 -16.847656 L 17.023438 -17.171875 L 16.972656 -17.347656 L 16.75 -17.5 L 16.25 -17.472656 L 15.398438 -17.523438 L 15 -17.5 L 14.398438 -17.523438 L 13.796875 -17.472656 L 13.671875 -17.222656 L 13.5 -16.972656 L 13.375 -16.671875 L 13.273438 -16.523438 L 13.25 -16.375 L 13.199219 -16.273438 L 13.125 -16.148438 L 13.023438 -16 L 12.875 -15.699219 L 12.699219 -15.421875 L 12.5 -15.074219 L 12.347656 -14.75 L 12 -14.046875 L 11.898438 -13.898438 L 11.398438 -12.898438 L 11.148438 -12.523438 L 11.125 -12.375 L 11.023438 -12.222656 L 10.800781 -11.898438 L 10.699219 -11.597656 L 10.550781 -11.449219 L 10.375 -11.125 L 10.273438 -10.875 L 10.125 -10.648438 L 9.949219 -10.273438 L 9.949219 -10.125 L 9.773438 -9.898438 L 9.625 -9.648438 L 9.449219 -9.300781 L 9.375 -9.125 L 9.175781 -8.722656 L 9.074219 -8.574219 L 9 -8.449219 L 8.675781 -7.824219 L 8.597656 -7.824219 L 8.5 -8.300781 L 8.449219 -8.625 L 8.398438 -8.773438 L 8.398438 -8.949219 L 8.375 -9.125 L 8.375 -9.273438 L 8.273438 -9.625 L 8.175781 -10.472656 L 8.097656 -10.824219 L 8.097656 -11 L 8.023438 -11.347656 L 8 -11.675781 L 8 -11.824219 L 7.972656 -12.148438 L 7.898438 -12.296875 L 7.875 -12.472656 L 7.875 -12.648438 L 7.824219 -13 L 7.800781 -13.148438 L 7.699219 -13.671875 L 7.699219 -13.875 L 7.648438 -14.046875 L 7.625 -14.398438 L 7.574219 -14.722656 L 7.5 -15.125 L 7.472656 -15.546875 L 7.398438 -15.898438 L 7.375 -16.046875 L 7.324219 -16.398438 L 7.273438 -16.574219 L 7.199219 -17.273438 L 7.050781 -17.5 L 6.722656 -17.5 L 6.222656 -17.523438 L 5.773438 -17.5 L 5.347656 -17.5 L 4.925781 -17.523438 L 4.449219 -17.5 L 4.097656 -17.5 L 3.851562 -17.472656 L 3.699219 -17.171875 L 3.699219 -17 L 3.601562 -16.773438 L 3.574219 -16.5 L 3.523438 -16.324219 L 3.550781 -16.125 L 3.476562 -15.796875 L 3.449219 -15.625 L 3.375 -15.347656 L 3.324219 -15.046875 L 3.300781 -14.722656 L 3.300781 -14.574219 L 3.148438 -13.824219 L 3.125 -13.671875 L 3.125 -13.5 L 3.074219 -13.347656 L 3.023438 -13.171875 L 2.949219 -12.847656 L 2.925781 -12.648438 L 2.875 -12.296875 L 2.851562 -12.148438 L 2.800781 -11.796875 L 2.75 -11.648438 L 2.699219 -11.324219 L 2.675781 -11 L 2.601562 -10.699219 L 2.523438 -10.523438 L 2.5 -10.375 L 2.449219 -10.050781 L 2.425781 -9.875 L 2.375 -9.722656 L 2.375 -9.550781 L 2.351562 -9.25 L 2.300781 -8.949219 L 2.25 -8.75 L 2.175781 -8.523438 L 2.199219 -8.375 L 2.125 -8.074219 L 2.101562 -7.925781 L 2.101562 -7.699219 L 1.976562 -7.199219 L 1.925781 -6.847656 L 1.925781 -6.648438 L 1.824219 -6.273438 L 1.800781 -5.875 L 1.75 -5.5 L 1.699219 -5.347656 L 1.675781 -5 L 1.648438 -4.847656 L 1.625 -4.648438 L 1.574219 -4.449219 L 1.5 -4.097656 L 1.476562 -3.75 L 1.449219 -3.550781 L 1.375 -3.375 L 1.375 -3.199219 L 1.351562 -3 L 1.273438 -2.648438 L 1.226562 -2.476562 L 1.175781 -2.175781 L 1.101562 -1.898438 L 1.074219 -1.574219 L 1.050781 -1.398438 L 0.976562 -1.175781 L 1.023438 -0.949219 L 1 -0.800781 L 0.976562 -0.425781 L 0.976562 -0.25 L 1.101562 -0.101562 L 1.199219 -0.0234375 L 1.550781 0 L 2.226562 0 Z M 2.898438 0.0507812 "/></g></g></g><g fill="#30691c" fill-opacity="1"><g transform="translate(191.148743, 195.374987)"><g><path d="M 2.023438 0.0507812 L 2.226562 0.0234375 L 2.925781 0.0507812 L 3.074219 -0.0507812 L 3.175781 -0.226562 L 3.25 -0.351562 L 3.324219 -0.625 L 3.476562 -1 L 3.726562 -1.476562 L 3.824219 -1.773438 L 3.898438 -1.949219 L 3.949219 -2.125 L 4.125 -2.449219 L 4.25 -2.726562 L 4.925781 -2.726562 L 6.023438 -2.699219 L 6.425781 -2.648438 L 6.972656 -2.625 L 7 -2.425781 L 7 -1.25 L 6.972656 -1 L 7 -0.75 L 7.023438 -0.300781 L 7.074219 -0.0507812 L 7.175781 0.0234375 L 7.550781 0.0234375 L 7.875 0.0507812 L 8.125 0.0234375 L 8.300781 0 L 8.597656 0.0234375 L 8.800781 0.0234375 L 9.347656 0 L 9.699219 0 L 9.898438 0.0234375 L 10.074219 0 C 10.175781 0 10.25 0.0234375 10.347656 0 C 10.472656 -0.0742188 10.449219 -0.300781 10.425781 -0.398438 L 10.425781 -0.925781 L 10.398438 -1.476562 L 10.398438 -1.699219 L 10.375 -1.898438 L 10.398438 -2.25 L 10.398438 -2.625 L 10.375 -2.800781 L 10.347656 -3.125 L 10.347656 -3.273438 L 10.300781 -4.222656 L 10.324219 -4.398438 L 10.300781 -4.75 L 10.324219 -5.125 L 10.300781 -5.5 L 10.300781 -5.675781 L 10.273438 -6.824219 L 10.273438 -7.574219 L 10.25 -7.773438 L 10.222656 -8.074219 L 10.222656 -9.050781 L 10.175781 -9.324219 L 10.148438 -9.722656 L 10.148438 -9.875 L 10.125 -10.199219 L 10.148438 -10.347656 L 10.125 -10.699219 L 10.125 -11.199219 L 10.074219 -11.550781 L 10.074219 -12.097656 L 10.097656 -12.273438 L 10.074219 -12.648438 L 10.074219 -13 L 10.023438 -13.5 L 10 -13.824219 L 10 -14.171875 L 9.972656 -15.074219 L 9.972656 -15.523438 L 9.925781 -15.671875 L 9.925781 -16.222656 L 9.847656 -17.296875 L 9.675781 -17.421875 L 9.550781 -17.472656 L 9.148438 -17.472656 L 8.925781 -17.449219 L 8.75 -17.5 L 8.523438 -17.5 L 8.050781 -17.472656 L 7.648438 -17.472656 L 7.398438 -17.449219 L 6.925781 -17.472656 L 6.675781 -17.472656 L 6.5 -17.449219 L 6.398438 -17.171875 L 6.324219 -17.023438 L 6.25 -16.847656 L 6.023438 -16.398438 L 5.847656 -16.074219 L 5.699219 -15.625 L 5.648438 -15.5 L 5.550781 -15.347656 L 5.398438 -15.074219 L 5.347656 -14.898438 L 5.300781 -14.75 L 5.222656 -14.597656 L 5.175781 -14.421875 L 4.949219 -13.972656 L 4.875 -13.796875 L 4.800781 -13.546875 L 4.648438 -13.324219 L 4.574219 -13.171875 L 4.449219 -12.847656 L 4.25 -12.324219 L 4.148438 -12.171875 L 4.023438 -12 L 3.949219 -11.648438 L 3.800781 -11.324219 L 3.75 -11.199219 L 3.675781 -10.875 L 3.550781 -10.699219 L 3.476562 -10.375 L 3.398438 -10.222656 L 3.25 -9.949219 L 3.125 -9.523438 L 2.949219 -9.199219 L 2.875 -9 L 2.675781 -8.300781 L 2.601562 -8.148438 L 2.476562 -7.800781 L 2.398438 -7.648438 L 2.324219 -7.472656 L 2.300781 -7.324219 L 2.148438 -6.972656 L 2.101562 -6.800781 L 1.949219 -6.5 L 1.824219 -6.300781 L 1.773438 -6.074219 L 1.726562 -5.898438 L 1.550781 -5.550781 L 1.476562 -5.375 L 1.351562 -5.050781 L 1.273438 -4.898438 L 1.25 -4.722656 L 1.199219 -4.574219 L 1.074219 -4.273438 L 0.949219 -4.097656 L 0.898438 -3.949219 L 0.699219 -3.5 L 0.601562 -3.175781 L 0.324219 -2.574219 L 0.199219 -2.273438 L 0.0507812 -1.976562 L -0.199219 -1.226562 L -0.398438 -0.898438 L -0.550781 -0.601562 L -0.574219 -0.449219 L -0.625 -0.273438 L -0.574219 -0.0742188 L -0.351562 -0.0234375 L 1.476562 0 L 1.648438 0.0234375 Z M 6.148438 -5.972656 L 5.925781 -6 L 5.648438 -6.023438 L 5.449219 -6.023438 L 5.273438 -6.175781 L 5.347656 -6.347656 L 5.398438 -6.574219 L 5.449219 -6.75 L 5.574219 -7.175781 L 5.675781 -7.347656 L 5.800781 -7.722656 L 5.824219 -7.898438 L 5.972656 -8.449219 L 6.050781 -8.675781 L 6.125 -8.847656 L 6.199219 -9.074219 L 6.300781 -9.25 L 6.324219 -9.425781 L 6.425781 -9.675781 L 6.523438 -9.875 L 6.648438 -10.273438 L 6.722656 -10.523438 L 6.847656 -10.925781 L 6.949219 -11.25 L 7.148438 -11.324219 L 7.175781 -10.75 L 7.148438 -9.847656 L 7.125 -8.898438 L 7.148438 -8.300781 L 7.097656 -8.097656 L 7.097656 -7.675781 L 7.074219 -7.5 L 7.074219 -6.847656 L 7.050781 -6.648438 L 7.074219 -6.449219 L 7.050781 -6.097656 L 6.898438 -5.972656 Z M 6.148438 -5.972656 "/></g></g></g><g fill="#30691c" fill-opacity="1"><g transform="translate(202.296978, 195.374987)"><g><path d="M 5.472656 0.300781 L 5.722656 0.25 L 6.050781 0.226562 L 6.425781 0.226562 L 6.75 0.148438 L 7.050781 0.101562 L 7.347656 0.0234375 L 8 -0.125 L 8.175781 -0.199219 L 8.574219 -0.449219 L 8.949219 -0.773438 L 9.324219 -1.226562 L 9.375 -1.375 L 9.449219 -1.523438 L 9.574219 -1.675781 L 9.675781 -1.824219 L 9.75 -2 L 9.875 -2.300781 L 10.023438 -2.699219 L 10.097656 -2.851562 L 10.148438 -3.023438 L 10.175781 -3.199219 L 10.25 -3.5 L 10.398438 -4.125 L 10.449219 -4.273438 L 10.523438 -4.800781 L 10.550781 -4.898438 L 10.574219 -5.074219 L 10.625 -5.199219 L 10.648438 -5.472656 L 10.699219 -5.800781 L 10.699219 -5.972656 L 10.75 -6.125 L 10.75 -6.398438 L 10.648438 -6.574219 L 10.472656 -6.75 L 10.175781 -6.773438 L 8.949219 -6.847656 L 8.425781 -6.847656 L 7.773438 -6.875 L 7.574219 -6.847656 L 7.398438 -6.648438 L 7.347656 -6.398438 L 7.222656 -6.074219 L 7.199219 -5.898438 L 7.148438 -5.675781 L 7.074219 -5.300781 L 7 -5 L 6.972656 -4.875 L 6.949219 -4.722656 L 6.847656 -4.398438 L 6.722656 -4.050781 L 6.523438 -3.601562 L 6.425781 -3.476562 L 6.074219 -3.25 L 5.699219 -3.25 L 5.300781 -3.199219 L 4.925781 -3.324219 L 4.722656 -3.5 L 4.625 -3.875 L 4.625 -4.050781 L 4.597656 -4.199219 L 4.597656 -4.449219 L 4.625 -4.800781 L 4.699219 -5.148438 L 4.699219 -5.347656 L 4.773438 -5.875 L 4.75 -6.050781 L 4.800781 -6.222656 L 4.824219 -6.398438 L 4.824219 -6.597656 L 4.847656 -6.773438 L 4.925781 -6.949219 L 4.925781 -7.472656 L 5 -7.847656 L 5.050781 -8.050781 L 5.097656 -8.375 L 5.125 -8.550781 L 5.222656 -8.949219 L 5.25 -9.148438 L 5.449219 -10.148438 L 5.574219 -10.523438 L 5.625 -10.875 L 5.675781 -11.050781 L 5.699219 -11.199219 L 5.722656 -11.375 L 5.800781 -11.597656 L 5.875 -11.898438 L 5.949219 -12.273438 L 6.050781 -12.574219 L 6.050781 -12.722656 L 6.199219 -13.148438 L 6.324219 -13.472656 L 6.425781 -13.898438 L 6.5 -14.074219 L 6.574219 -14.222656 L 6.800781 -14.5 L 7.074219 -14.597656 L 7.375 -14.648438 L 7.648438 -14.648438 L 8 -14.546875 L 8.273438 -14.398438 L 8.425781 -13.949219 L 8.425781 -13.574219 L 8.375 -13.222656 L 8.347656 -12.898438 L 8.199219 -12.347656 L 8.148438 -12 L 8.050781 -11.550781 L 8 -11.375 L 8 -11.023438 L 8.175781 -10.75 L 8.898438 -10.648438 L 10.472656 -10.625 L 10.824219 -10.648438 L 11.125 -10.675781 L 11.222656 -10.773438 L 11.347656 -11.425781 L 11.398438 -11.625 L 11.550781 -12.597656 L 11.597656 -13 L 11.648438 -13.375 L 11.699219 -13.574219 L 11.722656 -13.824219 L 11.722656 -14.375 L 11.699219 -14.75 L 11.675781 -14.972656 L 11.648438 -15.296875 L 11.625 -15.597656 L 11.574219 -15.875 L 11.449219 -16.125 L 11.398438 -16.296875 L 11.324219 -16.421875 L 11.199219 -16.648438 L 11.148438 -16.773438 L 10.875 -17.023438 L 10.550781 -17.273438 L 10.199219 -17.398438 L 9.925781 -17.449219 L 9.824219 -17.523438 L 9.648438 -17.546875 L 9.472656 -17.597656 L 9.324219 -17.625 L 8.972656 -17.671875 L 8.722656 -17.671875 L 8.5 -17.75 L 7.875 -17.824219 L 7.472656 -17.824219 L 7 -17.796875 L 6.625 -17.796875 L 6.449219 -17.773438 L 6.125 -17.699219 L 5.699219 -17.625 L 5.175781 -17.398438 L 5.023438 -17.324219 L 4.699219 -17.171875 L 4.550781 -17.046875 L 4.199219 -16.699219 L 4 -16.449219 L 3.824219 -16.199219 L 3.648438 -16.046875 L 3.550781 -15.773438 L 3.398438 -15.421875 L 3.273438 -15.125 L 3.125 -14.699219 L 3.023438 -14.347656 L 2.875 -13.847656 L 2.699219 -13.347656 L 2.625 -13.023438 L 2.550781 -12.847656 L 2.523438 -12.671875 L 2.5 -12.523438 L 2.449219 -12.347656 L 2.425781 -12.171875 L 2.351562 -12.023438 L 2.324219 -11.773438 L 2.273438 -11.5 L 2.226562 -11.324219 L 2.101562 -10.824219 L 2.101562 -10.472656 L 2.023438 -10.324219 L 2.023438 -10.175781 L 2 -9.875 L 1.925781 -9.625 L 1.875 -9.347656 L 1.800781 -9.074219 L 1.800781 -8.972656 L 1.773438 -8.898438 L 1.773438 -8.550781 L 1.675781 -8.398438 L 1.601562 -7.949219 L 1.625 -7.824219 L 1.550781 -7.550781 L 1.5 -7.347656 L 1.523438 -7.125 L 1.425781 -6.773438 L 1.375 -6.25 L 1.351562 -6.097656 L 1.351562 -5.925781 L 1.300781 -5.574219 L 1.273438 -5.222656 L 1.25 -5.023438 L 1.226562 -4.5 L 1.226562 -3.851562 L 1.199219 -3.675781 L 1.199219 -3.449219 L 1.226562 -3.25 L 1.226562 -2.773438 L 1.273438 -2.601562 L 1.324219 -2.273438 L 1.375 -2.125 L 1.449219 -1.800781 L 1.675781 -1.476562 L 1.851562 -1.125 L 1.976562 -1 L 2.074219 -0.875 L 2.398438 -0.625 L 2.550781 -0.523438 L 2.675781 -0.425781 L 2.925781 -0.273438 L 3.074219 -0.148438 L 3.375 -0.0507812 L 3.699219 0.0742188 L 3.851562 0.101562 L 4.023438 0.148438 L 4.273438 0.175781 L 4.425781 0.199219 L 4.625 0.226562 L 4.898438 0.25 L 5.074219 0.273438 L 5.25 0.273438 Z M 5.472656 0.300781 "/></g></g></g><g fill="#30691c" fill-opacity="1"><g transform="translate(213.195255, 195.374987)"><g><path d="M 8.5 0.0507812 L 8.699219 0.0234375 L 9.199219 0.0234375 L 9.523438 0 L 9.675781 -0.0234375 L 10.050781 -0.0234375 L 10.347656 -0.101562 L 10.449219 -0.25 L 10.5 -0.425781 L 10.5 -0.625 L 10.550781 -0.800781 L 10.574219 -1 L 10.648438 -1.125 L 10.699219 -1.425781 L 10.722656 -1.699219 L 10.773438 -1.875 L 10.824219 -2.199219 L 10.847656 -2.375 L 10.925781 -2.726562 L 10.949219 -3.125 L 10.972656 -3.476562 L 11.023438 -3.625 L 11.097656 -3.898438 L 11.175781 -4.25 L 11.199219 -4.425781 L 11.199219 -4.625 L 11.273438 -4.972656 L 11.300781 -5.148438 L 11.347656 -5.300781 L 11.398438 -5.472656 L 11.375 -5.625 L 11.523438 -6.148438 L 11.5 -6.300781 L 11.550781 -6.472656 L 11.625 -6.824219 L 11.675781 -7.097656 L 11.675781 -7.25 L 11.773438 -7.699219 L 11.796875 -7.875 L 11.921875 -8.199219 L 11.949219 -8.375 L 11.949219 -8.699219 L 11.972656 -8.875 L 12.046875 -9.023438 L 12 -9.199219 L 12 -9.398438 L 12.097656 -9.550781 L 12.125 -9.722656 L 12.199219 -10.074219 L 12.222656 -10.222656 L 12.25 -10.597656 L 12.375 -10.949219 L 12.398438 -11.324219 L 12.449219 -11.722656 L 12.5 -12.046875 L 12.523438 -12.199219 L 12.648438 -12.5 L 12.671875 -12.648438 L 12.722656 -12.972656 L 12.75 -13.171875 L 12.796875 -13.347656 L 12.824219 -13.523438 L 12.898438 -13.847656 L 12.921875 -14.023438 L 12.972656 -14.347656 L 12.972656 -14.523438 L 13 -14.847656 L 13.046875 -15.046875 L 13.097656 -15.222656 L 13.125 -15.398438 L 13.125 -15.597656 L 13.148438 -15.949219 L 13.25 -16.25 L 13.25 -16.421875 L 13.273438 -16.574219 L 13.25 -16.671875 L 13.347656 -16.824219 L 13.324219 -17 L 13.347656 -17.148438 L 13.171875 -17.375 L 13 -17.449219 L 12.597656 -17.5 L 11.898438 -17.5 L 11.398438 -17.523438 L 10.5 -17.523438 L 10.273438 -17.5 L 10.125 -17.472656 L 9.925781 -17.25 L 9.898438 -17.097656 L 9.925781 -16.921875 L 9.875 -16.75 L 9.773438 -16.523438 L 9.75 -16.375 L 9.699219 -16.046875 L 9.648438 -15.898438 L 9.574219 -15.574219 L 9.574219 -15.375 L 9.472656 -15.023438 L 9.449219 -14.847656 L 9.472656 -14.648438 L 9.472656 -14.347656 L 9.375 -14.125 L 9.347656 -13.796875 L 9.273438 -13.472656 L 9.273438 -13.296875 L 9.222656 -13.148438 L 9.199219 -12.972656 L 9.175781 -12.773438 L 9.148438 -12.597656 L 9.125 -12.449219 L 9 -12.125 L 9.050781 -11.972656 L 8.925781 -11.597656 L 8.898438 -11.425781 L 8.898438 -11.25 L 8.800781 -11.023438 L 8.75 -10.75 L 8.722656 -10.625 L 8.199219 -10.648438 L 8 -10.625 L 7.699219 -10.648438 L 7.5 -10.625 L 6.773438 -10.648438 L 6.574219 -10.648438 L 6.398438 -10.675781 L 6.449219 -10.875 L 6.472656 -11.023438 L 6.523438 -11.222656 L 6.5 -11.375 L 6.550781 -11.550781 L 6.625 -11.875 L 6.597656 -12.046875 L 6.675781 -12.199219 L 6.699219 -12.375 L 6.75 -12.574219 L 6.800781 -12.699219 L 6.800781 -12.847656 L 6.824219 -13.148438 L 6.875 -13.273438 L 6.898438 -13.597656 L 6.949219 -13.796875 L 7 -13.972656 L 7 -14.375 L 7.074219 -14.546875 L 7.097656 -14.847656 L 7.148438 -15.199219 L 7.25 -15.671875 L 7.273438 -15.898438 L 7.347656 -16.125 L 7.375 -16.472656 L 7.398438 -16.625 L 7.472656 -16.921875 L 7.449219 -17.097656 L 7.449219 -17.25 L 7.398438 -17.472656 L 7.148438 -17.523438 L 6.847656 -17.574219 L 6.597656 -17.5 L 6.050781 -17.5 L 5.699219 -17.523438 L 4.675781 -17.5 L 4.050781 -17.5 L 3.824219 -17.375 L 3.800781 -17.097656 L 3.773438 -16.796875 L 3.699219 -16.472656 L 3.648438 -16.296875 L 3.675781 -16.097656 L 3.601562 -15.921875 L 3.574219 -15.75 L 3.523438 -15.574219 L 3.550781 -15.222656 L 3.375 -14.898438 L 3.375 -14.375 L 3.300781 -14.046875 L 3.273438 -13.898438 L 3.25 -13.699219 L 3.148438 -13.5 L 3.148438 -13.148438 L 3.125 -13.023438 L 3.050781 -12.5 L 3 -12.296875 L 2.949219 -11.972656 L 2.851562 -11.449219 L 2.824219 -11.097656 L 2.800781 -10.925781 L 2.648438 -10.574219 L 2.625 -10.222656 L 2.574219 -9.875 L 2.550781 -9.722656 L 2.425781 -9 L 2.324219 -8.648438 L 2.324219 -8.449219 L 2.25 -8.25 L 2.175781 -8.074219 L 2.125 -7.699219 L 2.125 -7.523438 L 2.074219 -7.222656 L 2 -6.972656 L 1.976562 -6.648438 L 1.875 -6.300781 L 1.898438 -6.125 L 1.851562 -5.925781 L 1.824219 -5.773438 L 1.773438 -5.625 L 1.648438 -4.75 L 1.601562 -4.550781 L 1.523438 -4.199219 L 1.523438 -4 L 1.5 -3.824219 L 1.398438 -3.601562 L 1.300781 -3.425781 L 1.324219 -3.074219 L 1.226562 -2.726562 L 1.25 -2.523438 L 1.199219 -2.351562 L 1.050781 -2.074219 L 1.101562 -1.898438 L 1.050781 -1.75 L 1.050781 -1.574219 L 1 -1.351562 L 0.976562 -1.101562 L 0.851562 -0.773438 L 0.75 -0.550781 L 0.75 -0.351562 L 0.851562 -0.0742188 L 1.351562 -0.0234375 L 2.148438 -0.0234375 L 2.449219 0.0234375 L 2.625 -0.0234375 L 2.800781 -0.0507812 L 2.976562 0.0234375 L 3.175781 0.0234375 L 3.550781 -0.0234375 L 3.851562 -0.0507812 L 4.074219 -0.0742188 L 4.273438 -0.175781 L 4.398438 -0.425781 L 4.449219 -0.800781 L 4.472656 -0.976562 L 4.523438 -1.175781 L 4.574219 -1.523438 L 4.574219 -1.699219 L 4.648438 -2.050781 L 4.675781 -2.25 L 4.824219 -2.949219 L 4.875 -3.324219 L 4.972656 -3.648438 L 5 -3.773438 L 5.125 -4.074219 L 5.097656 -4.222656 L 5.25 -4.773438 L 5.375 -5.347656 L 5.425781 -5.523438 L 5.425781 -5.949219 L 5.523438 -6.125 L 5.574219 -6.449219 L 5.675781 -6.800781 L 5.699219 -7 L 5.722656 -7.125 L 6.148438 -7.097656 L 6.523438 -7.023438 L 7.324219 -7.097656 L 7.550781 -7.050781 L 7.722656 -7.050781 L 7.949219 -7.074219 L 7.898438 -6.773438 L 7.898438 -6.597656 L 7.847656 -6.25 L 7.800781 -6.074219 L 7.722656 -5.722656 L 7.722656 -5.425781 L 7.675781 -5.175781 L 7.574219 -4.898438 L 7.425781 -4.148438 L 7.375 -3.675781 L 7.300781 -3.300781 L 7.273438 -2.949219 L 7.222656 -2.824219 L 7.199219 -2.5 L 7.175781 -2.324219 L 7.175781 -2.148438 L 7.148438 -1.976562 L 7.050781 -1.449219 L 7.050781 -1.101562 L 6.949219 -0.925781 L 6.898438 -0.699219 L 6.875 -0.476562 L 6.847656 -0.273438 L 7 -0.0507812 L 7.175781 -0.0234375 L 7.347656 -0.0234375 L 7.625 0 L 8.300781 0 Z M 8.5 0.0507812 "/></g></g></g><g fill="#30691c" fill-opacity="1"><g transform="translate(225.768256, 195.374987)"><g><path d="M 3.449219 0.0507812 L 4.097656 0.0507812 L 4.375 -0.0234375 L 4.449219 -0.25 L 4.472656 -0.449219 L 4.550781 -0.773438 L 4.597656 -1.125 L 4.675781 -1.449219 L 4.773438 -2.050781 L 4.847656 -2.324219 L 4.847656 -2.5 L 4.898438 -2.824219 L 4.949219 -3.175781 L 5.023438 -3.523438 L 5.023438 -3.726562 L 5.125 -4.050781 L 5.148438 -4.25 L 5.222656 -4.625 L 5.199219 -4.898438 L 5.324219 -5.148438 L 5.324219 -5.5 L 5.347656 -5.625 L 5.398438 -5.972656 L 5.398438 -6.175781 L 5.5 -6.523438 L 5.5 -6.722656 L 5.597656 -7.074219 L 5.648438 -7.375 L 5.699219 -7.699219 L 5.773438 -8.023438 L 5.773438 -8.222656 L 5.847656 -8.398438 L 5.949219 -8.75 L 6.074219 -9.5 L 6.148438 -9.75 L 6.199219 -10.074219 L 6.199219 -10.25 L 6.222656 -10.449219 L 6.25 -10.625 L 6.25 -10.847656 L 6.324219 -11.074219 L 6.398438 -11.425781 L 6.425781 -11.550781 L 6.5 -11.875 L 6.574219 -12.171875 L 6.625 -12.5 L 6.648438 -12.671875 L 6.675781 -12.972656 L 6.699219 -13.148438 L 6.75 -13.449219 L 6.800781 -13.597656 L 6.847656 -13.875 L 6.972656 -14.523438 L 7 -14.671875 L 7 -14.847656 L 7.023438 -15 L 7.023438 -15.199219 L 7.125 -15.421875 L 7.175781 -15.773438 L 7.25 -15.898438 L 7.25 -16.125 L 7.324219 -16.222656 L 7.300781 -16.375 L 7.324219 -16.648438 L 7.375 -16.722656 L 7.375 -17.046875 L 7.398438 -17.199219 L 7.300781 -17.449219 L 7.023438 -17.523438 L 6.847656 -17.5 L 5.523438 -17.5 L 5.347656 -17.472656 L 5 -17.472656 L 4.773438 -17.5 L 4.398438 -17.472656 L 4.222656 -17.449219 L 4.074219 -17.347656 L 3.898438 -17.273438 L 3.726562 -17.023438 L 3.699219 -16.847656 L 3.648438 -16.699219 L 3.601562 -16.324219 L 3.5 -16.046875 L 3.449219 -15.773438 L 3.425781 -15.472656 L 3.375 -15.324219 L 3.351562 -15.171875 L 3.273438 -14.847656 L 3.226562 -14.5 L 3.175781 -14.375 L 3.148438 -14.046875 L 3.125 -13.847656 L 3.148438 -13.671875 L 3.050781 -13.347656 L 3.023438 -13.171875 L 2.949219 -12.847656 L 2.925781 -12.699219 L 2.824219 -12.398438 L 2.851562 -12.222656 L 2.824219 -12.074219 L 2.773438 -11.722656 L 2.699219 -11.550781 L 2.699219 -11.199219 L 2.625 -10.675781 L 2.5 -10.324219 L 2.425781 -10 L 2.375 -9.699219 L 2.375 -9.375 L 2.273438 -9.175781 L 2.226562 -8.824219 L 2.226562 -8.648438 L 2.125 -8.300781 L 2.125 -7.949219 L 2.074219 -7.597656 L 2.050781 -7.449219 L 2.023438 -7.273438 L 1.976562 -7.097656 L 1.976562 -6.949219 L 1.925781 -6.574219 L 1.75 -6.023438 L 1.773438 -5.847656 L 1.726562 -5.675781 L 1.699219 -5.523438 L 1.648438 -5.347656 L 1.648438 -5.175781 L 1.601562 -4.875 L 1.550781 -4.648438 L 1.476562 -4.425781 L 1.425781 -4.199219 L 1.351562 -3.925781 L 1.273438 -3.476562 L 1.300781 -3.324219 L 1.199219 -3 L 1.175781 -2.824219 L 1.125 -2.625 L 1.101562 -2.449219 L 1.023438 -2.074219 L 1 -1.875 L 0.949219 -1.523438 L 0.898438 -1.351562 L 0.875 -0.976562 L 0.75 -0.625 L 0.773438 -0.25 L 0.976562 -0.0742188 L 1.175781 -0.0234375 L 1.375 -0.0507812 L 1.550781 -0.0234375 L 1.824219 0 L 2 -0.0234375 L 2.199219 -0.0234375 L 2.550781 0.0234375 L 3.273438 0.0234375 Z M 3.449219 0.0507812 "/></g></g></g><g fill="#30691c" fill-opacity="1"><g transform="translate(232.342196, 195.374987)"><g><path d="M 1.273438 0.0507812 L 3.925781 0.0507812 L 4.199219 -0.0507812 L 4.273438 -0.300781 L 4.375 -0.601562 L 4.449219 -1.050781 L 4.5 -1.199219 L 4.5 -1.523438 L 4.523438 -1.699219 L 4.597656 -2.023438 L 4.699219 -2.75 L 4.75 -2.925781 L 4.773438 -3.074219 L 4.824219 -3.425781 L 4.925781 -3.925781 L 5.023438 -4.300781 L 5.074219 -4.648438 L 5.097656 -4.800781 L 5.074219 -4.972656 L 5.125 -5.148438 L 5.199219 -5.449219 L 5.148438 -5.625 L 5.222656 -5.949219 L 5.273438 -6.097656 L 5.375 -7.074219 L 5.550781 -8.273438 L 5.574219 -8.898438 L 5.625 -9.324219 L 5.648438 -9.597656 L 5.675781 -10.097656 L 5.699219 -10.800781 L 5.773438 -10.800781 L 5.925781 -9.847656 L 6.074219 -8.949219 L 6.148438 -8.25 L 6.273438 -7.449219 L 6.375 -6.75 L 6.425781 -6.273438 L 6.523438 -5.773438 L 6.523438 -5.398438 L 6.550781 -5.25 L 6.625 -4.898438 L 6.648438 -4.75 L 6.722656 -4.398438 L 6.722656 -4.25 L 6.800781 -3.875 L 6.875 -3.601562 L 6.898438 -3.226562 L 6.949219 -2.875 L 6.972656 -2.726562 L 7.074219 -2.199219 L 7.097656 -2.050781 L 7.148438 -1.523438 L 7.175781 -1.375 L 7.199219 -1.074219 L 7.222656 -0.949219 L 7.347656 -0.601562 L 7.550781 -0.199219 L 7.75 -0.0234375 L 8.175781 -0.0234375 L 8.5 0 L 9 0 L 9.148438 -0.0234375 L 9.398438 0 L 9.574219 -0.0234375 L 10.050781 0 L 10.148438 0 L 10.425781 -0.0507812 L 10.773438 -0.0742188 L 11.023438 -0.25 L 11.25 -0.550781 L 11.375 -1.351562 L 11.449219 -1.675781 L 11.5 -1.851562 L 11.5 -2 L 11.625 -2.324219 L 11.625 -2.726562 L 11.722656 -3.074219 L 11.796875 -3.273438 L 11.847656 -3.601562 L 11.875 -3.925781 L 11.898438 -4.199219 L 12 -4.5 L 12.097656 -4.722656 L 12.148438 -4.972656 L 12.199219 -5.324219 L 12.296875 -5.675781 L 12.296875 -5.824219 L 12.324219 -5.972656 L 12.347656 -6.148438 L 12.375 -6.300781 L 12.398438 -6.523438 L 12.449219 -6.75 L 12.523438 -7.097656 L 12.597656 -7.25 L 12.597656 -7.574219 L 12.625 -7.722656 L 12.648438 -7.898438 L 12.699219 -8.050781 L 12.722656 -8.222656 L 12.773438 -8.375 L 12.75 -8.597656 L 12.796875 -8.800781 L 12.847656 -9.148438 L 12.921875 -9.472656 L 12.972656 -9.648438 L 13.046875 -9.972656 L 13.097656 -10.175781 L 13.125 -10.347656 L 13.148438 -10.625 L 13.222656 -10.847656 L 13.324219 -11.597656 L 13.375 -11.773438 L 13.375 -12.097656 L 13.421875 -12.273438 L 13.472656 -12.472656 L 13.546875 -12.699219 L 13.597656 -13.097656 L 13.699219 -13.5 L 13.773438 -14.023438 L 13.824219 -14.222656 L 13.898438 -14.671875 L 13.972656 -14.949219 L 14.125 -15.546875 L 14.171875 -15.898438 L 14.25 -16.449219 L 14.222656 -16.648438 L 14.296875 -17 L 14.296875 -17.199219 L 14.273438 -17.398438 L 14.125 -17.472656 L 13.773438 -17.546875 L 13.421875 -17.523438 L 13.171875 -17.523438 L 12.597656 -17.546875 L 12.347656 -17.546875 L 12.171875 -17.523438 L 11.648438 -17.574219 L 11.175781 -17.472656 L 11.074219 -17.398438 L 10.875 -17.046875 L 10.773438 -16.523438 L 10.699219 -16.125 L 10.675781 -15.972656 L 10.675781 -15.75 L 10.597656 -15.546875 L 10.550781 -15.375 L 10.472656 -15.023438 L 10.449219 -14.824219 L 10.398438 -14.472656 L 10.347656 -14.324219 L 10.324219 -14.148438 L 10.25 -13.824219 L 10.25 -13.671875 L 10.175781 -13.222656 L 10.199219 -13.046875 L 10.050781 -12.75 L 10.050781 -12.574219 L 10.023438 -12.273438 L 10.023438 -11.972656 L 9.925781 -11.648438 L 9.925781 -11.5 L 9.875 -11.148438 L 9.824219 -11 L 9.800781 -10.648438 L 9.773438 -10.449219 L 9.75 -10.273438 L 9.722656 -10.125 L 9.648438 -9.773438 L 9.648438 -8.925781 L 9.574219 -8.398438 L 9.5 -7.199219 L 9.5 -6.847656 L 9.449219 -6.25 L 9.425781 -5.75 L 9.347656 -5.75 L 9.273438 -6.300781 L 9.199219 -6.972656 L 9.148438 -7.273438 L 9.097656 -7.449219 L 9.097656 -7.625 L 9.050781 -8.175781 L 8.949219 -8.75 L 8.875 -9.425781 L 8.824219 -9.625 L 8.773438 -9.972656 L 8.75 -10.375 L 8.675781 -10.800781 L 8.625 -11.222656 L 8.550781 -11.597656 L 8.523438 -11.875 L 8.523438 -12.046875 L 8.449219 -12.324219 L 8.449219 -12.472656 L 8.375 -12.796875 L 8.324219 -13.171875 L 8.300781 -13.347656 L 8.25 -13.546875 L 8.148438 -14.046875 L 8.074219 -14.398438 L 8 -14.824219 L 7.925781 -15.222656 L 7.824219 -15.824219 L 7.722656 -16.171875 L 7.699219 -16.449219 L 7.648438 -16.75 L 7.550781 -17 L 7.523438 -17.171875 L 7.375 -17.398438 L 7.097656 -17.472656 L 6.75 -17.472656 L 6.375 -17.5 L 6.074219 -17.472656 L 5.597656 -17.5 L 5.273438 -17.472656 L 5.050781 -17.472656 L 4.625 -17.5 L 4.273438 -17.472656 L 4.023438 -17.421875 L 3.875 -17.148438 L 3.800781 -17.023438 L 3.75 -16.875 L 3.675781 -16.546875 L 3.675781 -16.347656 L 3.601562 -16.023438 L 3.550781 -15.722656 L 3.5 -15.398438 L 3.476562 -15.222656 L 3.425781 -15.074219 L 3.398438 -14.898438 L 3.375 -14.75 L 3.351562 -14.574219 L 3.324219 -14.25 L 3.273438 -14.023438 L 3.175781 -13.796875 L 3.175781 -13.625 L 3.050781 -12.921875 L 3 -12.773438 L 2.976562 -12.597656 L 2.976562 -12.296875 L 2.898438 -12.074219 L 2.824219 -11.796875 L 2.773438 -11.472656 L 2.726562 -11.300781 L 2.726562 -11.125 L 2.648438 -10.949219 L 2.648438 -10.75 L 2.574219 -10.550781 L 2.550781 -10.347656 L 2.550781 -10 L 2.5 -9.75 L 2.449219 -9.550781 L 2.324219 -9.25 L 2.300781 -9 L 2.273438 -8.648438 L 2.25 -8.472656 L 2.226562 -8.324219 L 2.101562 -8.023438 L 2.101562 -7.875 L 2.074219 -7.722656 L 2.050781 -7.398438 L 2 -7.25 L 1.976562 -7.074219 L 1.925781 -6.773438 L 1.851562 -6.5 L 1.800781 -6.273438 L 1.75 -5.972656 L 1.648438 -5.574219 L 1.601562 -5.25 L 1.625 -5.074219 L 1.601562 -4.925781 L 1.523438 -4.625 L 1.5 -4.449219 L 1.476562 -4.148438 L 1.375 -3.972656 L 1.375 -3.648438 L 1.324219 -3.449219 L 1.324219 -3.273438 L 1.25 -2.875 L 1.199219 -2.648438 L 1.125 -2.300781 L 1.074219 -2.175781 L 1 -1.824219 L 0.976562 -1.648438 L 0.875 -1.300781 L 0.824219 -0.898438 L 0.824219 -0.5 L 0.773438 -0.300781 L 0.898438 0 Z M 1.273438 0.0507812 "/></g></g></g><g fill="#30691c" fill-opacity="1"><g transform="translate(245.815066, 195.374987)"><g><path d="M 3.675781 0.0234375 L 3.875 0 L 4.273438 -0.0234375 L 4.800781 -0.0234375 L 4.949219 -0.0507812 L 5.273438 -0.0234375 L 5.675781 -0.0507812 L 8.050781 -0.0507812 L 8.125 -0.324219 L 8.175781 -0.550781 L 8.199219 -0.976562 L 8.273438 -1.351562 L 8.300781 -1.523438 L 8.347656 -1.675781 L 8.398438 -1.851562 L 8.398438 -2.175781 L 8.5 -2.726562 L 8.523438 -2.925781 L 8.574219 -3.199219 L 8.597656 -3.300781 L 8.625 -3.5 L 8.449219 -3.574219 L 7.75 -3.550781 L 7.199219 -3.574219 L 6.847656 -3.601562 L 5.375 -3.601562 L 5.023438 -3.648438 L 4.925781 -3.75 L 4.925781 -3.949219 L 5.023438 -4.597656 L 5.097656 -5.050781 L 5.148438 -5.222656 L 5.175781 -5.472656 L 5.222656 -5.699219 L 5.300781 -5.949219 L 5.398438 -6.648438 L 5.472656 -6.972656 L 5.574219 -7.25 L 5.800781 -7.25 L 6.125 -7.273438 L 6.398438 -7.273438 L 6.824219 -7.25 L 7.449219 -7.273438 L 7.675781 -7.273438 L 8.050781 -7.300781 L 8.300781 -7.300781 L 8.347656 -7.347656 L 8.398438 -7.699219 L 8.472656 -8.097656 L 8.523438 -8.449219 L 8.597656 -8.648438 L 8.597656 -8.824219 L 8.675781 -9.199219 L 8.722656 -9.375 L 8.800781 -9.722656 L 8.847656 -10 L 8.847656 -10.199219 L 8.898438 -10.5 L 8.75 -10.699219 L 8.550781 -10.75 L 7.898438 -10.75 L 7.425781 -10.699219 L 6.550781 -10.722656 L 6.097656 -10.722656 L 6.148438 -11.175781 L 6.222656 -11.425781 L 6.199219 -11.625 L 6.25 -11.796875 L 6.324219 -12.148438 L 6.375 -12.5 L 6.449219 -12.972656 L 6.449219 -13.171875 L 6.523438 -13.324219 L 6.523438 -13.671875 L 6.550781 -13.847656 L 6.625 -14.148438 L 7.222656 -14.171875 L 8.847656 -14.171875 L 9.148438 -14.199219 L 10.199219 -14.199219 L 10.449219 -14.222656 L 10.523438 -14.546875 L 10.550781 -14.699219 L 10.648438 -15.046875 L 10.648438 -15.25 L 10.722656 -15.625 L 10.75 -15.773438 L 10.773438 -15.949219 L 10.847656 -16.125 L 10.847656 -16.273438 L 10.898438 -16.898438 L 10.898438 -17.046875 L 10.972656 -17.324219 L 10.847656 -17.5 L 10.625 -17.523438 L 10.375 -17.546875 L 10.148438 -17.523438 L 9.597656 -17.523438 L 8.875 -17.5 L 8.675781 -17.523438 L 8.097656 -17.546875 L 6.222656 -17.523438 L 5.675781 -17.5 L 5.425781 -17.5 L 5.222656 -17.523438 L 5.050781 -17.523438 L 4.75 -17.5 L 4.574219 -17.523438 L 4.425781 -17.5 L 4 -17.5 L 3.800781 -17.347656 L 3.773438 -17.199219 L 3.699219 -17.046875 L 3.625 -16.75 L 3.675781 -16.574219 L 3.648438 -16.421875 L 3.625 -16.097656 L 3.601562 -15.949219 L 3.550781 -15.796875 L 3.523438 -15.472656 L 3.476562 -15.296875 L 3.5 -15.148438 L 3.425781 -14.972656 L 3.425781 -14.796875 L 3.351562 -14.648438 L 3.300781 -14.296875 L 3.199219 -13.972656 L 3.175781 -13.796875 L 3.199219 -13.648438 L 3.175781 -13.472656 L 3.125 -13.273438 L 3.023438 -13.125 L 3 -12.597656 L 2.925781 -12.421875 L 2.898438 -11.722656 L 2.800781 -11.347656 L 2.726562 -11 L 2.75 -10.847656 L 2.699219 -10.675781 L 2.625 -10.472656 L 2.476562 -9.722656 L 2.375 -9.574219 L 2.375 -9.398438 L 2.351562 -9.222656 L 2.324219 -9.023438 L 2.25 -8.847656 L 2.199219 -8.472656 L 2.101562 -8.125 L 2.101562 -7.75 L 2 -7.222656 L 1.949219 -7.050781 L 1.875 -6.675781 L 1.851562 -6.5 L 1.773438 -6.324219 L 1.699219 -6 L 1.726562 -5.847656 L 1.625 -5.550781 L 1.625 -5.425781 L 1.574219 -5.097656 L 1.523438 -4.898438 L 1.523438 -4.722656 L 1.476562 -4.324219 L 1.375 -4.125 L 1.324219 -3.800781 L 1.300781 -3.449219 L 1.273438 -3.273438 L 1.226562 -3.074219 L 1.226562 -2.898438 L 1.175781 -2.726562 L 1.175781 -2.5 L 1.101562 -2.300781 L 1.074219 -1.898438 L 0.976562 -1.523438 L 0.925781 -1.125 L 0.875 -0.75 L 0.824219 -0.523438 L 0.75 -0.300781 L 0.824219 -0.0742188 L 1.050781 -0.0234375 L 2.375 -0.0234375 L 2.550781 0 L 3.199219 0 Z M 3.675781 0.0234375 "/></g></g></g><g fill="#30691c" fill-opacity="1"><g transform="translate(255.238581, 195.374987)"><g/></g></g><g fill="#30691c" fill-opacity="1"><g transform="translate(260.837683, 195.374987)"><g><path d="M 8.222656 -18.625 L 9.375 -18.625 L 9.675781 -18.648438 L 10.222656 -18.722656 L 10.25 -18.898438 L 10 -19.097656 L 9.925781 -19.296875 L 9.824219 -19.421875 L 9.699219 -19.671875 L 9.425781 -19.921875 L 9.324219 -20.148438 L 9.148438 -20.347656 L 9.023438 -20.597656 L 8.898438 -20.699219 L 8.675781 -20.996094 L 8.5 -21.171875 L 8.398438 -21.347656 L 8.125 -21.746094 L 7.898438 -21.949219 L 7.824219 -22.023438 L 7.648438 -22.121094 L 5.75 -22.121094 L 5.425781 -22.097656 L 5.148438 -22.046875 L 5.023438 -21.996094 L 4.972656 -21.796875 L 5.023438 -21.699219 L 5.148438 -21.472656 L 5.300781 -21.296875 L 5.574219 -21.023438 L 5.75 -20.824219 L 5.898438 -20.621094 L 6.074219 -20.449219 L 6.425781 -20.148438 L 6.722656 -19.824219 L 6.847656 -19.699219 L 7.097656 -19.421875 L 7.273438 -19.222656 L 7.5 -19.046875 L 7.675781 -18.847656 L 7.800781 -18.75 L 8 -18.699219 Z M 2.023438 0.0507812 L 2.226562 0.0234375 L 2.925781 0.0507812 L 3.074219 -0.0507812 L 3.175781 -0.226562 L 3.25 -0.351562 L 3.324219 -0.625 L 3.476562 -1 L 3.726562 -1.476562 L 3.824219 -1.773438 L 3.898438 -1.949219 L 3.949219 -2.125 L 4.125 -2.449219 L 4.25 -2.726562 L 4.925781 -2.726562 L 6.023438 -2.699219 L 6.425781 -2.648438 L 6.972656 -2.625 L 7 -2.425781 L 7 -1.25 L 6.972656 -1 L 7 -0.75 L 7.023438 -0.300781 L 7.074219 -0.0507812 L 7.175781 0.0234375 L 7.550781 0.0234375 L 7.875 0.0507812 L 8.125 0.0234375 L 8.300781 0 L 8.597656 0.0234375 L 8.800781 0.0234375 L 9.347656 0 L 9.699219 0 L 9.898438 0.0234375 L 10.074219 0 C 10.175781 0 10.25 0.0234375 10.347656 0 C 10.472656 -0.0742188 10.449219 -0.300781 10.425781 -0.398438 L 10.425781 -0.925781 L 10.398438 -1.476562 L 10.398438 -1.699219 L 10.375 -1.898438 L 10.398438 -2.25 L 10.398438 -2.625 L 10.375 -2.800781 L 10.347656 -3.125 L 10.347656 -3.273438 L 10.300781 -4.222656 L 10.324219 -4.398438 L 10.300781 -4.75 L 10.324219 -5.125 L 10.300781 -5.5 L 10.300781 -5.675781 L 10.273438 -6.824219 L 10.273438 -7.574219 L 10.25 -7.773438 L 10.222656 -8.074219 L 10.222656 -9.050781 L 10.175781 -9.324219 L 10.148438 -9.722656 L 10.148438 -9.875 L 10.125 -10.199219 L 10.148438 -10.347656 L 10.125 -10.699219 L 10.125 -11.199219 L 10.074219 -11.550781 L 10.074219 -12.097656 L 10.097656 -12.273438 L 10.074219 -12.648438 L 10.074219 -13 L 10.023438 -13.5 L 10 -13.824219 L 10 -14.171875 L 9.972656 -15.074219 L 9.972656 -15.523438 L 9.925781 -15.671875 L 9.925781 -16.222656 L 9.847656 -17.296875 L 9.675781 -17.421875 L 9.550781 -17.472656 L 9.148438 -17.472656 L 8.925781 -17.449219 L 8.75 -17.5 L 8.523438 -17.5 L 8.050781 -17.472656 L 7.648438 -17.472656 L 7.398438 -17.449219 L 6.925781 -17.472656 L 6.675781 -17.472656 L 6.5 -17.449219 L 6.398438 -17.171875 L 6.324219 -17.023438 L 6.25 -16.847656 L 6.023438 -16.398438 L 5.847656 -16.074219 L 5.699219 -15.625 L 5.648438 -15.5 L 5.550781 -15.347656 L 5.398438 -15.074219 L 5.347656 -14.898438 L 5.300781 -14.75 L 5.222656 -14.597656 L 5.175781 -14.421875 L 4.949219 -13.972656 L 4.875 -13.796875 L 4.800781 -13.546875 L 4.648438 -13.324219 L 4.574219 -13.171875 L 4.449219 -12.847656 L 4.25 -12.324219 L 4.148438 -12.171875 L 4.023438 -12 L 3.949219 -11.648438 L 3.800781 -11.324219 L 3.75 -11.199219 L 3.675781 -10.875 L 3.550781 -10.699219 L 3.476562 -10.375 L 3.398438 -10.222656 L 3.25 -9.949219 L 3.125 -9.523438 L 2.949219 -9.199219 L 2.875 -9 L 2.675781 -8.300781 L 2.601562 -8.148438 L 2.476562 -7.800781 L 2.398438 -7.648438 L 2.324219 -7.472656 L 2.300781 -7.324219 L 2.148438 -6.972656 L 2.101562 -6.800781 L 1.949219 -6.5 L 1.824219 -6.300781 L 1.773438 -6.074219 L 1.726562 -5.898438 L 1.550781 -5.550781 L 1.476562 -5.375 L 1.351562 -5.050781 L 1.273438 -4.898438 L 1.25 -4.722656 L 1.199219 -4.574219 L 1.074219 -4.273438 L 0.949219 -4.097656 L 0.898438 -3.949219 L 0.699219 -3.5 L 0.601562 -3.175781 L 0.324219 -2.574219 L 0.199219 -2.273438 L 0.0507812 -1.976562 L -0.199219 -1.226562 L -0.398438 -0.898438 L -0.550781 -0.601562 L -0.574219 -0.449219 L -0.625 -0.273438 L -0.574219 -0.0742188 L -0.351562 -0.0234375 L 1.476562 0 L 1.648438 0.0234375 Z M 6.148438 -5.972656 L 5.925781 -6 L 5.648438 -6.023438 L 5.449219 -6.023438 L 5.273438 -6.175781 L 5.347656 -6.347656 L 5.398438 -6.574219 L 5.449219 -6.75 L 5.574219 -7.175781 L 5.675781 -7.347656 L 5.800781 -7.722656 L 5.824219 -7.898438 L 5.972656 -8.449219 L 6.050781 -8.675781 L 6.125 -8.847656 L 6.199219 -9.074219 L 6.300781 -9.25 L 6.324219 -9.425781 L 6.425781 -9.675781 L 6.523438 -9.875 L 6.648438 -10.273438 L 6.722656 -10.523438 L 6.847656 -10.925781 L 6.949219 -11.25 L 7.148438 -11.324219 L 7.175781 -10.75 L 7.148438 -9.847656 L 7.125 -8.898438 L 7.148438 -8.300781 L 7.097656 -8.097656 L 7.097656 -7.675781 L 7.074219 -7.5 L 7.074219 -6.847656 L 7.050781 -6.648438 L 7.074219 -6.449219 L 7.050781 -6.097656 L 6.898438 -5.972656 Z M 6.148438 -5.972656 "/></g></g></g><g fill="#30691c" fill-opacity="1"><g transform="translate(271.985934, 195.374987)"><g/></g></g><g fill="#30691c" fill-opacity="1"><g transform="translate(277.585035, 195.374987)"><g><path d="M 5.472656 0.300781 L 5.722656 0.25 L 6.050781 0.226562 L 6.425781 0.226562 L 6.75 0.148438 L 7.050781 0.101562 L 7.347656 0.0234375 L 8 -0.125 L 8.175781 -0.199219 L 8.574219 -0.449219 L 8.949219 -0.773438 L 9.324219 -1.226562 L 9.375 -1.375 L 9.449219 -1.523438 L 9.574219 -1.675781 L 9.675781 -1.824219 L 9.75 -2 L 9.875 -2.300781 L 10.023438 -2.699219 L 10.097656 -2.851562 L 10.148438 -3.023438 L 10.175781 -3.199219 L 10.25 -3.5 L 10.398438 -4.125 L 10.449219 -4.273438 L 10.523438 -4.800781 L 10.550781 -4.898438 L 10.574219 -5.074219 L 10.625 -5.199219 L 10.648438 -5.472656 L 10.699219 -5.800781 L 10.699219 -5.972656 L 10.75 -6.125 L 10.75 -6.398438 L 10.648438 -6.574219 L 10.472656 -6.75 L 10.175781 -6.773438 L 8.949219 -6.847656 L 8.425781 -6.847656 L 7.773438 -6.875 L 7.574219 -6.847656 L 7.398438 -6.648438 L 7.347656 -6.398438 L 7.222656 -6.074219 L 7.199219 -5.898438 L 7.148438 -5.675781 L 7.074219 -5.300781 L 7 -5 L 6.972656 -4.875 L 6.949219 -4.722656 L 6.847656 -4.398438 L 6.722656 -4.050781 L 6.523438 -3.601562 L 6.425781 -3.476562 L 6.074219 -3.25 L 5.699219 -3.25 L 5.300781 -3.199219 L 4.925781 -3.324219 L 4.722656 -3.5 L 4.625 -3.875 L 4.625 -4.050781 L 4.597656 -4.199219 L 4.597656 -4.449219 L 4.625 -4.800781 L 4.699219 -5.148438 L 4.699219 -5.347656 L 4.773438 -5.875 L 4.75 -6.050781 L 4.800781 -6.222656 L 4.824219 -6.398438 L 4.824219 -6.597656 L 4.847656 -6.773438 L 4.925781 -6.949219 L 4.925781 -7.472656 L 5 -7.847656 L 5.050781 -8.050781 L 5.097656 -8.375 L 5.125 -8.550781 L 5.222656 -8.949219 L 5.25 -9.148438 L 5.449219 -10.148438 L 5.574219 -10.523438 L 5.625 -10.875 L 5.675781 -11.050781 L 5.699219 -11.199219 L 5.722656 -11.375 L 5.800781 -11.597656 L 5.875 -11.898438 L 5.949219 -12.273438 L 6.050781 -12.574219 L 6.050781 -12.722656 L 6.199219 -13.148438 L 6.324219 -13.472656 L 6.425781 -13.898438 L 6.5 -14.074219 L 6.574219 -14.222656 L 6.800781 -14.5 L 7.074219 -14.597656 L 7.375 -14.648438 L 7.648438 -14.648438 L 8 -14.546875 L 8.273438 -14.398438 L 8.425781 -13.949219 L 8.425781 -13.574219 L 8.375 -13.222656 L 8.347656 -12.898438 L 8.199219 -12.347656 L 8.148438 -12 L 8.050781 -11.550781 L 8 -11.375 L 8 -11.023438 L 8.175781 -10.75 L 8.898438 -10.648438 L 10.472656 -10.625 L 10.824219 -10.648438 L 11.125 -10.675781 L 11.222656 -10.773438 L 11.347656 -11.425781 L 11.398438 -11.625 L 11.550781 -12.597656 L 11.597656 -13 L 11.648438 -13.375 L 11.699219 -13.574219 L 11.722656 -13.824219 L 11.722656 -14.375 L 11.699219 -14.75 L 11.675781 -14.972656 L 11.648438 -15.296875 L 11.625 -15.597656 L 11.574219 -15.875 L 11.449219 -16.125 L 11.398438 -16.296875 L 11.324219 -16.421875 L 11.199219 -16.648438 L 11.148438 -16.773438 L 10.875 -17.023438 L 10.550781 -17.273438 L 10.199219 -17.398438 L 9.925781 -17.449219 L 9.824219 -17.523438 L 9.648438 -17.546875 L 9.472656 -17.597656 L 9.324219 -17.625 L 8.972656 -17.671875 L 8.722656 -17.671875 L 8.5 -17.75 L 7.875 -17.824219 L 7.472656 -17.824219 L 7 -17.796875 L 6.625 -17.796875 L 6.449219 -17.773438 L 6.125 -17.699219 L 5.699219 -17.625 L 5.175781 -17.398438 L 5.023438 -17.324219 L 4.699219 -17.171875 L 4.550781 -17.046875 L 4.199219 -16.699219 L 4 -16.449219 L 3.824219 -16.199219 L 3.648438 -16.046875 L 3.550781 -15.773438 L 3.398438 -15.421875 L 3.273438 -15.125 L 3.125 -14.699219 L 3.023438 -14.347656 L 2.875 -13.847656 L 2.699219 -13.347656 L 2.625 -13.023438 L 2.550781 -12.847656 L 2.523438 -12.671875 L 2.5 -12.523438 L 2.449219 -12.347656 L 2.425781 -12.171875 L 2.351562 -12.023438 L 2.324219 -11.773438 L 2.273438 -11.5 L 2.226562 -11.324219 L 2.101562 -10.824219 L 2.101562 -10.472656 L 2.023438 -10.324219 L 2.023438 -10.175781 L 2 -9.875 L 1.925781 -9.625 L 1.875 -9.347656 L 1.800781 -9.074219 L 1.800781 -8.972656 L 1.773438 -8.898438 L 1.773438 -8.550781 L 1.675781 -8.398438 L 1.601562 -7.949219 L 1.625 -7.824219 L 1.550781 -7.550781 L 1.5 -7.347656 L 1.523438 -7.125 L 1.425781 -6.773438 L 1.375 -6.25 L 1.351562 -6.097656 L 1.351562 -5.925781 L 1.300781 -5.574219 L 1.273438 -5.222656 L 1.25 -5.023438 L 1.226562 -4.5 L 1.226562 -3.851562 L 1.199219 -3.675781 L 1.199219 -3.449219 L 1.226562 -3.25 L 1.226562 -2.773438 L 1.273438 -2.601562 L 1.324219 -2.273438 L 1.375 -2.125 L 1.449219 -1.800781 L 1.675781 -1.476562 L 1.851562 -1.125 L 1.976562 -1 L 2.074219 -0.875 L 2.398438 -0.625 L 2.550781 -0.523438 L 2.675781 -0.425781 L 2.925781 -0.273438 L 3.074219 -0.148438 L 3.375 -0.0507812 L 3.699219 0.0742188 L 3.851562 0.101562 L 4.023438 0.148438 L 4.273438 0.175781 L 4.425781 0.199219 L 4.625 0.226562 L 4.898438 0.25 L 5.074219 0.273438 L 5.25 0.273438 Z M 5.472656 0.300781 "/></g></g></g><g fill="#30691c" fill-opacity="1"><g transform="translate(288.483326, 195.374987)"><g><path d="M 2.023438 0.0507812 L 2.226562 0.0234375 L 2.925781 0.0507812 L 3.074219 -0.0507812 L 3.175781 -0.226562 L 3.25 -0.351562 L 3.324219 -0.625 L 3.476562 -1 L 3.726562 -1.476562 L 3.824219 -1.773438 L 3.898438 -1.949219 L 3.949219 -2.125 L 4.125 -2.449219 L 4.25 -2.726562 L 4.925781 -2.726562 L 6.023438 -2.699219 L 6.425781 -2.648438 L 6.972656 -2.625 L 7 -2.425781 L 7 -1.25 L 6.972656 -1 L 7 -0.75 L 7.023438 -0.300781 L 7.074219 -0.0507812 L 7.175781 0.0234375 L 7.550781 0.0234375 L 7.875 0.0507812 L 8.125 0.0234375 L 8.300781 0 L 8.597656 0.0234375 L 8.800781 0.0234375 L 9.347656 0 L 9.699219 0 L 9.898438 0.0234375 L 10.074219 0 C 10.175781 0 10.25 0.0234375 10.347656 0 C 10.472656 -0.0742188 10.449219 -0.300781 10.425781 -0.398438 L 10.425781 -0.925781 L 10.398438 -1.476562 L 10.398438 -1.699219 L 10.375 -1.898438 L 10.398438 -2.25 L 10.398438 -2.625 L 10.375 -2.800781 L 10.347656 -3.125 L 10.347656 -3.273438 L 10.300781 -4.222656 L 10.324219 -4.398438 L 10.300781 -4.75 L 10.324219 -5.125 L 10.300781 -5.5 L 10.300781 -5.675781 L 10.273438 -6.824219 L 10.273438 -7.574219 L 10.25 -7.773438 L 10.222656 -8.074219 L 10.222656 -9.050781 L 10.175781 -9.324219 L 10.148438 -9.722656 L 10.148438 -9.875 L 10.125 -10.199219 L 10.148438 -10.347656 L 10.125 -10.699219 L 10.125 -11.199219 L 10.074219 -11.550781 L 10.074219 -12.097656 L 10.097656 -12.273438 L 10.074219 -12.648438 L 10.074219 -13 L 10.023438 -13.5 L 10 -13.824219 L 10 -14.171875 L 9.972656 -15.074219 L 9.972656 -15.523438 L 9.925781 -15.671875 L 9.925781 -16.222656 L 9.847656 -17.296875 L 9.675781 -17.421875 L 9.550781 -17.472656 L 9.148438 -17.472656 L 8.925781 -17.449219 L 8.75 -17.5 L 8.523438 -17.5 L 8.050781 -17.472656 L 7.648438 -17.472656 L 7.398438 -17.449219 L 6.925781 -17.472656 L 6.675781 -17.472656 L 6.5 -17.449219 L 6.398438 -17.171875 L 6.324219 -17.023438 L 6.25 -16.847656 L 6.023438 -16.398438 L 5.847656 -16.074219 L 5.699219 -15.625 L 5.648438 -15.5 L 5.550781 -15.347656 L 5.398438 -15.074219 L 5.347656 -14.898438 L 5.300781 -14.75 L 5.222656 -14.597656 L 5.175781 -14.421875 L 4.949219 -13.972656 L 4.875 -13.796875 L 4.800781 -13.546875 L 4.648438 -13.324219 L 4.574219 -13.171875 L 4.449219 -12.847656 L 4.25 -12.324219 L 4.148438 -12.171875 L 4.023438 -12 L 3.949219 -11.648438 L 3.800781 -11.324219 L 3.75 -11.199219 L 3.675781 -10.875 L 3.550781 -10.699219 L 3.476562 -10.375 L 3.398438 -10.222656 L 3.25 -9.949219 L 3.125 -9.523438 L 2.949219 -9.199219 L 2.875 -9 L 2.675781 -8.300781 L 2.601562 -8.148438 L 2.476562 -7.800781 L 2.398438 -7.648438 L 2.324219 -7.472656 L 2.300781 -7.324219 L 2.148438 -6.972656 L 2.101562 -6.800781 L 1.949219 -6.5 L 1.824219 -6.300781 L 1.773438 -6.074219 L 1.726562 -5.898438 L 1.550781 -5.550781 L 1.476562 -5.375 L 1.351562 -5.050781 L 1.273438 -4.898438 L 1.25 -4.722656 L 1.199219 -4.574219 L 1.074219 -4.273438 L 0.949219 -4.097656 L 0.898438 -3.949219 L 0.699219 -3.5 L 0.601562 -3.175781 L 0.324219 -2.574219 L 0.199219 -2.273438 L 0.0507812 -1.976562 L -0.199219 -1.226562 L -0.398438 -0.898438 L -0.550781 -0.601562 L -0.574219 -0.449219 L -0.625 -0.273438 L -0.574219 -0.0742188 L -0.351562 -0.0234375 L 1.476562 0 L 1.648438 0.0234375 Z M 6.148438 -5.972656 L 5.925781 -6 L 5.648438 -6.023438 L 5.449219 -6.023438 L 5.273438 -6.175781 L 5.347656 -6.347656 L 5.398438 -6.574219 L 5.449219 -6.75 L 5.574219 -7.175781 L 5.675781 -7.347656 L 5.800781 -7.722656 L 5.824219 -7.898438 L 5.972656 -8.449219 L 6.050781 -8.675781 L 6.125 -8.847656 L 6.199219 -9.074219 L 6.300781 -9.25 L 6.324219 -9.425781 L 6.425781 -9.675781 L 6.523438 -9.875 L 6.648438 -10.273438 L 6.722656 -10.523438 L 6.847656 -10.925781 L 6.949219 -11.25 L 7.148438 -11.324219 L 7.175781 -10.75 L 7.148438 -9.847656 L 7.125 -8.898438 L 7.148438 -8.300781 L 7.097656 -8.097656 L 7.097656 -7.675781 L 7.074219 -7.5 L 7.074219 -6.847656 L 7.050781 -6.648438 L 7.074219 -6.449219 L 7.050781 -6.097656 L 6.898438 -5.972656 Z M 6.148438 -5.972656 "/></g></g></g><g fill="#30691c" fill-opacity="1"><g transform="translate(299.631546, 195.374987)"><g><path d="M 1.449219 0.0234375 L 2.425781 0.0234375 L 2.574219 0 L 3.074219 0.0234375 L 3.675781 -0.0234375 L 3.851562 -0.0507812 L 4.023438 -0.0234375 L 4.273438 -0.199219 L 4.375 -0.523438 L 4.425781 -0.824219 L 4.5 -1.125 L 4.472656 -1.300781 L 4.5 -1.476562 L 4.5 -1.625 L 4.523438 -1.800781 L 4.675781 -2.101562 L 4.699219 -2.273438 L 4.75 -2.574219 L 4.800781 -2.925781 L 4.800781 -3.074219 L 4.824219 -3.425781 L 4.875 -3.601562 L 4.847656 -3.773438 L 4.949219 -4.097656 L 5.023438 -4.398438 L 5.097656 -4.773438 L 5.175781 -5.097656 L 5.148438 -5.25 L 5.25 -5.523438 L 5.273438 -5.648438 L 5.347656 -6 L 5.398438 -6.324219 L 5.449219 -6.574219 L 5.523438 -6.972656 L 6.125 -6.925781 L 6.699219 -6.972656 L 7.597656 -6.972656 L 7.875 -6.949219 L 8.125 -6.949219 L 8.273438 -7.25 L 8.347656 -7.597656 L 8.449219 -7.925781 L 8.449219 -8.222656 L 8.523438 -8.550781 L 8.550781 -8.722656 L 8.574219 -8.875 L 8.648438 -9.175781 L 8.648438 -9.300781 L 8.75 -9.648438 L 8.75 -9.847656 L 8.824219 -10.050781 L 8.847656 -10.25 L 8.773438 -10.523438 L 8.425781 -10.550781 L 8.148438 -10.550781 L 7.800781 -10.523438 L 7.5 -10.5 L 6.398438 -10.523438 L 6.125 -10.550781 L 6.199219 -10.800781 L 6.25 -11.097656 L 6.25 -11.273438 L 6.273438 -11.425781 L 6.324219 -11.597656 L 6.324219 -11.796875 L 6.425781 -12 L 6.523438 -12.597656 L 6.523438 -12.722656 L 6.597656 -13.074219 L 6.675781 -13.449219 L 6.699219 -13.625 L 6.722656 -13.898438 L 6.773438 -14.097656 L 7.023438 -14.097656 L 8.050781 -14.125 L 8.699219 -14.148438 L 9.050781 -14.125 L 9.523438 -14.074219 L 9.925781 -14.125 L 10.148438 -14.097656 L 10.375 -14.222656 L 10.449219 -14.75 L 10.550781 -15.199219 L 10.550781 -15.375 L 10.574219 -15.523438 L 10.648438 -15.847656 L 10.722656 -16.273438 L 10.722656 -16.398438 L 10.773438 -16.722656 L 10.773438 -17 L 10.824219 -17.171875 L 10.75 -17.375 L 10.425781 -17.472656 L 10.125 -17.472656 L 9.722656 -17.5 L 6.800781 -17.5 L 6.148438 -17.523438 L 5.25 -17.546875 L 4.023438 -17.5 L 3.726562 -17.375 L 3.675781 -17.074219 L 3.648438 -16.898438 L 3.675781 -16.597656 L 3.625 -16.472656 L 3.574219 -16.148438 L 3.476562 -15.699219 L 3.476562 -15.5 L 3.375 -15.324219 L 3.351562 -15.046875 L 3.324219 -14.722656 L 3.300781 -14.523438 L 3.25 -14.375 L 3.175781 -14.046875 L 3.148438 -13.699219 L 3.074219 -13.546875 L 3.074219 -13.375 L 2.949219 -12.972656 L 2.925781 -12.796875 L 2.925781 -12.625 L 2.898438 -12.449219 L 2.925781 -12.296875 L 2.875 -11.972656 L 2.824219 -11.796875 L 2.773438 -11.449219 L 2.699219 -11.273438 L 2.648438 -10.925781 L 2.648438 -10.625 L 2.574219 -10.324219 L 2.523438 -10.148438 L 2.425781 -9.847656 L 2.324219 -9.523438 L 2.300781 -9.199219 L 2.226562 -8.847656 L 2.226562 -8.675781 L 2.125 -8.347656 L 2.023438 -7.648438 L 2.023438 -7.300781 L 1.949219 -7.125 L 1.898438 -6.75 L 1.925781 -6.574219 L 1.851562 -6.175781 L 1.726562 -5.824219 L 1.675781 -5.5 L 1.675781 -5.148438 L 1.574219 -4.847656 L 1.574219 -4.675781 L 1.523438 -4.523438 L 1.523438 -4.324219 L 1.449219 -4.097656 L 1.425781 -3.75 L 1.375 -3.601562 L 1.375 -3.375 L 1.273438 -3.125 L 1.175781 -2.773438 L 1.148438 -2.574219 L 1.125 -2.25 L 1.101562 -2.074219 L 1.074219 -1.925781 L 0.976562 -1.726562 L 0.925781 -1.449219 L 0.898438 -1.273438 L 0.875 -1.125 L 0.898438 -0.773438 L 0.800781 -0.574219 L 0.800781 -0.300781 L 0.898438 -0.0507812 L 1.199219 0 Z M 1.449219 0.0234375 "/></g></g></g><g fill="#30691c" fill-opacity="1"><g transform="translate(308.755091, 195.374987)"><g><path d="M 5.949219 -18.648438 L 6.273438 -18.671875 L 6.972656 -18.648438 L 7.449219 -18.648438 L 7.722656 -18.75 L 7.824219 -18.875 L 8.148438 -19.046875 L 8.550781 -19.449219 L 8.875 -19.699219 L 9.074219 -19.847656 L 9.398438 -20.148438 L 9.722656 -20.472656 L 9.972656 -20.648438 L 10.148438 -20.824219 L 10.347656 -20.996094 L 10.675781 -21.273438 L 10.847656 -21.449219 L 11 -21.699219 L 11.097656 -21.824219 L 11.050781 -21.996094 L 10.925781 -22.046875 L 10.675781 -22.121094 L 8.199219 -22.121094 L 7.949219 -22.023438 L 7.875 -21.972656 L 7.648438 -21.796875 L 7.25 -21.246094 L 7.097656 -21.097656 L 6.925781 -20.871094 L 6.722656 -20.671875 L 6.574219 -20.546875 L 6.398438 -20.371094 L 6.25 -20.199219 L 6.023438 -19.949219 L 5.773438 -19.699219 L 5.625 -19.472656 L 5.523438 -19.347656 L 5.324219 -19.125 L 5.148438 -18.949219 L 5.074219 -18.75 L 5.300781 -18.722656 L 5.699219 -18.671875 Z M 3.675781 0.0234375 L 3.875 0 L 4.273438 -0.0234375 L 4.800781 -0.0234375 L 4.949219 -0.0507812 L 5.273438 -0.0234375 L 5.675781 -0.0507812 L 8.050781 -0.0507812 L 8.125 -0.324219 L 8.175781 -0.550781 L 8.199219 -0.976562 L 8.273438 -1.351562 L 8.300781 -1.523438 L 8.347656 -1.675781 L 8.398438 -1.851562 L 8.398438 -2.175781 L 8.5 -2.726562 L 8.523438 -2.925781 L 8.574219 -3.199219 L 8.597656 -3.300781 L 8.625 -3.5 L 8.449219 -3.574219 L 7.75 -3.550781 L 7.199219 -3.574219 L 6.847656 -3.601562 L 5.375 -3.601562 L 5.023438 -3.648438 L 4.925781 -3.75 L 4.925781 -3.949219 L 5.023438 -4.597656 L 5.097656 -5.050781 L 5.148438 -5.222656 L 5.175781 -5.472656 L 5.222656 -5.699219 L 5.300781 -5.949219 L 5.398438 -6.648438 L 5.472656 -6.972656 L 5.574219 -7.25 L 5.800781 -7.25 L 6.125 -7.273438 L 6.398438 -7.273438 L 6.824219 -7.25 L 7.449219 -7.273438 L 7.675781 -7.273438 L 8.050781 -7.300781 L 8.300781 -7.300781 L 8.347656 -7.347656 L 8.398438 -7.699219 L 8.472656 -8.097656 L 8.523438 -8.449219 L 8.597656 -8.648438 L 8.597656 -8.824219 L 8.675781 -9.199219 L 8.722656 -9.375 L 8.800781 -9.722656 L 8.847656 -10 L 8.847656 -10.199219 L 8.898438 -10.5 L 8.75 -10.699219 L 8.550781 -10.75 L 7.898438 -10.75 L 7.425781 -10.699219 L 6.550781 -10.722656 L 6.097656 -10.722656 L 6.148438 -11.175781 L 6.222656 -11.425781 L 6.199219 -11.625 L 6.25 -11.796875 L 6.324219 -12.148438 L 6.375 -12.5 L 6.449219 -12.972656 L 6.449219 -13.171875 L 6.523438 -13.324219 L 6.523438 -13.671875 L 6.550781 -13.847656 L 6.625 -14.148438 L 7.222656 -14.171875 L 8.847656 -14.171875 L 9.148438 -14.199219 L 10.199219 -14.199219 L 10.449219 -14.222656 L 10.523438 -14.546875 L 10.550781 -14.699219 L 10.648438 -15.046875 L 10.648438 -15.25 L 10.722656 -15.625 L 10.75 -15.773438 L 10.773438 -15.949219 L 10.847656 -16.125 L 10.847656 -16.273438 L 10.898438 -16.898438 L 10.898438 -17.046875 L 10.972656 -17.324219 L 10.847656 -17.5 L 10.625 -17.523438 L 10.375 -17.546875 L 10.148438 -17.523438 L 9.597656 -17.523438 L 8.875 -17.5 L 8.675781 -17.523438 L 8.097656 -17.546875 L 6.222656 -17.523438 L 5.675781 -17.5 L 5.425781 -17.5 L 5.222656 -17.523438 L 5.050781 -17.523438 L 4.75 -17.5 L 4.574219 -17.523438 L 4.425781 -17.5 L 4 -17.5 L 3.800781 -17.347656 L 3.773438 -17.199219 L 3.699219 -17.046875 L 3.625 -16.75 L 3.675781 -16.574219 L 3.648438 -16.421875 L 3.625 -16.097656 L 3.601562 -15.949219 L 3.550781 -15.796875 L 3.523438 -15.472656 L 3.476562 -15.296875 L 3.5 -15.148438 L 3.425781 -14.972656 L 3.425781 -14.796875 L 3.351562 -14.648438 L 3.300781 -14.296875 L 3.199219 -13.972656 L 3.175781 -13.796875 L 3.199219 -13.648438 L 3.175781 -13.472656 L 3.125 -13.273438 L 3.023438 -13.125 L 3 -12.597656 L 2.925781 -12.421875 L 2.898438 -11.722656 L 2.800781 -11.347656 L 2.726562 -11 L 2.75 -10.847656 L 2.699219 -10.675781 L 2.625 -10.472656 L 2.476562 -9.722656 L 2.375 -9.574219 L 2.375 -9.398438 L 2.351562 -9.222656 L 2.324219 -9.023438 L 2.25 -8.847656 L 2.199219 -8.472656 L 2.101562 -8.125 L 2.101562 -7.75 L 2 -7.222656 L 1.949219 -7.050781 L 1.875 -6.675781 L 1.851562 -6.5 L 1.773438 -6.324219 L 1.699219 -6 L 1.726562 -5.847656 L 1.625 -5.550781 L 1.625 -5.425781 L 1.574219 -5.097656 L 1.523438 -4.898438 L 1.523438 -4.722656 L 1.476562 -4.324219 L 1.375 -4.125 L 1.324219 -3.800781 L 1.300781 -3.449219 L 1.273438 -3.273438 L 1.226562 -3.074219 L 1.226562 -2.898438 L 1.175781 -2.726562 L 1.175781 -2.5 L 1.101562 -2.300781 L 1.074219 -1.898438 L 0.976562 -1.523438 L 0.925781 -1.125 L 0.875 -0.75 L 0.824219 -0.523438 L 0.75 -0.300781 L 0.824219 -0.0742188 L 1.050781 -0.0234375 L 2.375 -0.0234375 L 2.550781 0 L 3.199219 0 Z M 3.675781 0.0234375 "/></g></g></g></svg>