<svg xmlns="http://www.w3.org/2000/svg" xmlns:xlink="http://www.w3.org/1999/xlink" width="200" zoomAndPan="magnify" viewBox="0 0 150 74.999997" height="100" preserveAspectRatio="xMidYMid meet" version="1.0"><defs><g/><clipPath id="357037b58f"><path d="M 5 22.609375 L 27 22.609375 L 27 33 L 5 33 Z M 5 22.609375 " clip-rule="nonzero"/></clipPath><clipPath id="af3e7310f8"><path d="M 28 29 L 35.65625 29 L 35.65625 41 L 28 41 Z M 28 29 " clip-rule="nonzero"/></clipPath><clipPath id="5974c31fc5"><path d="M 11 47 L 21 47 L 21 52.609375 L 11 52.609375 Z M 11 47 " clip-rule="nonzero"/></clipPath></defs><rect x="-15" width="180" fill="#ffffff" y="-7.5" height="89.999996" fill-opacity="1"/><rect x="-15" width="180" fill="#fcf9f2" y="-7.5" height="89.999996" fill-opacity="1"/><path fill="#a47551" d="M 16.9375 36.3125 C 14.035156 36.183594 10.949219 35.441406 8.804688 33.371094 C 7.835938 32.40625 7.5 31.023438 8.300781 29.839844 C 8.445312 29.632812 8.59375 29.425781 8.761719 29.234375 C 8.929688 29.0625 9.097656 29.304688 9.125 29.464844 C 9.179688 29.707031 9.171875 29.996094 9.007812 30.191406 C 8.738281 30.542969 8.363281 30.910156 8.402344 31.382812 C 8.621094 32.113281 9.253906 32.636719 9.839844 33.085938 C 12.792969 35.140625 16.640625 35.554688 20.132812 35.078125 C 22.539062 34.707031 27.902344 33.011719 28.507812 30.382812 C 28.105469 29.320312 26.203125 28.800781 25.230469 28.355469 C 24.941406 28.195312 24.953125 27.640625 25.113281 27.390625 C 25.15625 27.328125 25.234375 27.257812 25.316406 27.292969 C 25.628906 27.421875 25.9375 27.550781 26.253906 27.675781 C 27.207031 28.082031 28.382812 28.527344 28.851562 29.523438 C 28.933594 29.695312 28.992188 29.878906 29.027344 30.066406 C 29.28125 32.40625 26.566406 33.992188 24.71875 34.800781 C 22.277344 35.863281 19.609375 36.472656 16.9375 36.3125 Z M 16.9375 36.3125 " fill-opacity="1" fill-rule="nonzero"/><g clip-path="url(#357037b58f)"><path fill="#a47551" d="M 26.53125 32.859375 C 26.34375 32.707031 26.339844 32.355469 26.226562 32.140625 C 26.09375 31.847656 25.851562 31.617188 25.609375 31.40625 C 24.910156 30.828125 24.054688 30.488281 23.210938 30.179688 C 22.367188 29.875 21.519531 29.578125 20.660156 29.304688 C 19.78125 28.976562 18.730469 28.828125 18.042969 28.136719 C 17.574219 27.605469 17.394531 26.886719 16.949219 26.339844 C 15.871094 25.148438 13.894531 24.160156 12.324219 23.875 C 10.503906 23.621094 8.875 23.6875 7.246094 24.621094 C 7.808594 24.867188 8.429688 24.925781 9.035156 24.957031 C 9.898438 25 10.765625 24.996094 11.632812 25 C 11.859375 25.027344 12.171875 24.925781 12.328125 25.136719 C 12.5 25.425781 12.476562 25.847656 12.265625 26.109375 C 12.101562 26.261719 11.867188 26.308594 11.65625 26.371094 C 10.242188 26.691406 8.738281 26.859375 7.496094 27.675781 C 6.941406 28 6.414062 28.433594 6.152344 29.039062 C 6.824219 29.234375 7.601562 28.542969 8.179688 28.257812 C 9.113281 27.738281 10.121094 27.328125 11.167969 27.101562 C 11.605469 27.042969 12.21875 26.851562 12.589844 27.164062 C 12.875 27.484375 12.84375 28.035156 12.589844 28.367188 C 12.441406 28.550781 12.25 28.722656 12.214844 28.972656 C 12.148438 29.257812 12.195312 29.566406 12.0625 29.832031 C 11.972656 30.058594 11.746094 30.164062 11.519531 30.195312 C 11.261719 30.25 11 30.269531 10.742188 30.285156 C 10.507812 30.3125 10.21875 30.265625 10.054688 30.460938 C 10.09375 30.59375 10.191406 30.699219 10.199219 30.84375 C 10.230469 31.070312 10.222656 31.367188 10.03125 31.523438 C 9.765625 31.65625 9.640625 31.164062 9.582031 30.988281 C 9.484375 30.664062 9.464844 30.3125 9.554688 29.984375 C 9.851562 28.890625 10.828125 29.363281 11.644531 29.078125 C 11.65625 28.945312 11.671875 28.808594 11.695312 28.675781 C 11.726562 28.472656 11.785156 28.269531 11.867188 28.078125 C 10.3125 28.246094 8.871094 28.9375 7.554688 29.746094 C 7.042969 30.035156 6.308594 30.398438 5.796875 29.933594 C 5.433594 29.546875 5.507812 28.929688 5.683594 28.472656 C 6.164062 27.203125 7.429688 26.464844 8.640625 26.007812 C 8.058594 25.949219 7.453125 25.875 6.941406 25.574219 C 6.566406 25.316406 6.421875 24.804688 6.496094 24.367188 C 6.601562 23.757812 7.234375 23.503906 7.734375 23.269531 C 8.8125 22.765625 10.003906 22.609375 11.183594 22.6875 C 12.859375 22.703125 14.4375 23.355469 15.832031 24.246094 C 16.367188 24.589844 16.886719 24.980469 17.277344 25.484375 C 17.800781 26.085938 17.921875 27.003906 18.617188 27.445312 C 18.945312 27.648438 19.3125 27.765625 19.675781 27.894531 C 20.988281 28.3125 22.292969 28.742188 23.585938 29.222656 C 24.964844 29.734375 26.546875 30.515625 26.855469 32.097656 C 26.933594 32.328125 26.875 32.996094 26.53125 32.859375 Z M 26.53125 32.859375 " fill-opacity="1" fill-rule="nonzero"/></g><path fill="#a47551" d="M 19.738281 32.710938 C 19.652344 32.683594 19.613281 32.597656 19.558594 32.53125 C 19.441406 32.394531 19.316406 32.261719 19.179688 32.144531 C 18.382812 31.515625 17.433594 31.128906 16.460938 30.875 C 16.019531 30.835938 16.015625 30.148438 16.199219 29.863281 C 16.246094 29.796875 16.316406 29.742188 16.402344 29.769531 C 16.574219 29.816406 16.75 29.867188 16.921875 29.921875 C 17.660156 30.117188 18.359375 30.449219 19 30.867188 C 19.359375 31.105469 20.039062 31.636719 20.046875 32.089844 C 20.0625 32.292969 20.019531 32.75 19.738281 32.710938 Z M 19.738281 32.710938 " fill-opacity="1" fill-rule="nonzero"/><path fill="#a47551" d="M 17.46875 33.382812 C 16.898438 33.09375 16.246094 33.035156 15.632812 32.882812 C 15.328125 32.726562 15.335938 32.035156 15.589844 31.839844 C 15.632812 31.8125 15.671875 31.808594 15.71875 31.816406 C 15.996094 31.878906 16.269531 31.9375 16.542969 32 C 16.839844 32.066406 17.652344 32.207031 17.730469 32.53125 C 17.824219 32.75 17.808594 33.425781 17.46875 33.382812 Z M 17.46875 33.382812 " fill-opacity="1" fill-rule="nonzero"/><path fill="#a47551" d="M 4.003906 27.132812 C 2.65625 26.964844 2.8125 24.890625 3.941406 24.5 C 4.035156 24.300781 4.164062 24.351562 4.339844 24.382812 C 4.453125 24.351562 4.582031 24.328125 4.648438 24.445312 C 5.472656 24.554688 5.71875 25.195312 5.519531 25.941406 C 5.351562 26.613281 4.742188 27.257812 4.003906 27.132812 Z M 4.332031 26.054688 C 4.597656 26.023438 4.8125 25.839844 4.957031 25.621094 C 4.761719 25.539062 4.550781 25.507812 4.347656 25.464844 C 4.074219 25.527344 3.785156 25.636719 3.625 25.878906 C 3.8125 26.050781 4.085938 26.089844 4.332031 26.054688 Z M 4.332031 26.054688 " fill-opacity="1" fill-rule="nonzero"/><path fill="#a47551" d="M 25.746094 28.582031 C 24.269531 28.132812 22.742188 27.863281 21.195312 27.90625 C 20.339844 27.9375 19.464844 27.882812 18.640625 28.160156 C 18.492188 28.207031 18.34375 28.316406 18.234375 28.136719 C 18.070312 27.890625 18.058594 27.324219 18.347656 27.171875 C 19.214844 26.820312 20.167969 26.859375 21.085938 26.828125 C 22.699219 26.777344 24.296875 27.050781 25.835938 27.519531 C 26.152344 27.636719 26.148438 28.625 25.746094 28.582031 Z M 25.746094 28.582031 " fill-opacity="1" fill-rule="nonzero"/><path fill="#a47551" d="M 16.835938 48.6875 C 10.585938 47.742188 7.109375 41.917969 7.234375 35.921875 C 7.230469 35.199219 7.238281 34.472656 7.296875 33.75 C 7.339844 33.144531 7.371094 32.507812 7.703125 31.980469 C 8.183594 31.082031 8.511719 32.253906 8.160156 32.660156 C 7.988281 32.84375 7.902344 33.089844 7.878906 33.335938 C 7.839844 33.742188 7.808594 34.152344 7.789062 34.558594 C 7.328125 40.863281 10.488281 46.671875 17.109375 47.65625 C 18.816406 47.921875 20.597656 47.875 22.25 47.347656 C 23.015625 47.101562 23.757812 46.78125 24.507812 46.492188 C 24.734375 46.449219 24.804688 46.765625 24.816406 46.9375 C 24.832031 47.152344 24.808594 47.445312 24.597656 47.554688 C 24.046875 47.769531 23.503906 47.992188 22.953125 48.199219 C 21.011719 48.945312 18.871094 49.058594 16.835938 48.6875 Z M 16.835938 48.6875 " fill-opacity="1" fill-rule="nonzero"/><path fill="#a47551" d="M 25.195312 46.75 C 25.003906 46.519531 25.011719 46.15625 25.128906 45.890625 C 25.222656 45.703125 25.476562 45.636719 25.640625 45.515625 C 27.695312 44.257812 29.054688 41.605469 29.625 39.320312 C 30.109375 36.933594 29.609375 34.488281 29.007812 32.167969 C 28.894531 31.710938 28.75 30.648438 28.984375 30.253906 C 29.117188 30.054688 29.304688 30.175781 29.359375 30.371094 C 29.417969 30.527344 29.417969 30.695312 29.40625 30.859375 C 29.398438 31.097656 29.410156 31.332031 29.460938 31.566406 C 30.308594 34.785156 30.910156 38.332031 29.574219 41.503906 C 28.757812 43.464844 27.613281 45.46875 25.742188 46.578125 C 25.582031 46.648438 25.339844 46.921875 25.195312 46.75 Z M 25.195312 46.75 " fill-opacity="1" fill-rule="nonzero"/><g clip-path="url(#af3e7310f8)"><path fill="#a47551" d="M 29.777344 40.617188 C 29.617188 40.382812 29.601562 39.796875 29.890625 39.652344 C 30.347656 39.5 30.808594 39.351562 31.238281 39.132812 C 32.554688 38.425781 33.859375 37.453125 34.5 36.066406 C 34.753906 35.472656 34.757812 34.796875 34.628906 34.171875 C 34.203125 32.300781 32.660156 30.246094 30.5625 30.34375 C 30.101562 30.347656 29.640625 30.425781 29.195312 30.550781 C 28.96875 30.589844 28.902344 30.277344 28.886719 30.109375 C 28.871094 29.929688 28.894531 29.738281 28.992188 29.585938 C 29.101562 29.425781 29.421875 29.429688 29.597656 29.371094 C 30.09375 29.277344 30.601562 29.234375 31.105469 29.289062 C 34.105469 29.679688 36 33.953125 34.960938 36.632812 C 34.253906 38.347656 32.664062 39.566406 31.023438 40.335938 C 30.683594 40.484375 30.332031 40.597656 29.980469 40.714844 C 29.898438 40.742188 29.820312 40.683594 29.777344 40.617188 Z M 29.777344 40.617188 " fill-opacity="1" fill-rule="nonzero"/></g><path fill="#a47551" d="M 30.234375 37.167969 C 30.035156 36.917969 30.042969 36.519531 30.199219 36.253906 C 30.222656 36.214844 30.257812 36.179688 30.300781 36.160156 C 30.414062 36.105469 30.523438 36.046875 30.628906 35.980469 C 31.136719 35.648438 31.585938 35.007812 31.394531 34.382812 C 31.242188 33.839844 30.667969 33.496094 30.117188 33.597656 C 30.023438 33.613281 29.933594 33.644531 29.839844 33.679688 C 29.617188 33.71875 29.546875 33.402344 29.53125 33.234375 C 29.519531 33.019531 29.539062 32.722656 29.753906 32.613281 C 30.113281 32.46875 30.527344 32.464844 30.882812 32.621094 C 32.46875 33.441406 32.242188 36.03125 30.867188 36.960938 C 30.738281 37.046875 30.574219 37.132812 30.441406 37.199219 C 30.375 37.246094 30.285156 37.226562 30.234375 37.167969 Z M 30.234375 37.167969 " fill-opacity="1" fill-rule="nonzero"/><path fill="#a47551" d="M 21.792969 39.550781 C 21.203125 39.445312 20.953125 38.765625 20.726562 38.28125 C 20.605469 37.9375 20.433594 37.609375 20.453125 37.242188 C 20.46875 37.070312 20.539062 36.761719 20.765625 36.796875 C 20.894531 36.84375 20.9375 37 20.972656 37.117188 C 21.03125 37.296875 21.089844 37.476562 21.164062 37.652344 C 21.285156 37.945312 21.726562 38.875 22.019531 38.253906 C 22.125 37.894531 22.136719 37.519531 22.160156 37.148438 C 22.210938 36.832031 22.054688 36.011719 22.449219 35.921875 C 22.675781 35.960938 22.714844 36.273438 22.71875 36.460938 C 22.714844 36.761719 22.707031 37.0625 22.691406 37.363281 C 22.640625 38.011719 22.609375 39.421875 21.792969 39.550781 Z M 21.792969 39.550781 " fill-opacity="1" fill-rule="nonzero"/><path fill="#a47551" d="M 24.367188 38.34375 C 23.746094 37.972656 23.515625 37.175781 23.445312 36.492188 C 23.378906 35.898438 23.875 35.53125 23.980469 36.320312 C 24.011719 36.679688 24.164062 37.066406 24.46875 37.285156 C 24.582031 37.207031 24.570312 36.730469 24.589844 36.582031 C 24.609375 36.226562 24.621094 35.871094 24.628906 35.515625 C 24.636719 34.804688 25.160156 34.804688 25.167969 35.515625 C 25.117188 36.089844 25.273438 38.527344 24.367188 38.34375 Z M 24.367188 38.34375 " fill-opacity="1" fill-rule="nonzero"/><path fill="#a47551" d="M 21.097656 43.410156 C 19.308594 43.089844 17.835938 41.664062 17.195312 39.996094 C 17.085938 39.6875 16.9375 39.363281 17 39.027344 C 17.015625 38.871094 17.136719 38.574219 17.339844 38.6875 C 17.472656 38.78125 17.492188 38.957031 17.535156 39.101562 C 18.492188 41.90625 21.539062 43.238281 24.207031 41.878906 C 25.875 41.070312 27.066406 39.441406 27.375 37.621094 C 27.421875 37.410156 27.421875 36.839844 27.761719 36.972656 C 28.160156 37.304688 27.796875 38.304688 27.703125 38.75 C 26.996094 41.59375 24.097656 43.972656 21.097656 43.410156 Z M 21.097656 43.410156 " fill-opacity="1" fill-rule="nonzero"/><path fill="#a47551" d="M 15.40625 41.4375 C 15.136719 40.992188 15.417969 40.480469 15.59375 40.050781 C 15.957031 39.167969 16.78125 38.542969 17.628906 38.160156 C 17.953125 38.230469 17.941406 38.847656 17.820312 39.082031 C 17.757812 39.238281 17.574219 39.269531 17.445312 39.359375 C 17.199219 39.507812 16.949219 39.648438 16.726562 39.832031 C 16.386719 40.113281 16.066406 40.515625 15.929688 40.921875 C 15.875 41.050781 15.824219 41.1875 15.78125 41.320312 C 15.734375 41.503906 15.535156 41.644531 15.40625 41.4375 Z M 15.40625 41.4375 " fill-opacity="1" fill-rule="nonzero"/><path fill="#a47551" d="M 28.566406 37.777344 C 28.097656 37.539062 27.578125 37.433594 27.054688 37.46875 C 26.691406 37.421875 26.691406 36.441406 27.054688 36.390625 C 27.449219 36.375 27.851562 36.40625 28.230469 36.539062 C 28.402344 36.597656 28.570312 36.671875 28.734375 36.753906 C 28.820312 36.816406 28.863281 36.921875 28.890625 37.019531 C 28.960938 37.230469 28.914062 37.925781 28.566406 37.777344 Z M 28.566406 37.777344 " fill-opacity="1" fill-rule="nonzero"/><path fill="#a47551" d="M 10.425781 40.414062 C 9.59375 39.199219 9.097656 38.007812 9.097656 36.511719 C 9.117188 36.246094 9.027344 35.457031 9.425781 35.480469 C 9.789062 35.6875 9.597656 36.289062 9.636719 36.636719 C 9.671875 37.414062 9.898438 38.175781 10.304688 38.839844 C 10.445312 39.078125 10.597656 39.308594 10.742188 39.542969 C 10.808594 39.648438 10.839844 39.769531 10.847656 39.890625 C 10.898438 40.125 10.71875 40.769531 10.425781 40.414062 Z M 10.425781 40.414062 " fill-opacity="1" fill-rule="nonzero"/><path fill="#a47551" d="M 11.75 42.210938 C 11.316406 42.089844 11.195312 40.851562 11.648438 40.824219 C 11.851562 40.535156 12.082031 40.945312 12.15625 41.132812 C 12.296875 41.429688 12.230469 42.347656 11.75 42.210938 Z M 11.75 42.210938 " fill-opacity="1" fill-rule="nonzero"/><g clip-path="url(#5974c31fc5)"><path fill="#a47551" d="M 16.464844 52.367188 C 15.097656 52.328125 12.8125 52.195312 11.714844 51.355469 C 11.351562 50.976562 11.375 50.148438 11.78125 49.804688 C 12.421875 49.414062 13.203125 49.347656 13.9375 49.277344 C 14.574219 49.242188 15.214844 49.273438 15.851562 49.3125 C 16.226562 49.335938 16.59375 49.421875 16.96875 49.421875 C 16.953125 49.152344 16.933594 48.878906 16.921875 48.609375 C 16.914062 48.417969 16.894531 48.222656 16.960938 48.039062 C 17.011719 47.855469 17.207031 47.71875 17.339844 47.921875 C 17.40625 48.023438 17.4375 48.148438 17.445312 48.269531 C 17.464844 48.667969 17.492188 49.066406 17.511719 49.460938 C 17.535156 49.722656 17.53125 49.996094 17.417969 50.238281 C 17.203125 50.679688 16.632812 50.445312 16.25 50.433594 C 14.964844 50.3125 13.625 50.242188 12.375 50.628906 C 13.398438 51.066406 14.535156 51.171875 15.636719 51.261719 C 16.882812 51.316406 18.28125 51.375 19.359375 50.644531 C 19.585938 50.492188 19.46875 50.261719 19.410156 50.050781 C 19.300781 49.71875 19.175781 49.386719 19.019531 49.070312 C 18.898438 48.832031 18.886719 48.21875 19.210938 48.152344 C 19.429688 48.132812 19.664062 48.957031 19.753906 49.148438 C 20.070312 49.960938 20.289062 51.132812 19.460938 51.71875 C 18.582031 52.28125 17.484375 52.378906 16.464844 52.367188 Z M 16.464844 52.367188 " fill-opacity="1" fill-rule="nonzero"/></g><path fill="#a47551" d="M 25.835938 50.773438 C 24.945312 50.695312 24.503906 49.863281 24.199219 49.125 C 24.011719 48.703125 23.816406 48.285156 23.589844 47.882812 C 23.464844 47.644531 23.453125 47.03125 23.777344 46.960938 C 23.96875 46.976562 24.050781 47.308594 24.144531 47.449219 C 24.46875 48.03125 24.660156 48.6875 25.039062 49.238281 C 25.886719 50.238281 27.519531 49.46875 28.484375 49.015625 C 29.863281 48.285156 31.367188 47.40625 32.03125 45.929688 C 31.261719 45.503906 29.847656 46.214844 29.105469 46.554688 C 28.554688 46.828125 28.015625 47.128906 27.527344 47.503906 C 27.371094 47.628906 27.292969 47.691406 27.171875 47.820312 C 27.113281 47.941406 26.976562 48.023438 26.859375 47.925781 C 26.558594 47.664062 26.375 47.292969 26.183594 46.945312 C 25.96875 46.53125 25.644531 46.058594 25.878906 45.582031 C 25.972656 45.378906 26.167969 45.375 26.261719 45.582031 C 26.46875 46.007812 26.671875 46.445312 26.960938 46.824219 C 27.734375 46.101562 28.695312 45.621094 29.65625 45.199219 C 30.414062 44.894531 31.878906 44.296875 32.441406 45.167969 C 32.703125 45.738281 32.585938 46.429688 32.289062 46.960938 C 31.5625 48.296875 30.25 49.179688 28.945312 49.890625 C 27.984375 50.375 26.941406 50.90625 25.835938 50.773438 Z M 25.835938 50.773438 " fill-opacity="1" fill-rule="nonzero"/><g fill="#30691c" fill-opacity="1"><g transform="translate(41.212427, 42.226913)"><g><path d="M 0.660156 0.015625 L 0.855469 0 L 0.960938 0.015625 L 1.378906 0.015625 L 1.53125 0 L 2.761719 0 L 3.0625 -0.015625 L 3.269531 0.015625 L 3.496094 0 L 3.765625 0.015625 L 4.097656 -0.03125 L 4.292969 -0.0585938 L 4.578125 -0.0585938 L 4.695312 -0.164062 L 4.757812 -0.40625 L 4.785156 -0.628906 L 4.800781 -0.71875 L 4.800781 -0.824219 L 4.847656 -0.929688 L 4.921875 -1.457031 L 4.964844 -1.574219 L 4.953125 -1.679688 L 4.980469 -1.785156 L 4.996094 -2.011719 L 4.90625 -2.054688 L 4.515625 -2.054688 L 4.1875 -2.039062 L 3.40625 -2.039062 L 3.269531 -2.054688 L 3.121094 -2.054688 L 3.046875 -2.128906 L 3.046875 -2.28125 L 3.074219 -2.429688 L 3.089844 -2.597656 L 3.121094 -2.699219 L 3.136719 -2.789062 L 3.152344 -2.894531 L 3.152344 -3.046875 L 3.179688 -3.179688 L 3.195312 -3.375 L 3.257812 -3.570312 L 3.269531 -3.78125 L 3.300781 -3.902344 L 3.300781 -4.007812 L 3.359375 -4.246094 L 3.375 -4.351562 L 3.390625 -4.472656 L 3.4375 -4.679688 L 3.449219 -4.90625 L 3.511719 -5.148438 L 3.527344 -5.25 L 3.570312 -5.476562 L 3.601562 -5.582031 L 3.601562 -5.792969 L 3.632812 -5.898438 L 3.675781 -6.210938 L 3.675781 -6.332031 L 3.707031 -6.4375 L 3.691406 -6.558594 L 3.75 -6.660156 L 3.796875 -6.855469 L 3.839844 -7.066406 L 3.871094 -7.171875 L 3.886719 -7.277344 L 3.917969 -7.398438 L 3.886719 -7.515625 L 3.945312 -7.621094 L 3.976562 -7.832031 L 4.035156 -8.042969 L 4.035156 -8.164062 L 4.082031 -8.371094 L 4.203125 -8.898438 L 4.230469 -9.046875 L 4.261719 -9.210938 L 4.304688 -9.527344 L 4.335938 -9.617188 L 4.335938 -9.722656 L 4.425781 -10.082031 L 4.425781 -10.1875 L 4.441406 -10.292969 L 4.394531 -10.472656 L 4.097656 -10.488281 L 3.511719 -10.488281 L 2.957031 -10.503906 L 2.597656 -10.503906 L 2.355469 -10.472656 L 2.3125 -10.382812 L 2.234375 -10.082031 L 2.207031 -9.992188 L 2.207031 -9.886719 L 2.191406 -9.707031 L 2.128906 -9.527344 L 2.085938 -9.289062 L 2.070312 -9.046875 L 2.011719 -8.941406 L 2.011719 -8.851562 L 1.996094 -8.746094 L 1.996094 -8.644531 L 1.9375 -8.550781 L 1.90625 -8.386719 L 1.890625 -8.191406 L 1.859375 -8.074219 L 1.890625 -7.96875 L 1.859375 -7.847656 L 1.800781 -7.636719 L 1.753906 -7.515625 L 1.769531 -7.398438 L 1.726562 -7.082031 L 1.695312 -6.902344 L 1.695312 -6.796875 L 1.621094 -6.601562 L 1.621094 -6.390625 L 1.605469 -6.273438 L 1.53125 -6.078125 L 1.5 -5.898438 L 1.46875 -5.703125 L 1.378906 -5.28125 L 1.378906 -5.207031 L 1.320312 -4.996094 L 1.261719 -4.546875 L 1.183594 -4.335938 L 1.183594 -4.230469 L 1.125 -4.019531 L 1.125 -3.929688 L 1.109375 -3.824219 L 1.09375 -3.734375 L 1.09375 -3.527344 L 1.066406 -3.4375 L 1.035156 -3.226562 L 1.019531 -3.136719 L 1.019531 -3.046875 L 0.976562 -2.941406 L 0.929688 -2.746094 L 0.945312 -2.65625 L 0.898438 -2.550781 L 0.871094 -2.460938 L 0.796875 -2.25 L 0.796875 -2.070312 L 0.765625 -1.9375 L 0.734375 -1.742188 L 0.71875 -1.652344 L 0.71875 -1.546875 L 0.660156 -1.351562 L 0.660156 -1.125 L 0.601562 -0.929688 L 0.585938 -0.839844 L 0.570312 -0.734375 L 0.523438 -0.585938 L 0.464844 -0.433594 L 0.449219 -0.34375 L 0.464844 -0.253906 L 0.480469 -0.148438 L 0.539062 -0.0585938 Z M 0.660156 0.015625 "/></g></g></g><g fill="#30691c" fill-opacity="1"><g transform="translate(46.49373, 42.226913)"><g><path d="M 1.214844 0.03125 L 1.335938 0.015625 L 1.753906 0.03125 L 1.84375 -0.03125 L 1.90625 -0.136719 L 1.949219 -0.210938 L 1.996094 -0.375 L 2.085938 -0.601562 L 2.234375 -0.886719 L 2.296875 -1.066406 L 2.339844 -1.171875 L 2.371094 -1.273438 L 2.476562 -1.46875 L 2.550781 -1.636719 L 2.957031 -1.636719 L 3.617188 -1.621094 L 3.855469 -1.589844 L 4.1875 -1.574219 L 4.203125 -1.457031 L 4.203125 -0.75 L 4.1875 -0.601562 L 4.203125 -0.449219 L 4.214844 -0.179688 L 4.246094 -0.03125 L 4.304688 0.015625 L 4.53125 0.015625 L 4.726562 0.03125 L 4.875 0.015625 L 4.980469 0 L 5.160156 0.015625 L 5.28125 0.015625 L 5.613281 0 L 5.820312 0 L 5.941406 0.015625 L 6.046875 0 C 6.105469 0 6.152344 0.015625 6.210938 0 C 6.285156 -0.046875 6.273438 -0.179688 6.257812 -0.238281 L 6.257812 -0.554688 L 6.242188 -0.886719 L 6.242188 -1.019531 L 6.226562 -1.140625 L 6.242188 -1.351562 L 6.242188 -1.574219 L 6.226562 -1.679688 L 6.210938 -1.875 L 6.210938 -1.964844 L 6.183594 -2.535156 L 6.195312 -2.640625 L 6.183594 -2.851562 L 6.195312 -3.074219 L 6.183594 -3.300781 L 6.183594 -3.40625 L 6.167969 -4.097656 L 6.167969 -4.546875 L 6.152344 -4.667969 L 6.136719 -4.847656 L 6.136719 -5.433594 L 6.105469 -5.597656 L 6.09375 -5.835938 L 6.09375 -5.925781 L 6.078125 -6.121094 L 6.09375 -6.210938 L 6.078125 -6.421875 L 6.078125 -6.722656 L 6.046875 -6.933594 L 6.046875 -7.261719 L 6.0625 -7.367188 L 6.046875 -7.59375 L 6.046875 -7.800781 L 6.015625 -8.101562 L 6 -8.296875 L 6 -8.507812 L 5.988281 -9.046875 L 5.988281 -9.316406 L 5.957031 -9.40625 L 5.957031 -9.738281 L 5.910156 -10.382812 L 5.808594 -10.457031 L 5.730469 -10.488281 L 5.492188 -10.488281 L 5.355469 -10.472656 L 5.25 -10.503906 L 5.117188 -10.503906 L 4.832031 -10.488281 L 4.589844 -10.488281 L 4.441406 -10.472656 L 4.15625 -10.488281 L 4.007812 -10.488281 L 3.902344 -10.472656 L 3.839844 -10.308594 L 3.796875 -10.21875 L 3.75 -10.113281 L 3.617188 -9.84375 L 3.511719 -9.648438 L 3.421875 -9.378906 L 3.390625 -9.304688 L 3.332031 -9.210938 L 3.242188 -9.046875 L 3.210938 -8.941406 L 3.179688 -8.851562 L 3.136719 -8.761719 L 3.105469 -8.65625 L 2.972656 -8.386719 L 2.925781 -8.28125 L 2.882812 -8.132812 L 2.789062 -7.996094 L 2.746094 -7.90625 L 2.671875 -7.710938 L 2.550781 -7.398438 L 2.492188 -7.308594 L 2.414062 -7.203125 L 2.371094 -6.992188 L 2.28125 -6.796875 L 2.25 -6.722656 L 2.207031 -6.527344 L 2.128906 -6.421875 L 2.085938 -6.226562 L 2.039062 -6.136719 L 1.949219 -5.972656 L 1.875 -5.714844 L 1.769531 -5.523438 L 1.726562 -5.402344 L 1.605469 -4.980469 L 1.558594 -4.890625 L 1.484375 -4.679688 L 1.441406 -4.589844 L 1.394531 -4.488281 L 1.378906 -4.394531 L 1.289062 -4.1875 L 1.261719 -4.082031 L 1.171875 -3.902344 L 1.09375 -3.78125 L 1.066406 -3.644531 L 1.035156 -3.542969 L 0.929688 -3.332031 L 0.886719 -3.226562 L 0.808594 -3.03125 L 0.765625 -2.941406 L 0.75 -2.835938 L 0.71875 -2.746094 L 0.644531 -2.566406 L 0.570312 -2.460938 L 0.539062 -2.371094 L 0.421875 -2.101562 L 0.359375 -1.90625 L 0.195312 -1.546875 L 0.121094 -1.367188 L 0.03125 -1.183594 L -0.121094 -0.734375 L -0.238281 -0.539062 L -0.332031 -0.359375 L -0.34375 -0.269531 L -0.375 -0.164062 L -0.34375 -0.046875 L -0.210938 -0.015625 L 0.886719 0 L 0.992188 0.015625 Z M 3.691406 -3.585938 L 3.554688 -3.601562 L 3.390625 -3.617188 L 3.269531 -3.617188 L 3.164062 -3.707031 L 3.210938 -3.8125 L 3.242188 -3.945312 L 3.269531 -4.050781 L 3.347656 -4.304688 L 3.40625 -4.410156 L 3.480469 -4.636719 L 3.496094 -4.742188 L 3.585938 -5.070312 L 3.632812 -5.207031 L 3.675781 -5.3125 L 3.722656 -5.445312 L 3.78125 -5.550781 L 3.796875 -5.65625 L 3.855469 -5.808594 L 3.917969 -5.925781 L 3.992188 -6.167969 L 4.035156 -6.316406 L 4.109375 -6.558594 L 4.171875 -6.753906 L 4.292969 -6.796875 L 4.304688 -6.453125 L 4.292969 -5.910156 L 4.277344 -5.339844 L 4.292969 -4.980469 L 4.261719 -4.863281 L 4.261719 -4.605469 L 4.246094 -4.5 L 4.246094 -4.109375 L 4.230469 -3.992188 L 4.246094 -3.871094 L 4.230469 -3.660156 L 4.140625 -3.585938 Z M 3.691406 -3.585938 "/></g></g></g><g fill="#30691c" fill-opacity="1"><g transform="translate(53.185388, 42.226913)"><g/></g></g><g fill="#30691c" fill-opacity="1"><g transform="translate(56.546218, 42.226913)"><g><path d="M 1.742188 0.03125 L 1.84375 0.015625 L 1.921875 0 L 2.371094 0 L 2.550781 -0.0742188 L 2.640625 -0.238281 L 2.65625 -0.390625 L 2.671875 -0.480469 L 2.714844 -0.585938 L 2.730469 -0.78125 L 2.730469 -0.976562 L 2.777344 -1.15625 L 2.789062 -1.246094 L 2.820312 -1.457031 L 2.851562 -1.695312 L 2.867188 -1.832031 L 2.882812 -1.949219 L 2.941406 -2.128906 L 2.941406 -2.21875 L 2.972656 -2.429688 L 2.984375 -2.640625 L 2.984375 -2.746094 L 3.015625 -2.925781 L 3.046875 -3.136719 L 3.074219 -3.242188 L 3.089844 -3.332031 L 3.121094 -3.527344 L 3.136719 -3.632812 L 3.136719 -3.917969 L 3.164062 -4.007812 L 3.179688 -4.109375 L 3.242188 -4.667969 L 3.300781 -4.90625 L 3.300781 -5.085938 L 3.375 -5.703125 L 3.4375 -5.703125 L 3.496094 -5.011719 L 3.511719 -4.921875 L 3.527344 -4.816406 L 3.554688 -4.589844 L 3.585938 -4.277344 L 3.675781 -3.644531 L 3.707031 -3.449219 L 3.75 -3.242188 L 3.78125 -3.152344 L 3.8125 -2.835938 L 3.839844 -2.582031 L 3.871094 -2.476562 L 3.886719 -2.371094 L 3.902344 -2.25 L 3.929688 -2.144531 L 3.945312 -2.027344 L 4.019531 -1.769531 L 4.035156 -1.664062 L 4.214844 -1.574219 L 4.351562 -1.558594 L 4.636719 -1.515625 L 4.964844 -1.546875 L 5.101562 -1.515625 L 5.191406 -1.515625 L 5.355469 -1.546875 L 5.433594 -1.695312 L 5.535156 -1.875 L 5.941406 -2.761719 L 6.273438 -3.375 L 6.46875 -3.824219 L 6.8125 -4.589844 L 7.261719 -5.476562 L 7.308594 -5.476562 L 7.246094 -5.117188 L 7.21875 -5.011719 L 7.203125 -4.921875 L 7.15625 -4.710938 L 7.113281 -4.441406 L 6.992188 -3.855469 L 6.960938 -3.75 L 6.960938 -3.660156 L 6.945312 -3.554688 L 6.902344 -3.390625 L 6.886719 -3.285156 L 6.871094 -3.195312 L 6.855469 -3.015625 L 6.8125 -2.910156 L 6.78125 -2.714844 L 6.78125 -2.503906 L 6.738281 -2.3125 L 6.675781 -2.128906 L 6.660156 -1.9375 L 6.601562 -1.742188 L 6.558594 -1.53125 L 6.527344 -1.304688 L 6.496094 -1.09375 L 6.46875 -0.976562 L 6.4375 -0.75 L 6.421875 -0.644531 L 6.375 -0.433594 L 6.363281 -0.34375 L 6.375 -0.238281 L 6.40625 -0.0742188 L 6.511719 0 L 6.617188 0 L 6.691406 0.015625 L 6.902344 0 L 7.5625 0 L 8.011719 0.015625 L 8.175781 0.015625 L 8.386719 -0.046875 L 8.433594 -0.179688 L 8.460938 -0.375 L 8.507812 -0.570312 L 8.550781 -0.78125 L 8.566406 -0.898438 L 8.613281 -1.09375 L 8.613281 -1.199219 L 8.628906 -1.304688 L 8.644531 -1.5 L 8.671875 -1.589844 L 8.6875 -1.695312 L 8.734375 -1.890625 L 8.746094 -2.011719 L 8.777344 -2.21875 L 8.808594 -2.3125 L 8.835938 -2.519531 L 8.851562 -2.640625 L 8.867188 -2.746094 L 8.914062 -2.972656 L 8.925781 -3.074219 L 9.003906 -3.300781 L 9.03125 -3.496094 L 9.03125 -3.585938 L 9.078125 -3.796875 L 9.109375 -4.019531 L 9.0625 -4.140625 L 9.136719 -4.246094 L 9.183594 -4.441406 L 9.199219 -4.53125 L 9.210938 -4.636719 L 9.226562 -4.726562 L 9.210938 -4.832031 L 9.210938 -4.9375 L 9.273438 -5.042969 L 9.289062 -5.265625 L 9.304688 -5.433594 L 9.347656 -5.613281 L 9.363281 -5.714844 L 9.378906 -5.808594 L 9.421875 -5.988281 L 9.453125 -6.195312 L 9.496094 -6.390625 L 9.527344 -6.480469 L 9.542969 -6.585938 L 9.542969 -6.675781 L 9.558594 -6.8125 L 9.617188 -6.933594 L 9.632812 -7.171875 L 9.664062 -7.382812 L 9.679688 -7.472656 L 9.753906 -7.667969 L 9.796875 -7.757812 L 9.796875 -8.011719 L 9.859375 -8.117188 L 9.84375 -8.207031 L 9.859375 -8.386719 L 9.886719 -8.476562 L 9.933594 -8.6875 L 9.933594 -8.808594 L 10.007812 -9.003906 L 10.023438 -9.109375 L 10.054688 -9.199219 L 10.054688 -9.40625 L 10.066406 -9.453125 L 10.082031 -9.558594 L 10.097656 -9.648438 L 10.113281 -9.753906 L 10.128906 -9.8125 L 10.144531 -10.023438 L 10.171875 -10.113281 L 10.21875 -10.308594 L 10.1875 -10.414062 L 10.054688 -10.503906 L 9.753906 -10.488281 L 9.242188 -10.519531 L 9.003906 -10.503906 L 8.644531 -10.519531 L 8.28125 -10.488281 L 8.207031 -10.339844 L 8.101562 -10.1875 L 8.027344 -10.007812 L 7.96875 -9.917969 L 7.953125 -9.828125 L 7.921875 -9.769531 L 7.878906 -9.691406 L 7.816406 -9.601562 L 7.726562 -9.421875 L 7.621094 -9.257812 L 7.503906 -9.046875 L 7.414062 -8.851562 L 7.203125 -8.433594 L 7.140625 -8.34375 L 6.84375 -7.742188 L 6.691406 -7.515625 L 6.675781 -7.425781 L 6.617188 -7.335938 L 6.480469 -7.140625 L 6.421875 -6.960938 L 6.332031 -6.871094 L 6.226562 -6.675781 L 6.167969 -6.527344 L 6.078125 -6.390625 L 5.972656 -6.167969 L 5.972656 -6.078125 L 5.867188 -5.941406 L 5.777344 -5.792969 L 5.671875 -5.582031 L 5.625 -5.476562 L 5.507812 -5.238281 L 5.445312 -5.148438 L 5.402344 -5.070312 L 5.207031 -4.695312 L 5.160156 -4.695312 L 5.101562 -4.980469 L 5.070312 -5.175781 L 5.042969 -5.265625 L 5.042969 -5.371094 L 5.027344 -5.476562 L 5.027344 -5.566406 L 4.964844 -5.777344 L 4.90625 -6.285156 L 4.863281 -6.496094 L 4.863281 -6.601562 L 4.816406 -6.8125 L 4.800781 -7.007812 L 4.800781 -7.097656 L 4.785156 -7.292969 L 4.742188 -7.382812 L 4.726562 -7.488281 L 4.726562 -7.59375 L 4.695312 -7.800781 L 4.679688 -7.890625 L 4.621094 -8.207031 L 4.621094 -8.328125 L 4.589844 -8.433594 L 4.578125 -8.644531 L 4.546875 -8.835938 L 4.5 -9.078125 L 4.488281 -9.332031 L 4.441406 -9.542969 L 4.425781 -9.632812 L 4.394531 -9.84375 L 4.367188 -9.949219 L 4.320312 -10.367188 L 4.230469 -10.503906 L 4.035156 -10.503906 L 3.734375 -10.519531 L 3.464844 -10.503906 L 3.210938 -10.503906 L 2.957031 -10.519531 L 2.671875 -10.503906 L 2.460938 -10.503906 L 2.3125 -10.488281 L 2.21875 -10.308594 L 2.21875 -10.203125 L 2.160156 -10.066406 L 2.144531 -9.902344 L 2.117188 -9.796875 L 2.128906 -9.679688 L 2.085938 -9.484375 L 2.070312 -9.378906 L 2.027344 -9.210938 L 1.996094 -9.03125 L 1.980469 -8.835938 L 1.980469 -8.746094 L 1.890625 -8.296875 L 1.875 -8.207031 L 1.875 -8.101562 L 1.84375 -8.011719 L 1.816406 -7.90625 L 1.769531 -7.710938 L 1.753906 -7.59375 L 1.726562 -7.382812 L 1.710938 -7.292969 L 1.679688 -7.082031 L 1.652344 -6.992188 L 1.621094 -6.796875 L 1.605469 -6.601562 L 1.558594 -6.421875 L 1.515625 -6.316406 L 1.5 -6.226562 L 1.46875 -6.03125 L 1.457031 -5.925781 L 1.425781 -5.835938 L 1.425781 -5.730469 L 1.410156 -5.550781 L 1.378906 -5.371094 L 1.351562 -5.25 L 1.304688 -5.117188 L 1.320312 -5.027344 L 1.273438 -4.847656 L 1.261719 -4.757812 L 1.261719 -4.621094 L 1.183594 -4.320312 L 1.15625 -4.109375 L 1.15625 -3.992188 L 1.09375 -3.765625 L 1.082031 -3.527344 L 1.050781 -3.300781 L 1.019531 -3.210938 L 1.003906 -3 L 0.992188 -2.910156 L 0.976562 -2.789062 L 0.945312 -2.671875 L 0.898438 -2.460938 L 0.886719 -2.25 L 0.871094 -2.128906 L 0.824219 -2.027344 L 0.824219 -1.921875 L 0.808594 -1.800781 L 0.765625 -1.589844 L 0.734375 -1.484375 L 0.707031 -1.304688 L 0.660156 -1.140625 L 0.644531 -0.945312 L 0.628906 -0.839844 L 0.585938 -0.707031 L 0.613281 -0.570312 L 0.601562 -0.480469 L 0.585938 -0.253906 L 0.585938 -0.148438 L 0.660156 -0.0585938 L 0.71875 -0.015625 L 0.929688 0 L 1.335938 0 Z M 1.742188 0.03125 "/></g></g></g><g fill="#30691c" fill-opacity="1"><g transform="translate(66.238617, 42.226913)"><g><path d="M 1.214844 0.03125 L 1.335938 0.015625 L 1.753906 0.03125 L 1.84375 -0.03125 L 1.90625 -0.136719 L 1.949219 -0.210938 L 1.996094 -0.375 L 2.085938 -0.601562 L 2.234375 -0.886719 L 2.296875 -1.066406 L 2.339844 -1.171875 L 2.371094 -1.273438 L 2.476562 -1.46875 L 2.550781 -1.636719 L 2.957031 -1.636719 L 3.617188 -1.621094 L 3.855469 -1.589844 L 4.1875 -1.574219 L 4.203125 -1.457031 L 4.203125 -0.75 L 4.1875 -0.601562 L 4.203125 -0.449219 L 4.214844 -0.179688 L 4.246094 -0.03125 L 4.304688 0.015625 L 4.53125 0.015625 L 4.726562 0.03125 L 4.875 0.015625 L 4.980469 0 L 5.160156 0.015625 L 5.28125 0.015625 L 5.613281 0 L 5.820312 0 L 5.941406 0.015625 L 6.046875 0 C 6.105469 0 6.152344 0.015625 6.210938 0 C 6.285156 -0.046875 6.273438 -0.179688 6.257812 -0.238281 L 6.257812 -0.554688 L 6.242188 -0.886719 L 6.242188 -1.019531 L 6.226562 -1.140625 L 6.242188 -1.351562 L 6.242188 -1.574219 L 6.226562 -1.679688 L 6.210938 -1.875 L 6.210938 -1.964844 L 6.183594 -2.535156 L 6.195312 -2.640625 L 6.183594 -2.851562 L 6.195312 -3.074219 L 6.183594 -3.300781 L 6.183594 -3.40625 L 6.167969 -4.097656 L 6.167969 -4.546875 L 6.152344 -4.667969 L 6.136719 -4.847656 L 6.136719 -5.433594 L 6.105469 -5.597656 L 6.09375 -5.835938 L 6.09375 -5.925781 L 6.078125 -6.121094 L 6.09375 -6.210938 L 6.078125 -6.421875 L 6.078125 -6.722656 L 6.046875 -6.933594 L 6.046875 -7.261719 L 6.0625 -7.367188 L 6.046875 -7.59375 L 6.046875 -7.800781 L 6.015625 -8.101562 L 6 -8.296875 L 6 -8.507812 L 5.988281 -9.046875 L 5.988281 -9.316406 L 5.957031 -9.40625 L 5.957031 -9.738281 L 5.910156 -10.382812 L 5.808594 -10.457031 L 5.730469 -10.488281 L 5.492188 -10.488281 L 5.355469 -10.472656 L 5.25 -10.503906 L 5.117188 -10.503906 L 4.832031 -10.488281 L 4.589844 -10.488281 L 4.441406 -10.472656 L 4.15625 -10.488281 L 4.007812 -10.488281 L 3.902344 -10.472656 L 3.839844 -10.308594 L 3.796875 -10.21875 L 3.75 -10.113281 L 3.617188 -9.84375 L 3.511719 -9.648438 L 3.421875 -9.378906 L 3.390625 -9.304688 L 3.332031 -9.210938 L 3.242188 -9.046875 L 3.210938 -8.941406 L 3.179688 -8.851562 L 3.136719 -8.761719 L 3.105469 -8.65625 L 2.972656 -8.386719 L 2.925781 -8.28125 L 2.882812 -8.132812 L 2.789062 -7.996094 L 2.746094 -7.90625 L 2.671875 -7.710938 L 2.550781 -7.398438 L 2.492188 -7.308594 L 2.414062 -7.203125 L 2.371094 -6.992188 L 2.28125 -6.796875 L 2.25 -6.722656 L 2.207031 -6.527344 L 2.128906 -6.421875 L 2.085938 -6.226562 L 2.039062 -6.136719 L 1.949219 -5.972656 L 1.875 -5.714844 L 1.769531 -5.523438 L 1.726562 -5.402344 L 1.605469 -4.980469 L 1.558594 -4.890625 L 1.484375 -4.679688 L 1.441406 -4.589844 L 1.394531 -4.488281 L 1.378906 -4.394531 L 1.289062 -4.1875 L 1.261719 -4.082031 L 1.171875 -3.902344 L 1.09375 -3.78125 L 1.066406 -3.644531 L 1.035156 -3.542969 L 0.929688 -3.332031 L 0.886719 -3.226562 L 0.808594 -3.03125 L 0.765625 -2.941406 L 0.75 -2.835938 L 0.71875 -2.746094 L 0.644531 -2.566406 L 0.570312 -2.460938 L 0.539062 -2.371094 L 0.421875 -2.101562 L 0.359375 -1.90625 L 0.195312 -1.546875 L 0.121094 -1.367188 L 0.03125 -1.183594 L -0.121094 -0.734375 L -0.238281 -0.539062 L -0.332031 -0.359375 L -0.34375 -0.269531 L -0.375 -0.164062 L -0.34375 -0.046875 L -0.210938 -0.015625 L 0.886719 0 L 0.992188 0.015625 Z M 3.691406 -3.585938 L 3.554688 -3.601562 L 3.390625 -3.617188 L 3.269531 -3.617188 L 3.164062 -3.707031 L 3.210938 -3.8125 L 3.242188 -3.945312 L 3.269531 -4.050781 L 3.347656 -4.304688 L 3.40625 -4.410156 L 3.480469 -4.636719 L 3.496094 -4.742188 L 3.585938 -5.070312 L 3.632812 -5.207031 L 3.675781 -5.3125 L 3.722656 -5.445312 L 3.78125 -5.550781 L 3.796875 -5.65625 L 3.855469 -5.808594 L 3.917969 -5.925781 L 3.992188 -6.167969 L 4.035156 -6.316406 L 4.109375 -6.558594 L 4.171875 -6.753906 L 4.292969 -6.796875 L 4.304688 -6.453125 L 4.292969 -5.910156 L 4.277344 -5.339844 L 4.292969 -4.980469 L 4.261719 -4.863281 L 4.261719 -4.605469 L 4.246094 -4.5 L 4.246094 -4.109375 L 4.230469 -3.992188 L 4.246094 -3.871094 L 4.230469 -3.660156 L 4.140625 -3.585938 Z M 3.691406 -3.585938 "/></g></g></g><g fill="#30691c" fill-opacity="1"><g transform="translate(72.93028, 42.226913)"><g><path d="M 3.285156 0.179688 L 3.4375 0.148438 L 3.632812 0.136719 L 3.855469 0.136719 L 4.050781 0.0898438 L 4.230469 0.0585938 L 4.410156 0.015625 L 4.800781 -0.0742188 L 4.90625 -0.121094 L 5.148438 -0.269531 L 5.371094 -0.464844 L 5.597656 -0.734375 L 5.625 -0.824219 L 5.671875 -0.914062 L 5.746094 -1.003906 L 5.808594 -1.09375 L 5.851562 -1.199219 L 5.925781 -1.378906 L 6.015625 -1.621094 L 6.0625 -1.710938 L 6.09375 -1.816406 L 6.105469 -1.921875 L 6.152344 -2.101562 L 6.242188 -2.476562 L 6.273438 -2.566406 L 6.316406 -2.882812 L 6.332031 -2.941406 L 6.347656 -3.046875 L 6.375 -3.121094 L 6.390625 -3.285156 L 6.421875 -3.480469 L 6.421875 -3.585938 L 6.453125 -3.675781 L 6.453125 -3.839844 L 6.390625 -3.945312 L 6.285156 -4.050781 L 6.105469 -4.066406 L 5.371094 -4.109375 L 5.054688 -4.109375 L 4.667969 -4.125 L 4.546875 -4.109375 L 4.441406 -3.992188 L 4.410156 -3.839844 L 4.335938 -3.644531 L 4.320312 -3.542969 L 4.292969 -3.40625 L 4.246094 -3.179688 L 4.203125 -3 L 4.1875 -2.925781 L 4.171875 -2.835938 L 4.109375 -2.640625 L 4.035156 -2.429688 L 3.917969 -2.160156 L 3.855469 -2.085938 L 3.644531 -1.949219 L 3.421875 -1.949219 L 3.179688 -1.921875 L 2.957031 -1.996094 L 2.835938 -2.101562 L 2.777344 -2.324219 L 2.777344 -2.429688 L 2.761719 -2.519531 L 2.761719 -2.671875 L 2.777344 -2.882812 L 2.820312 -3.089844 L 2.820312 -3.210938 L 2.867188 -3.527344 L 2.851562 -3.632812 L 2.882812 -3.734375 L 2.894531 -3.839844 L 2.894531 -3.960938 L 2.910156 -4.066406 L 2.957031 -4.171875 L 2.957031 -4.488281 L 3 -4.710938 L 3.03125 -4.832031 L 3.0625 -5.027344 L 3.074219 -5.132812 L 3.136719 -5.371094 L 3.152344 -5.492188 L 3.269531 -6.09375 L 3.347656 -6.316406 L 3.375 -6.527344 L 3.40625 -6.632812 L 3.421875 -6.722656 L 3.4375 -6.828125 L 3.480469 -6.960938 L 3.527344 -7.140625 L 3.570312 -7.367188 L 3.632812 -7.546875 L 3.632812 -7.636719 L 3.722656 -7.890625 L 3.796875 -8.085938 L 3.855469 -8.34375 L 3.902344 -8.449219 L 3.945312 -8.539062 L 4.082031 -8.703125 L 4.246094 -8.761719 L 4.425781 -8.792969 L 4.589844 -8.792969 L 4.800781 -8.734375 L 4.964844 -8.644531 L 5.054688 -8.371094 L 5.054688 -8.148438 L 5.027344 -7.9375 L 5.011719 -7.742188 L 4.921875 -7.414062 L 4.890625 -7.203125 L 4.832031 -6.933594 L 4.800781 -6.828125 L 4.800781 -6.617188 L 4.90625 -6.453125 L 5.339844 -6.390625 L 6.285156 -6.375 L 6.496094 -6.390625 L 6.675781 -6.40625 L 6.738281 -6.46875 L 6.8125 -6.855469 L 6.84375 -6.976562 L 6.933594 -7.5625 L 6.960938 -7.800781 L 6.992188 -8.027344 L 7.023438 -8.148438 L 7.039062 -8.296875 L 7.039062 -8.628906 L 7.023438 -8.851562 L 7.007812 -8.988281 L 6.992188 -9.183594 L 6.976562 -9.363281 L 6.945312 -9.527344 L 6.871094 -9.679688 L 6.84375 -9.78125 L 6.796875 -9.859375 L 6.722656 -9.992188 L 6.691406 -10.066406 L 6.527344 -10.21875 L 6.332031 -10.367188 L 6.121094 -10.441406 L 5.957031 -10.472656 L 5.898438 -10.519531 L 5.792969 -10.535156 L 5.6875 -10.5625 L 5.597656 -10.578125 L 5.386719 -10.609375 L 5.238281 -10.609375 L 5.101562 -10.652344 L 4.726562 -10.699219 L 4.488281 -10.699219 L 4.203125 -10.683594 L 3.976562 -10.683594 L 3.871094 -10.667969 L 3.675781 -10.625 L 3.421875 -10.578125 L 3.105469 -10.441406 L 3.015625 -10.398438 L 2.820312 -10.308594 L 2.730469 -10.234375 L 2.519531 -10.023438 L 2.402344 -9.871094 L 2.296875 -9.722656 L 2.191406 -9.632812 L 2.128906 -9.46875 L 2.039062 -9.257812 L 1.964844 -9.078125 L 1.875 -8.824219 L 1.816406 -8.613281 L 1.726562 -8.3125 L 1.621094 -8.011719 L 1.574219 -7.816406 L 1.53125 -7.710938 L 1.515625 -7.605469 L 1.5 -7.515625 L 1.46875 -7.414062 L 1.457031 -7.308594 L 1.410156 -7.21875 L 1.394531 -7.066406 L 1.367188 -6.902344 L 1.335938 -6.796875 L 1.261719 -6.496094 L 1.261719 -6.285156 L 1.214844 -6.195312 L 1.214844 -6.105469 L 1.199219 -5.925781 L 1.15625 -5.777344 L 1.125 -5.613281 L 1.082031 -5.445312 L 1.082031 -5.386719 L 1.066406 -5.339844 L 1.066406 -5.132812 L 1.003906 -5.042969 L 0.960938 -4.769531 L 0.976562 -4.695312 L 0.929688 -4.53125 L 0.898438 -4.410156 L 0.914062 -4.277344 L 0.855469 -4.066406 L 0.824219 -3.75 L 0.808594 -3.660156 L 0.808594 -3.554688 L 0.78125 -3.347656 L 0.765625 -3.136719 L 0.75 -3.015625 L 0.734375 -2.699219 L 0.734375 -2.3125 L 0.71875 -2.207031 L 0.71875 -2.070312 L 0.734375 -1.949219 L 0.734375 -1.664062 L 0.765625 -1.558594 L 0.796875 -1.367188 L 0.824219 -1.273438 L 0.871094 -1.082031 L 1.003906 -0.886719 L 1.109375 -0.675781 L 1.183594 -0.601562 L 1.246094 -0.523438 L 1.441406 -0.375 L 1.53125 -0.316406 L 1.605469 -0.253906 L 1.753906 -0.164062 L 1.84375 -0.0898438 L 2.027344 -0.03125 L 2.21875 0.046875 L 2.3125 0.0585938 L 2.414062 0.0898438 L 2.566406 0.105469 L 2.65625 0.121094 L 2.777344 0.136719 L 2.941406 0.148438 L 3.046875 0.164062 L 3.152344 0.164062 Z M 3.285156 0.179688 "/></g></g></g><g fill="#30691c" fill-opacity="1"><g transform="translate(79.471897, 42.226913)"><g><path d="M 5.101562 0.03125 L 5.222656 0.015625 L 5.523438 0.015625 L 5.714844 0 L 5.808594 -0.015625 L 6.03125 -0.015625 L 6.210938 -0.0585938 L 6.273438 -0.148438 L 6.300781 -0.253906 L 6.300781 -0.375 L 6.332031 -0.480469 L 6.347656 -0.601562 L 6.390625 -0.675781 L 6.421875 -0.855469 L 6.4375 -1.019531 L 6.46875 -1.125 L 6.496094 -1.320312 L 6.511719 -1.425781 L 6.558594 -1.636719 L 6.570312 -1.875 L 6.585938 -2.085938 L 6.617188 -2.175781 L 6.660156 -2.339844 L 6.707031 -2.550781 L 6.722656 -2.65625 L 6.722656 -2.777344 L 6.765625 -2.984375 L 6.78125 -3.089844 L 6.8125 -3.179688 L 6.84375 -3.285156 L 6.828125 -3.375 L 6.917969 -3.691406 L 6.902344 -3.78125 L 6.933594 -3.886719 L 6.976562 -4.097656 L 7.007812 -4.261719 L 7.007812 -4.351562 L 7.066406 -4.621094 L 7.082031 -4.726562 L 7.15625 -4.921875 L 7.171875 -5.027344 L 7.171875 -5.222656 L 7.1875 -5.328125 L 7.230469 -5.417969 L 7.203125 -5.523438 L 7.203125 -5.640625 L 7.261719 -5.730469 L 7.277344 -5.835938 L 7.320312 -6.046875 L 7.335938 -6.136719 L 7.351562 -6.363281 L 7.425781 -6.570312 L 7.441406 -6.796875 L 7.472656 -7.039062 L 7.503906 -7.230469 L 7.515625 -7.320312 L 7.59375 -7.503906 L 7.605469 -7.59375 L 7.636719 -7.789062 L 7.652344 -7.90625 L 7.683594 -8.011719 L 7.699219 -8.117188 L 7.742188 -8.3125 L 7.757812 -8.417969 L 7.789062 -8.613281 L 7.789062 -8.71875 L 7.800781 -8.914062 L 7.832031 -9.03125 L 7.863281 -9.136719 L 7.878906 -9.242188 L 7.878906 -9.363281 L 7.890625 -9.574219 L 7.953125 -9.753906 L 7.953125 -9.859375 L 7.96875 -9.949219 L 7.953125 -10.007812 L 8.011719 -10.097656 L 7.996094 -10.203125 L 8.011719 -10.292969 L 7.90625 -10.429688 L 7.800781 -10.472656 L 7.5625 -10.503906 L 7.140625 -10.503906 L 6.84375 -10.519531 L 6.300781 -10.519531 L 6.167969 -10.503906 L 6.078125 -10.488281 L 5.957031 -10.351562 L 5.941406 -10.261719 L 5.957031 -10.15625 L 5.925781 -10.054688 L 5.867188 -9.917969 L 5.851562 -9.828125 L 5.820312 -9.632812 L 5.792969 -9.542969 L 5.746094 -9.347656 L 5.746094 -9.226562 L 5.6875 -9.019531 L 5.671875 -8.914062 L 5.6875 -8.792969 L 5.6875 -8.613281 L 5.625 -8.476562 L 5.613281 -8.28125 L 5.566406 -8.085938 L 5.566406 -7.984375 L 5.535156 -7.890625 L 5.523438 -7.789062 L 5.507812 -7.667969 L 5.492188 -7.5625 L 5.476562 -7.472656 L 5.402344 -7.277344 L 5.433594 -7.1875 L 5.355469 -6.960938 L 5.339844 -6.855469 L 5.339844 -6.753906 L 5.28125 -6.617188 L 5.25 -6.453125 L 5.238281 -6.375 L 4.921875 -6.390625 L 4.800781 -6.375 L 4.621094 -6.390625 L 4.5 -6.375 L 4.066406 -6.390625 L 3.945312 -6.390625 L 3.839844 -6.40625 L 3.871094 -6.527344 L 3.886719 -6.617188 L 3.917969 -6.738281 L 3.902344 -6.828125 L 3.929688 -6.933594 L 3.976562 -7.128906 L 3.960938 -7.230469 L 4.007812 -7.320312 L 4.019531 -7.425781 L 4.050781 -7.546875 L 4.082031 -7.621094 L 4.082031 -7.710938 L 4.097656 -7.890625 L 4.125 -7.96875 L 4.140625 -8.164062 L 4.171875 -8.28125 L 4.203125 -8.386719 L 4.203125 -8.628906 L 4.246094 -8.734375 L 4.261719 -8.914062 L 4.292969 -9.121094 L 4.351562 -9.40625 L 4.367188 -9.542969 L 4.410156 -9.679688 L 4.425781 -9.886719 L 4.441406 -9.976562 L 4.488281 -10.15625 L 4.472656 -10.261719 L 4.472656 -10.351562 L 4.441406 -10.488281 L 4.292969 -10.519531 L 4.109375 -10.546875 L 3.960938 -10.503906 L 3.632812 -10.503906 L 3.421875 -10.519531 L 2.804688 -10.503906 L 2.429688 -10.503906 L 2.296875 -10.429688 L 2.28125 -10.261719 L 2.265625 -10.082031 L 2.21875 -9.886719 L 2.191406 -9.78125 L 2.207031 -9.664062 L 2.160156 -9.558594 L 2.144531 -9.453125 L 2.117188 -9.347656 L 2.128906 -9.136719 L 2.027344 -8.941406 L 2.027344 -8.628906 L 1.980469 -8.433594 L 1.964844 -8.34375 L 1.949219 -8.222656 L 1.890625 -8.101562 L 1.890625 -7.890625 L 1.875 -7.816406 L 1.832031 -7.503906 L 1.800781 -7.382812 L 1.769531 -7.1875 L 1.710938 -6.871094 L 1.695312 -6.660156 L 1.679688 -6.558594 L 1.589844 -6.347656 L 1.574219 -6.136719 L 1.546875 -5.925781 L 1.53125 -5.835938 L 1.457031 -5.402344 L 1.394531 -5.191406 L 1.394531 -5.070312 L 1.351562 -4.953125 L 1.304688 -4.847656 L 1.273438 -4.621094 L 1.273438 -4.515625 L 1.246094 -4.335938 L 1.199219 -4.1875 L 1.183594 -3.992188 L 1.125 -3.78125 L 1.140625 -3.675781 L 1.109375 -3.554688 L 1.09375 -3.464844 L 1.066406 -3.375 L 0.992188 -2.851562 L 0.960938 -2.730469 L 0.914062 -2.519531 L 0.914062 -2.402344 L 0.898438 -2.296875 L 0.839844 -2.160156 L 0.78125 -2.054688 L 0.796875 -1.84375 L 0.734375 -1.636719 L 0.75 -1.515625 L 0.71875 -1.410156 L 0.628906 -1.246094 L 0.660156 -1.140625 L 0.628906 -1.050781 L 0.628906 -0.945312 L 0.601562 -0.808594 L 0.585938 -0.660156 L 0.511719 -0.464844 L 0.449219 -0.332031 L 0.449219 -0.210938 L 0.511719 -0.046875 L 0.808594 -0.015625 L 1.289062 -0.015625 L 1.46875 0.015625 L 1.574219 -0.015625 L 1.679688 -0.03125 L 1.785156 0.015625 L 1.90625 0.015625 L 2.128906 -0.015625 L 2.3125 -0.03125 L 2.445312 -0.046875 L 2.566406 -0.105469 L 2.640625 -0.253906 L 2.671875 -0.480469 L 2.6875 -0.585938 L 2.714844 -0.707031 L 2.746094 -0.914062 L 2.746094 -1.019531 L 2.789062 -1.230469 L 2.804688 -1.351562 L 2.894531 -1.769531 L 2.925781 -1.996094 L 2.984375 -2.191406 L 3 -2.265625 L 3.074219 -2.445312 L 3.0625 -2.535156 L 3.152344 -2.867188 L 3.226562 -3.210938 L 3.257812 -3.316406 L 3.257812 -3.570312 L 3.316406 -3.675781 L 3.347656 -3.871094 L 3.40625 -4.082031 L 3.421875 -4.203125 L 3.4375 -4.277344 L 3.691406 -4.261719 L 3.917969 -4.214844 L 4.394531 -4.261719 L 4.53125 -4.230469 L 4.636719 -4.230469 L 4.769531 -4.246094 L 4.742188 -4.066406 L 4.742188 -3.960938 L 4.710938 -3.75 L 4.679688 -3.644531 L 4.636719 -3.4375 L 4.636719 -3.257812 L 4.605469 -3.105469 L 4.546875 -2.941406 L 4.457031 -2.492188 L 4.425781 -2.207031 L 4.382812 -1.980469 L 4.367188 -1.769531 L 4.335938 -1.695312 L 4.320312 -1.5 L 4.304688 -1.394531 L 4.304688 -1.289062 L 4.292969 -1.183594 L 4.230469 -0.871094 L 4.230469 -0.660156 L 4.171875 -0.554688 L 4.140625 -0.421875 L 4.125 -0.285156 L 4.109375 -0.164062 L 4.203125 -0.03125 L 4.304688 -0.015625 L 4.410156 -0.015625 L 4.578125 0 L 4.980469 0 Z M 5.101562 0.03125 "/></g></g></g><g fill="#30691c" fill-opacity="1"><g transform="translate(87.018764, 42.226913)"><g><path d="M 2.070312 0.03125 L 2.460938 0.03125 L 2.625 -0.015625 L 2.671875 -0.148438 L 2.6875 -0.269531 L 2.730469 -0.464844 L 2.761719 -0.675781 L 2.804688 -0.871094 L 2.867188 -1.230469 L 2.910156 -1.394531 L 2.910156 -1.5 L 2.941406 -1.695312 L 2.972656 -1.90625 L 3.015625 -2.117188 L 3.015625 -2.234375 L 3.074219 -2.429688 L 3.089844 -2.550781 L 3.136719 -2.777344 L 3.121094 -2.941406 L 3.195312 -3.089844 L 3.195312 -3.300781 L 3.210938 -3.375 L 3.242188 -3.585938 L 3.242188 -3.707031 L 3.300781 -3.917969 L 3.300781 -4.035156 L 3.359375 -4.246094 L 3.390625 -4.425781 L 3.421875 -4.621094 L 3.464844 -4.816406 L 3.464844 -4.9375 L 3.511719 -5.042969 L 3.570312 -5.25 L 3.644531 -5.703125 L 3.691406 -5.851562 L 3.722656 -6.046875 L 3.722656 -6.152344 L 3.734375 -6.273438 L 3.75 -6.375 L 3.75 -6.511719 L 3.796875 -6.648438 L 3.839844 -6.855469 L 3.855469 -6.933594 L 3.902344 -7.128906 L 3.945312 -7.308594 L 3.976562 -7.503906 L 3.992188 -7.605469 L 4.007812 -7.789062 L 4.019531 -7.890625 L 4.050781 -8.074219 L 4.082031 -8.164062 L 4.109375 -8.328125 L 4.1875 -8.71875 L 4.203125 -8.808594 L 4.203125 -8.914062 L 4.214844 -9.003906 L 4.214844 -9.121094 L 4.277344 -9.257812 L 4.304688 -9.46875 L 4.351562 -9.542969 L 4.351562 -9.679688 L 4.394531 -9.738281 L 4.382812 -9.828125 L 4.394531 -9.992188 L 4.425781 -10.039062 L 4.425781 -10.234375 L 4.441406 -10.324219 L 4.382812 -10.472656 L 4.214844 -10.519531 L 4.109375 -10.503906 L 3.316406 -10.503906 L 3.210938 -10.488281 L 3 -10.488281 L 2.867188 -10.503906 L 2.640625 -10.488281 L 2.535156 -10.472656 L 2.445312 -10.414062 L 2.339844 -10.367188 L 2.234375 -10.21875 L 2.21875 -10.113281 L 2.191406 -10.023438 L 2.160156 -9.796875 L 2.101562 -9.632812 L 2.070312 -9.46875 L 2.054688 -9.289062 L 2.027344 -9.199219 L 2.011719 -9.109375 L 1.964844 -8.914062 L 1.9375 -8.703125 L 1.90625 -8.628906 L 1.890625 -8.433594 L 1.875 -8.3125 L 1.890625 -8.207031 L 1.832031 -8.011719 L 1.816406 -7.90625 L 1.769531 -7.710938 L 1.753906 -7.621094 L 1.695312 -7.441406 L 1.710938 -7.335938 L 1.695312 -7.246094 L 1.664062 -7.039062 L 1.621094 -6.933594 L 1.621094 -6.722656 L 1.574219 -6.40625 L 1.5 -6.195312 L 1.457031 -6 L 1.425781 -5.820312 L 1.425781 -5.625 L 1.367188 -5.507812 L 1.335938 -5.296875 L 1.335938 -5.191406 L 1.273438 -4.980469 L 1.273438 -4.769531 L 1.246094 -4.5625 L 1.230469 -4.472656 L 1.214844 -4.367188 L 1.183594 -4.261719 L 1.183594 -4.171875 L 1.15625 -3.945312 L 1.050781 -3.617188 L 1.066406 -3.511719 L 1.035156 -3.40625 L 1.019531 -3.316406 L 0.992188 -3.210938 L 0.992188 -3.105469 L 0.960938 -2.925781 L 0.929688 -2.789062 L 0.886719 -2.65625 L 0.855469 -2.519531 L 0.808594 -2.355469 L 0.765625 -2.085938 L 0.78125 -1.996094 L 0.71875 -1.800781 L 0.707031 -1.695312 L 0.675781 -1.574219 L 0.660156 -1.46875 L 0.613281 -1.246094 L 0.601562 -1.125 L 0.570312 -0.914062 L 0.539062 -0.808594 L 0.523438 -0.585938 L 0.449219 -0.375 L 0.464844 -0.148438 L 0.585938 -0.046875 L 0.707031 -0.015625 L 0.824219 -0.03125 L 0.929688 -0.015625 L 1.09375 0 L 1.199219 -0.015625 L 1.320312 -0.015625 L 1.53125 0.015625 L 1.964844 0.015625 Z M 2.070312 0.03125 "/></g></g></g><g fill="#30691c" fill-opacity="1"><g transform="translate(90.964738, 42.226913)"><g><path d="M 0.765625 0.03125 L 2.355469 0.03125 L 2.519531 -0.03125 L 2.566406 -0.179688 L 2.625 -0.359375 L 2.671875 -0.628906 L 2.699219 -0.71875 L 2.699219 -0.914062 L 2.714844 -1.019531 L 2.761719 -1.214844 L 2.820312 -1.652344 L 2.851562 -1.753906 L 2.867188 -1.84375 L 2.894531 -2.054688 L 2.957031 -2.355469 L 3.015625 -2.582031 L 3.046875 -2.789062 L 3.0625 -2.882812 L 3.046875 -2.984375 L 3.074219 -3.089844 L 3.121094 -3.269531 L 3.089844 -3.375 L 3.136719 -3.570312 L 3.164062 -3.660156 L 3.226562 -4.246094 L 3.332031 -4.964844 L 3.347656 -5.339844 L 3.375 -5.597656 L 3.390625 -5.761719 L 3.40625 -6.0625 L 3.421875 -6.480469 L 3.464844 -6.480469 L 3.554688 -5.910156 L 3.644531 -5.371094 L 3.691406 -4.953125 L 3.765625 -4.472656 L 3.824219 -4.050781 L 3.855469 -3.765625 L 3.917969 -3.464844 L 3.917969 -3.242188 L 3.929688 -3.152344 L 3.976562 -2.941406 L 3.992188 -2.851562 L 4.035156 -2.640625 L 4.035156 -2.550781 L 4.082031 -2.324219 L 4.125 -2.160156 L 4.140625 -1.9375 L 4.171875 -1.726562 L 4.1875 -1.636719 L 4.246094 -1.320312 L 4.261719 -1.230469 L 4.292969 -0.914062 L 4.304688 -0.824219 L 4.320312 -0.644531 L 4.335938 -0.570312 L 4.410156 -0.359375 L 4.53125 -0.121094 L 4.652344 -0.015625 L 4.90625 -0.015625 L 5.101562 0 L 5.402344 0 L 5.492188 -0.015625 L 5.640625 0 L 5.746094 -0.015625 L 6.03125 0 L 6.09375 0 L 6.257812 -0.03125 L 6.46875 -0.046875 L 6.617188 -0.148438 L 6.753906 -0.332031 L 6.828125 -0.808594 L 6.871094 -1.003906 L 6.902344 -1.109375 L 6.902344 -1.199219 L 6.976562 -1.394531 L 6.976562 -1.636719 L 7.039062 -1.84375 L 7.082031 -1.964844 L 7.113281 -2.160156 L 7.128906 -2.355469 L 7.140625 -2.519531 L 7.203125 -2.699219 L 7.261719 -2.835938 L 7.292969 -2.984375 L 7.320312 -3.195312 L 7.382812 -3.40625 L 7.382812 -3.496094 L 7.398438 -3.585938 L 7.414062 -3.691406 L 7.425781 -3.78125 L 7.441406 -3.917969 L 7.472656 -4.050781 L 7.515625 -4.261719 L 7.5625 -4.351562 L 7.5625 -4.546875 L 7.578125 -4.636719 L 7.59375 -4.742188 L 7.621094 -4.832031 L 7.636719 -4.9375 L 7.667969 -5.027344 L 7.652344 -5.160156 L 7.683594 -5.28125 L 7.710938 -5.492188 L 7.757812 -5.6875 L 7.789062 -5.792969 L 7.832031 -5.988281 L 7.863281 -6.105469 L 7.878906 -6.210938 L 7.890625 -6.375 L 7.9375 -6.511719 L 7.996094 -6.960938 L 8.027344 -7.066406 L 8.027344 -7.261719 L 8.058594 -7.367188 L 8.085938 -7.488281 L 8.132812 -7.621094 L 8.164062 -7.863281 L 8.222656 -8.101562 L 8.265625 -8.417969 L 8.296875 -8.539062 L 8.34375 -8.808594 L 8.386719 -8.972656 L 8.476562 -9.332031 L 8.507812 -9.542969 L 8.550781 -9.871094 L 8.539062 -9.992188 L 8.582031 -10.203125 L 8.582031 -10.324219 L 8.566406 -10.441406 L 8.476562 -10.488281 L 8.265625 -10.535156 L 8.058594 -10.519531 L 7.90625 -10.519531 L 7.5625 -10.535156 L 7.414062 -10.535156 L 7.308594 -10.519531 L 6.992188 -10.546875 L 6.707031 -10.488281 L 6.648438 -10.441406 L 6.527344 -10.234375 L 6.46875 -9.917969 L 6.421875 -9.679688 L 6.40625 -9.589844 L 6.40625 -9.453125 L 6.363281 -9.332031 L 6.332031 -9.226562 L 6.285156 -9.019531 L 6.273438 -8.898438 L 6.242188 -8.6875 L 6.210938 -8.597656 L 6.195312 -8.492188 L 6.152344 -8.296875 L 6.152344 -8.207031 L 6.105469 -7.9375 L 6.121094 -7.832031 L 6.03125 -7.652344 L 6.03125 -7.546875 L 6.015625 -7.367188 L 6.015625 -7.1875 L 5.957031 -6.992188 L 5.957031 -6.902344 L 5.925781 -6.691406 L 5.898438 -6.601562 L 5.882812 -6.390625 L 5.867188 -6.273438 L 5.851562 -6.167969 L 5.835938 -6.078125 L 5.792969 -5.867188 L 5.792969 -5.355469 L 5.746094 -5.042969 L 5.703125 -4.320312 L 5.703125 -4.109375 L 5.671875 -3.75 L 5.65625 -3.449219 L 5.613281 -3.449219 L 5.566406 -3.78125 L 5.523438 -4.1875 L 5.492188 -4.367188 L 5.460938 -4.472656 L 5.460938 -4.578125 L 5.433594 -4.90625 L 5.371094 -5.25 L 5.328125 -5.65625 L 5.296875 -5.777344 L 5.265625 -5.988281 L 5.25 -6.226562 L 5.207031 -6.480469 L 5.175781 -6.738281 L 5.132812 -6.960938 L 5.117188 -7.128906 L 5.117188 -7.230469 L 5.070312 -7.398438 L 5.070312 -7.488281 L 5.027344 -7.683594 L 4.996094 -7.90625 L 4.980469 -8.011719 L 4.953125 -8.132812 L 4.890625 -8.433594 L 4.847656 -8.644531 L 4.800781 -8.898438 L 4.757812 -9.136719 L 4.695312 -9.496094 L 4.636719 -9.707031 L 4.621094 -9.871094 L 4.589844 -10.054688 L 4.53125 -10.203125 L 4.515625 -10.308594 L 4.425781 -10.441406 L 4.261719 -10.488281 L 4.050781 -10.488281 L 3.824219 -10.503906 L 3.644531 -10.488281 L 3.359375 -10.503906 L 3.164062 -10.488281 L 3.03125 -10.488281 L 2.777344 -10.503906 L 2.566406 -10.488281 L 2.414062 -10.457031 L 2.324219 -10.292969 L 2.28125 -10.21875 L 2.25 -10.128906 L 2.207031 -9.933594 L 2.207031 -9.8125 L 2.160156 -9.617188 L 2.128906 -9.4375 L 2.101562 -9.242188 L 2.085938 -9.136719 L 2.054688 -9.046875 L 2.039062 -8.941406 L 2.027344 -8.851562 L 2.011719 -8.746094 L 1.996094 -8.550781 L 1.964844 -8.417969 L 1.90625 -8.28125 L 1.90625 -8.175781 L 1.832031 -7.757812 L 1.800781 -7.667969 L 1.785156 -7.5625 L 1.785156 -7.382812 L 1.742188 -7.246094 L 1.695312 -7.082031 L 1.664062 -6.886719 L 1.636719 -6.78125 L 1.636719 -6.675781 L 1.589844 -6.570312 L 1.589844 -6.453125 L 1.546875 -6.332031 L 1.53125 -6.210938 L 1.53125 -6 L 1.5 -5.851562 L 1.46875 -5.730469 L 1.394531 -5.550781 L 1.378906 -5.402344 L 1.367188 -5.191406 L 1.351562 -5.085938 L 1.335938 -4.996094 L 1.261719 -4.816406 L 1.261719 -4.726562 L 1.246094 -4.636719 L 1.230469 -4.441406 L 1.199219 -4.351562 L 1.183594 -4.246094 L 1.15625 -4.066406 L 1.109375 -3.902344 L 1.082031 -3.765625 L 1.050781 -3.585938 L 0.992188 -3.347656 L 0.960938 -3.152344 L 0.976562 -3.046875 L 0.960938 -2.957031 L 0.914062 -2.777344 L 0.898438 -2.671875 L 0.886719 -2.492188 L 0.824219 -2.386719 L 0.824219 -2.191406 L 0.796875 -2.070312 L 0.796875 -1.964844 L 0.75 -1.726562 L 0.71875 -1.589844 L 0.675781 -1.378906 L 0.644531 -1.304688 L 0.601562 -1.09375 L 0.585938 -0.992188 L 0.523438 -0.78125 L 0.496094 -0.539062 L 0.496094 -0.300781 L 0.464844 -0.179688 L 0.539062 0 Z M 0.765625 0.03125 "/></g></g></g><g fill="#30691c" fill-opacity="1"><g transform="translate(99.051736, 42.226913)"><g><path d="M 2.207031 0.015625 L 2.324219 0 L 2.566406 -0.015625 L 2.882812 -0.015625 L 2.972656 -0.03125 L 3.164062 -0.015625 L 3.40625 -0.03125 L 4.832031 -0.03125 L 4.875 -0.195312 L 4.90625 -0.332031 L 4.921875 -0.585938 L 4.964844 -0.808594 L 4.980469 -0.914062 L 5.011719 -1.003906 L 5.042969 -1.109375 L 5.042969 -1.304688 L 5.101562 -1.636719 L 5.117188 -1.753906 L 5.148438 -1.921875 L 5.160156 -1.980469 L 5.175781 -2.101562 L 5.070312 -2.144531 L 4.652344 -2.128906 L 4.320312 -2.144531 L 4.109375 -2.160156 L 3.226562 -2.160156 L 3.015625 -2.191406 L 2.957031 -2.25 L 2.957031 -2.371094 L 3.015625 -2.761719 L 3.0625 -3.03125 L 3.089844 -3.136719 L 3.105469 -3.285156 L 3.136719 -3.421875 L 3.179688 -3.570312 L 3.242188 -3.992188 L 3.285156 -4.1875 L 3.347656 -4.351562 L 3.480469 -4.351562 L 3.675781 -4.367188 L 3.839844 -4.367188 L 4.097656 -4.351562 L 4.472656 -4.367188 L 4.605469 -4.367188 L 4.832031 -4.382812 L 4.980469 -4.382812 L 5.011719 -4.410156 L 5.042969 -4.621094 L 5.085938 -4.863281 L 5.117188 -5.070312 L 5.160156 -5.191406 L 5.160156 -5.296875 L 5.207031 -5.523438 L 5.238281 -5.625 L 5.28125 -5.835938 L 5.3125 -6 L 5.3125 -6.121094 L 5.339844 -6.300781 L 5.25 -6.421875 L 5.132812 -6.453125 L 4.742188 -6.453125 L 4.457031 -6.421875 L 3.929688 -6.4375 L 3.660156 -6.4375 L 3.691406 -6.707031 L 3.734375 -6.855469 L 3.722656 -6.976562 L 3.75 -7.082031 L 3.796875 -7.292969 L 3.824219 -7.503906 L 3.871094 -7.789062 L 3.871094 -7.90625 L 3.917969 -7.996094 L 3.917969 -8.207031 L 3.929688 -8.3125 L 3.976562 -8.492188 L 4.335938 -8.507812 L 5.3125 -8.507812 L 5.492188 -8.523438 L 6.121094 -8.523438 L 6.273438 -8.539062 L 6.316406 -8.734375 L 6.332031 -8.824219 L 6.390625 -9.03125 L 6.390625 -9.152344 L 6.4375 -9.378906 L 6.453125 -9.46875 L 6.46875 -9.574219 L 6.511719 -9.679688 L 6.511719 -9.769531 L 6.542969 -10.144531 L 6.542969 -10.234375 L 6.585938 -10.398438 L 6.511719 -10.503906 L 6.375 -10.519531 L 6.226562 -10.535156 L 6.09375 -10.519531 L 5.761719 -10.519531 L 5.328125 -10.503906 L 5.207031 -10.519531 L 4.863281 -10.535156 L 3.734375 -10.519531 L 3.40625 -10.503906 L 3.257812 -10.503906 L 3.136719 -10.519531 L 3.03125 -10.519531 L 2.851562 -10.503906 L 2.746094 -10.519531 L 2.65625 -10.503906 L 2.402344 -10.503906 L 2.28125 -10.414062 L 2.265625 -10.324219 L 2.21875 -10.234375 L 2.175781 -10.054688 L 2.207031 -9.949219 L 2.191406 -9.859375 L 2.175781 -9.664062 L 2.160156 -9.574219 L 2.128906 -9.484375 L 2.117188 -9.289062 L 2.085938 -9.183594 L 2.101562 -9.09375 L 2.054688 -8.988281 L 2.054688 -8.882812 L 2.011719 -8.792969 L 1.980469 -8.582031 L 1.921875 -8.386719 L 1.90625 -8.28125 L 1.921875 -8.191406 L 1.90625 -8.085938 L 1.875 -7.96875 L 1.816406 -7.878906 L 1.800781 -7.5625 L 1.753906 -7.457031 L 1.742188 -7.039062 L 1.679688 -6.8125 L 1.636719 -6.601562 L 1.652344 -6.511719 L 1.621094 -6.40625 L 1.574219 -6.285156 L 1.484375 -5.835938 L 1.425781 -5.746094 L 1.425781 -5.640625 L 1.410156 -5.535156 L 1.394531 -5.417969 L 1.351562 -5.3125 L 1.320312 -5.085938 L 1.261719 -4.875 L 1.261719 -4.652344 L 1.199219 -4.335938 L 1.171875 -4.230469 L 1.125 -4.007812 L 1.109375 -3.902344 L 1.066406 -3.796875 L 1.019531 -3.601562 L 1.035156 -3.511719 L 0.976562 -3.332031 L 0.976562 -3.257812 L 0.945312 -3.0625 L 0.914062 -2.941406 L 0.914062 -2.835938 L 0.886719 -2.597656 L 0.824219 -2.476562 L 0.796875 -2.28125 L 0.78125 -2.070312 L 0.765625 -1.964844 L 0.734375 -1.84375 L 0.734375 -1.742188 L 0.707031 -1.636719 L 0.707031 -1.5 L 0.660156 -1.378906 L 0.644531 -1.140625 L 0.585938 -0.914062 L 0.554688 -0.675781 L 0.523438 -0.449219 L 0.496094 -0.316406 L 0.449219 -0.179688 L 0.496094 -0.046875 L 0.628906 -0.015625 L 1.425781 -0.015625 L 1.53125 0 L 1.921875 0 Z M 2.207031 0.015625 "/></g></g></g><g fill="#30691c" fill-opacity="1"><g transform="translate(104.708135, 42.226913)"><g/></g></g><g fill="#30691c" fill-opacity="1"><g transform="translate(108.06897, 42.226913)"><g><path d="M 4.9375 -11.179688 L 5.625 -11.179688 L 5.808594 -11.195312 L 6.136719 -11.238281 L 6.152344 -11.34375 L 6 -11.464844 L 5.957031 -11.582031 L 5.898438 -11.660156 L 5.820312 -11.808594 L 5.65625 -11.957031 L 5.597656 -12.09375 L 5.492188 -12.214844 L 5.417969 -12.363281 L 5.339844 -12.421875 L 5.207031 -12.605469 L 5.101562 -12.707031 L 5.042969 -12.8125 L 4.875 -13.054688 L 4.742188 -13.175781 L 4.695312 -13.21875 L 4.589844 -13.277344 L 3.449219 -13.277344 L 3.257812 -13.265625 L 3.089844 -13.234375 L 3.015625 -13.203125 L 2.984375 -13.085938 L 3.015625 -13.023438 L 3.089844 -12.890625 L 3.179688 -12.785156 L 3.347656 -12.617188 L 3.449219 -12.5 L 3.542969 -12.378906 L 3.644531 -12.273438 L 3.855469 -12.09375 L 4.035156 -11.898438 L 4.109375 -11.824219 L 4.261719 -11.660156 L 4.367188 -11.539062 L 4.5 -11.433594 L 4.605469 -11.3125 L 4.679688 -11.253906 L 4.800781 -11.222656 Z M 1.214844 0.03125 L 1.335938 0.015625 L 1.753906 0.03125 L 1.84375 -0.03125 L 1.90625 -0.136719 L 1.949219 -0.210938 L 1.996094 -0.375 L 2.085938 -0.601562 L 2.234375 -0.886719 L 2.296875 -1.066406 L 2.339844 -1.171875 L 2.371094 -1.273438 L 2.476562 -1.46875 L 2.550781 -1.636719 L 2.957031 -1.636719 L 3.617188 -1.621094 L 3.855469 -1.589844 L 4.1875 -1.574219 L 4.203125 -1.457031 L 4.203125 -0.75 L 4.1875 -0.601562 L 4.203125 -0.449219 L 4.214844 -0.179688 L 4.246094 -0.03125 L 4.304688 0.015625 L 4.53125 0.015625 L 4.726562 0.03125 L 4.875 0.015625 L 4.980469 0 L 5.160156 0.015625 L 5.28125 0.015625 L 5.613281 0 L 5.820312 0 L 5.941406 0.015625 L 6.046875 0 C 6.105469 0 6.152344 0.015625 6.210938 0 C 6.285156 -0.046875 6.273438 -0.179688 6.257812 -0.238281 L 6.257812 -0.554688 L 6.242188 -0.886719 L 6.242188 -1.019531 L 6.226562 -1.140625 L 6.242188 -1.351562 L 6.242188 -1.574219 L 6.226562 -1.679688 L 6.210938 -1.875 L 6.210938 -1.964844 L 6.183594 -2.535156 L 6.195312 -2.640625 L 6.183594 -2.851562 L 6.195312 -3.074219 L 6.183594 -3.300781 L 6.183594 -3.40625 L 6.167969 -4.097656 L 6.167969 -4.546875 L 6.152344 -4.667969 L 6.136719 -4.847656 L 6.136719 -5.433594 L 6.105469 -5.597656 L 6.09375 -5.835938 L 6.09375 -5.925781 L 6.078125 -6.121094 L 6.09375 -6.210938 L 6.078125 -6.421875 L 6.078125 -6.722656 L 6.046875 -6.933594 L 6.046875 -7.261719 L 6.0625 -7.367188 L 6.046875 -7.59375 L 6.046875 -7.800781 L 6.015625 -8.101562 L 6 -8.296875 L 6 -8.507812 L 5.988281 -9.046875 L 5.988281 -9.316406 L 5.957031 -9.40625 L 5.957031 -9.738281 L 5.910156 -10.382812 L 5.808594 -10.457031 L 5.730469 -10.488281 L 5.492188 -10.488281 L 5.355469 -10.472656 L 5.25 -10.503906 L 5.117188 -10.503906 L 4.832031 -10.488281 L 4.589844 -10.488281 L 4.441406 -10.472656 L 4.15625 -10.488281 L 4.007812 -10.488281 L 3.902344 -10.472656 L 3.839844 -10.308594 L 3.796875 -10.21875 L 3.75 -10.113281 L 3.617188 -9.84375 L 3.511719 -9.648438 L 3.421875 -9.378906 L 3.390625 -9.304688 L 3.332031 -9.210938 L 3.242188 -9.046875 L 3.210938 -8.941406 L 3.179688 -8.851562 L 3.136719 -8.761719 L 3.105469 -8.65625 L 2.972656 -8.386719 L 2.925781 -8.28125 L 2.882812 -8.132812 L 2.789062 -7.996094 L 2.746094 -7.90625 L 2.671875 -7.710938 L 2.550781 -7.398438 L 2.492188 -7.308594 L 2.414062 -7.203125 L 2.371094 -6.992188 L 2.28125 -6.796875 L 2.25 -6.722656 L 2.207031 -6.527344 L 2.128906 -6.421875 L 2.085938 -6.226562 L 2.039062 -6.136719 L 1.949219 -5.972656 L 1.875 -5.714844 L 1.769531 -5.523438 L 1.726562 -5.402344 L 1.605469 -4.980469 L 1.558594 -4.890625 L 1.484375 -4.679688 L 1.441406 -4.589844 L 1.394531 -4.488281 L 1.378906 -4.394531 L 1.289062 -4.1875 L 1.261719 -4.082031 L 1.171875 -3.902344 L 1.09375 -3.78125 L 1.066406 -3.644531 L 1.035156 -3.542969 L 0.929688 -3.332031 L 0.886719 -3.226562 L 0.808594 -3.03125 L 0.765625 -2.941406 L 0.75 -2.835938 L 0.71875 -2.746094 L 0.644531 -2.566406 L 0.570312 -2.460938 L 0.539062 -2.371094 L 0.421875 -2.101562 L 0.359375 -1.90625 L 0.195312 -1.546875 L 0.121094 -1.367188 L 0.03125 -1.183594 L -0.121094 -0.734375 L -0.238281 -0.539062 L -0.332031 -0.359375 L -0.34375 -0.269531 L -0.375 -0.164062 L -0.34375 -0.046875 L -0.210938 -0.015625 L 0.886719 0 L 0.992188 0.015625 Z M 3.691406 -3.585938 L 3.554688 -3.601562 L 3.390625 -3.617188 L 3.269531 -3.617188 L 3.164062 -3.707031 L 3.210938 -3.8125 L 3.242188 -3.945312 L 3.269531 -4.050781 L 3.347656 -4.304688 L 3.40625 -4.410156 L 3.480469 -4.636719 L 3.496094 -4.742188 L 3.585938 -5.070312 L 3.632812 -5.207031 L 3.675781 -5.3125 L 3.722656 -5.445312 L 3.78125 -5.550781 L 3.796875 -5.65625 L 3.855469 -5.808594 L 3.917969 -5.925781 L 3.992188 -6.167969 L 4.035156 -6.316406 L 4.109375 -6.558594 L 4.171875 -6.753906 L 4.292969 -6.796875 L 4.304688 -6.453125 L 4.292969 -5.910156 L 4.277344 -5.339844 L 4.292969 -4.980469 L 4.261719 -4.863281 L 4.261719 -4.605469 L 4.246094 -4.5 L 4.246094 -4.109375 L 4.230469 -3.992188 L 4.246094 -3.871094 L 4.230469 -3.660156 L 4.140625 -3.585938 Z M 3.691406 -3.585938 "/></g></g></g><g fill="#30691c" fill-opacity="1"><g transform="translate(114.760625, 42.226913)"><g/></g></g><g fill="#30691c" fill-opacity="1"><g transform="translate(118.12146, 42.226913)"><g><path d="M 3.285156 0.179688 L 3.4375 0.148438 L 3.632812 0.136719 L 3.855469 0.136719 L 4.050781 0.0898438 L 4.230469 0.0585938 L 4.410156 0.015625 L 4.800781 -0.0742188 L 4.90625 -0.121094 L 5.148438 -0.269531 L 5.371094 -0.464844 L 5.597656 -0.734375 L 5.625 -0.824219 L 5.671875 -0.914062 L 5.746094 -1.003906 L 5.808594 -1.09375 L 5.851562 -1.199219 L 5.925781 -1.378906 L 6.015625 -1.621094 L 6.0625 -1.710938 L 6.09375 -1.816406 L 6.105469 -1.921875 L 6.152344 -2.101562 L 6.242188 -2.476562 L 6.273438 -2.566406 L 6.316406 -2.882812 L 6.332031 -2.941406 L 6.347656 -3.046875 L 6.375 -3.121094 L 6.390625 -3.285156 L 6.421875 -3.480469 L 6.421875 -3.585938 L 6.453125 -3.675781 L 6.453125 -3.839844 L 6.390625 -3.945312 L 6.285156 -4.050781 L 6.105469 -4.066406 L 5.371094 -4.109375 L 5.054688 -4.109375 L 4.667969 -4.125 L 4.546875 -4.109375 L 4.441406 -3.992188 L 4.410156 -3.839844 L 4.335938 -3.644531 L 4.320312 -3.542969 L 4.292969 -3.40625 L 4.246094 -3.179688 L 4.203125 -3 L 4.1875 -2.925781 L 4.171875 -2.835938 L 4.109375 -2.640625 L 4.035156 -2.429688 L 3.917969 -2.160156 L 3.855469 -2.085938 L 3.644531 -1.949219 L 3.421875 -1.949219 L 3.179688 -1.921875 L 2.957031 -1.996094 L 2.835938 -2.101562 L 2.777344 -2.324219 L 2.777344 -2.429688 L 2.761719 -2.519531 L 2.761719 -2.671875 L 2.777344 -2.882812 L 2.820312 -3.089844 L 2.820312 -3.210938 L 2.867188 -3.527344 L 2.851562 -3.632812 L 2.882812 -3.734375 L 2.894531 -3.839844 L 2.894531 -3.960938 L 2.910156 -4.066406 L 2.957031 -4.171875 L 2.957031 -4.488281 L 3 -4.710938 L 3.03125 -4.832031 L 3.0625 -5.027344 L 3.074219 -5.132812 L 3.136719 -5.371094 L 3.152344 -5.492188 L 3.269531 -6.09375 L 3.347656 -6.316406 L 3.375 -6.527344 L 3.40625 -6.632812 L 3.421875 -6.722656 L 3.4375 -6.828125 L 3.480469 -6.960938 L 3.527344 -7.140625 L 3.570312 -7.367188 L 3.632812 -7.546875 L 3.632812 -7.636719 L 3.722656 -7.890625 L 3.796875 -8.085938 L 3.855469 -8.34375 L 3.902344 -8.449219 L 3.945312 -8.539062 L 4.082031 -8.703125 L 4.246094 -8.761719 L 4.425781 -8.792969 L 4.589844 -8.792969 L 4.800781 -8.734375 L 4.964844 -8.644531 L 5.054688 -8.371094 L 5.054688 -8.148438 L 5.027344 -7.9375 L 5.011719 -7.742188 L 4.921875 -7.414062 L 4.890625 -7.203125 L 4.832031 -6.933594 L 4.800781 -6.828125 L 4.800781 -6.617188 L 4.90625 -6.453125 L 5.339844 -6.390625 L 6.285156 -6.375 L 6.496094 -6.390625 L 6.675781 -6.40625 L 6.738281 -6.46875 L 6.8125 -6.855469 L 6.84375 -6.976562 L 6.933594 -7.5625 L 6.960938 -7.800781 L 6.992188 -8.027344 L 7.023438 -8.148438 L 7.039062 -8.296875 L 7.039062 -8.628906 L 7.023438 -8.851562 L 7.007812 -8.988281 L 6.992188 -9.183594 L 6.976562 -9.363281 L 6.945312 -9.527344 L 6.871094 -9.679688 L 6.84375 -9.78125 L 6.796875 -9.859375 L 6.722656 -9.992188 L 6.691406 -10.066406 L 6.527344 -10.21875 L 6.332031 -10.367188 L 6.121094 -10.441406 L 5.957031 -10.472656 L 5.898438 -10.519531 L 5.792969 -10.535156 L 5.6875 -10.5625 L 5.597656 -10.578125 L 5.386719 -10.609375 L 5.238281 -10.609375 L 5.101562 -10.652344 L 4.726562 -10.699219 L 4.488281 -10.699219 L 4.203125 -10.683594 L 3.976562 -10.683594 L 3.871094 -10.667969 L 3.675781 -10.625 L 3.421875 -10.578125 L 3.105469 -10.441406 L 3.015625 -10.398438 L 2.820312 -10.308594 L 2.730469 -10.234375 L 2.519531 -10.023438 L 2.402344 -9.871094 L 2.296875 -9.722656 L 2.191406 -9.632812 L 2.128906 -9.46875 L 2.039062 -9.257812 L 1.964844 -9.078125 L 1.875 -8.824219 L 1.816406 -8.613281 L 1.726562 -8.3125 L 1.621094 -8.011719 L 1.574219 -7.816406 L 1.53125 -7.710938 L 1.515625 -7.605469 L 1.5 -7.515625 L 1.46875 -7.414062 L 1.457031 -7.308594 L 1.410156 -7.21875 L 1.394531 -7.066406 L 1.367188 -6.902344 L 1.335938 -6.796875 L 1.261719 -6.496094 L 1.261719 -6.285156 L 1.214844 -6.195312 L 1.214844 -6.105469 L 1.199219 -5.925781 L 1.15625 -5.777344 L 1.125 -5.613281 L 1.082031 -5.445312 L 1.082031 -5.386719 L 1.066406 -5.339844 L 1.066406 -5.132812 L 1.003906 -5.042969 L 0.960938 -4.769531 L 0.976562 -4.695312 L 0.929688 -4.53125 L 0.898438 -4.410156 L 0.914062 -4.277344 L 0.855469 -4.066406 L 0.824219 -3.75 L 0.808594 -3.660156 L 0.808594 -3.554688 L 0.78125 -3.347656 L 0.765625 -3.136719 L 0.75 -3.015625 L 0.734375 -2.699219 L 0.734375 -2.3125 L 0.71875 -2.207031 L 0.71875 -2.070312 L 0.734375 -1.949219 L 0.734375 -1.664062 L 0.765625 -1.558594 L 0.796875 -1.367188 L 0.824219 -1.273438 L 0.871094 -1.082031 L 1.003906 -0.886719 L 1.109375 -0.675781 L 1.183594 -0.601562 L 1.246094 -0.523438 L 1.441406 -0.375 L 1.53125 -0.316406 L 1.605469 -0.253906 L 1.753906 -0.164062 L 1.84375 -0.0898438 L 2.027344 -0.03125 L 2.21875 0.046875 L 2.3125 0.0585938 L 2.414062 0.0898438 L 2.566406 0.105469 L 2.65625 0.121094 L 2.777344 0.136719 L 2.941406 0.148438 L 3.046875 0.164062 L 3.152344 0.164062 Z M 3.285156 0.179688 "/></g></g></g><g fill="#30691c" fill-opacity="1"><g transform="translate(124.663085, 42.226913)"><g><path d="M 1.214844 0.03125 L 1.335938 0.015625 L 1.753906 0.03125 L 1.84375 -0.03125 L 1.90625 -0.136719 L 1.949219 -0.210938 L 1.996094 -0.375 L 2.085938 -0.601562 L 2.234375 -0.886719 L 2.296875 -1.066406 L 2.339844 -1.171875 L 2.371094 -1.273438 L 2.476562 -1.46875 L 2.550781 -1.636719 L 2.957031 -1.636719 L 3.617188 -1.621094 L 3.855469 -1.589844 L 4.1875 -1.574219 L 4.203125 -1.457031 L 4.203125 -0.75 L 4.1875 -0.601562 L 4.203125 -0.449219 L 4.214844 -0.179688 L 4.246094 -0.03125 L 4.304688 0.015625 L 4.53125 0.015625 L 4.726562 0.03125 L 4.875 0.015625 L 4.980469 0 L 5.160156 0.015625 L 5.28125 0.015625 L 5.613281 0 L 5.820312 0 L 5.941406 0.015625 L 6.046875 0 C 6.105469 0 6.152344 0.015625 6.210938 0 C 6.285156 -0.046875 6.273438 -0.179688 6.257812 -0.238281 L 6.257812 -0.554688 L 6.242188 -0.886719 L 6.242188 -1.019531 L 6.226562 -1.140625 L 6.242188 -1.351562 L 6.242188 -1.574219 L 6.226562 -1.679688 L 6.210938 -1.875 L 6.210938 -1.964844 L 6.183594 -2.535156 L 6.195312 -2.640625 L 6.183594 -2.851562 L 6.195312 -3.074219 L 6.183594 -3.300781 L 6.183594 -3.40625 L 6.167969 -4.097656 L 6.167969 -4.546875 L 6.152344 -4.667969 L 6.136719 -4.847656 L 6.136719 -5.433594 L 6.105469 -5.597656 L 6.09375 -5.835938 L 6.09375 -5.925781 L 6.078125 -6.121094 L 6.09375 -6.210938 L 6.078125 -6.421875 L 6.078125 -6.722656 L 6.046875 -6.933594 L 6.046875 -7.261719 L 6.0625 -7.367188 L 6.046875 -7.59375 L 6.046875 -7.800781 L 6.015625 -8.101562 L 6 -8.296875 L 6 -8.507812 L 5.988281 -9.046875 L 5.988281 -9.316406 L 5.957031 -9.40625 L 5.957031 -9.738281 L 5.910156 -10.382812 L 5.808594 -10.457031 L 5.730469 -10.488281 L 5.492188 -10.488281 L 5.355469 -10.472656 L 5.25 -10.503906 L 5.117188 -10.503906 L 4.832031 -10.488281 L 4.589844 -10.488281 L 4.441406 -10.472656 L 4.15625 -10.488281 L 4.007812 -10.488281 L 3.902344 -10.472656 L 3.839844 -10.308594 L 3.796875 -10.21875 L 3.75 -10.113281 L 3.617188 -9.84375 L 3.511719 -9.648438 L 3.421875 -9.378906 L 3.390625 -9.304688 L 3.332031 -9.210938 L 3.242188 -9.046875 L 3.210938 -8.941406 L 3.179688 -8.851562 L 3.136719 -8.761719 L 3.105469 -8.65625 L 2.972656 -8.386719 L 2.925781 -8.28125 L 2.882812 -8.132812 L 2.789062 -7.996094 L 2.746094 -7.90625 L 2.671875 -7.710938 L 2.550781 -7.398438 L 2.492188 -7.308594 L 2.414062 -7.203125 L 2.371094 -6.992188 L 2.28125 -6.796875 L 2.25 -6.722656 L 2.207031 -6.527344 L 2.128906 -6.421875 L 2.085938 -6.226562 L 2.039062 -6.136719 L 1.949219 -5.972656 L 1.875 -5.714844 L 1.769531 -5.523438 L 1.726562 -5.402344 L 1.605469 -4.980469 L 1.558594 -4.890625 L 1.484375 -4.679688 L 1.441406 -4.589844 L 1.394531 -4.488281 L 1.378906 -4.394531 L 1.289062 -4.1875 L 1.261719 -4.082031 L 1.171875 -3.902344 L 1.09375 -3.78125 L 1.066406 -3.644531 L 1.035156 -3.542969 L 0.929688 -3.332031 L 0.886719 -3.226562 L 0.808594 -3.03125 L 0.765625 -2.941406 L 0.75 -2.835938 L 0.71875 -2.746094 L 0.644531 -2.566406 L 0.570312 -2.460938 L 0.539062 -2.371094 L 0.421875 -2.101562 L 0.359375 -1.90625 L 0.195312 -1.546875 L 0.121094 -1.367188 L 0.03125 -1.183594 L -0.121094 -0.734375 L -0.238281 -0.539062 L -0.332031 -0.359375 L -0.34375 -0.269531 L -0.375 -0.164062 L -0.34375 -0.046875 L -0.210938 -0.015625 L 0.886719 0 L 0.992188 0.015625 Z M 3.691406 -3.585938 L 3.554688 -3.601562 L 3.390625 -3.617188 L 3.269531 -3.617188 L 3.164062 -3.707031 L 3.210938 -3.8125 L 3.242188 -3.945312 L 3.269531 -4.050781 L 3.347656 -4.304688 L 3.40625 -4.410156 L 3.480469 -4.636719 L 3.496094 -4.742188 L 3.585938 -5.070312 L 3.632812 -5.207031 L 3.675781 -5.3125 L 3.722656 -5.445312 L 3.78125 -5.550781 L 3.796875 -5.65625 L 3.855469 -5.808594 L 3.917969 -5.925781 L 3.992188 -6.167969 L 4.035156 -6.316406 L 4.109375 -6.558594 L 4.171875 -6.753906 L 4.292969 -6.796875 L 4.304688 -6.453125 L 4.292969 -5.910156 L 4.277344 -5.339844 L 4.292969 -4.980469 L 4.261719 -4.863281 L 4.261719 -4.605469 L 4.246094 -4.5 L 4.246094 -4.109375 L 4.230469 -3.992188 L 4.246094 -3.871094 L 4.230469 -3.660156 L 4.140625 -3.585938 Z M 3.691406 -3.585938 "/></g></g></g><g fill="#30691c" fill-opacity="1"><g transform="translate(131.35474, 42.226913)"><g><path d="M 0.871094 0.015625 L 1.457031 0.015625 L 1.546875 0 L 1.84375 0.015625 L 2.207031 -0.015625 L 2.3125 -0.03125 L 2.414062 -0.015625 L 2.566406 -0.121094 L 2.625 -0.316406 L 2.65625 -0.496094 L 2.699219 -0.675781 L 2.6875 -0.78125 L 2.699219 -0.886719 L 2.699219 -0.976562 L 2.714844 -1.082031 L 2.804688 -1.261719 L 2.820312 -1.367188 L 2.851562 -1.546875 L 2.882812 -1.753906 L 2.882812 -1.84375 L 2.894531 -2.054688 L 2.925781 -2.160156 L 2.910156 -2.265625 L 2.972656 -2.460938 L 3.015625 -2.640625 L 3.0625 -2.867188 L 3.105469 -3.0625 L 3.089844 -3.152344 L 3.152344 -3.316406 L 3.164062 -3.390625 L 3.210938 -3.601562 L 3.242188 -3.796875 L 3.269531 -3.945312 L 3.316406 -4.1875 L 3.675781 -4.15625 L 4.019531 -4.1875 L 4.5625 -4.1875 L 4.726562 -4.171875 L 4.875 -4.171875 L 4.964844 -4.351562 L 5.011719 -4.5625 L 5.070312 -4.757812 L 5.070312 -4.9375 L 5.117188 -5.132812 L 5.132812 -5.238281 L 5.148438 -5.328125 L 5.191406 -5.507812 L 5.191406 -5.582031 L 5.25 -5.792969 L 5.25 -5.910156 L 5.296875 -6.03125 L 5.3125 -6.152344 L 5.265625 -6.316406 L 5.054688 -6.332031 L 4.890625 -6.332031 L 4.679688 -6.316406 L 4.5 -6.300781 L 3.839844 -6.316406 L 3.675781 -6.332031 L 3.722656 -6.480469 L 3.75 -6.660156 L 3.75 -6.765625 L 3.765625 -6.855469 L 3.796875 -6.960938 L 3.796875 -7.082031 L 3.855469 -7.203125 L 3.917969 -7.5625 L 3.917969 -7.636719 L 3.960938 -7.847656 L 4.007812 -8.074219 L 4.019531 -8.175781 L 4.035156 -8.34375 L 4.066406 -8.460938 L 4.214844 -8.460938 L 4.832031 -8.476562 L 5.222656 -8.492188 L 5.433594 -8.476562 L 5.714844 -8.449219 L 5.957031 -8.476562 L 6.09375 -8.460938 L 6.226562 -8.539062 L 6.273438 -8.851562 L 6.332031 -9.121094 L 6.332031 -9.226562 L 6.347656 -9.316406 L 6.390625 -9.511719 L 6.4375 -9.769531 L 6.4375 -9.84375 L 6.46875 -10.039062 L 6.46875 -10.203125 L 6.496094 -10.308594 L 6.453125 -10.429688 L 6.257812 -10.488281 L 6.078125 -10.488281 L 5.835938 -10.503906 L 4.082031 -10.503906 L 3.691406 -10.519531 L 3.152344 -10.535156 L 2.414062 -10.503906 L 2.234375 -10.429688 L 2.207031 -10.25 L 2.191406 -10.144531 L 2.207031 -9.964844 L 2.175781 -9.886719 L 2.144531 -9.691406 L 2.085938 -9.421875 L 2.085938 -9.304688 L 2.027344 -9.199219 L 2.011719 -9.03125 L 1.996094 -8.835938 L 1.980469 -8.71875 L 1.949219 -8.628906 L 1.90625 -8.433594 L 1.890625 -8.222656 L 1.84375 -8.132812 L 1.84375 -8.027344 L 1.769531 -7.789062 L 1.753906 -7.683594 L 1.753906 -7.578125 L 1.742188 -7.472656 L 1.753906 -7.382812 L 1.726562 -7.1875 L 1.695312 -7.082031 L 1.664062 -6.871094 L 1.621094 -6.765625 L 1.589844 -6.558594 L 1.589844 -6.375 L 1.546875 -6.195312 L 1.515625 -6.09375 L 1.457031 -5.910156 L 1.394531 -5.714844 L 1.378906 -5.523438 L 1.335938 -5.3125 L 1.335938 -5.207031 L 1.273438 -5.011719 L 1.214844 -4.589844 L 1.214844 -4.382812 L 1.171875 -4.277344 L 1.140625 -4.050781 L 1.15625 -3.945312 L 1.109375 -3.707031 L 1.035156 -3.496094 L 1.003906 -3.300781 L 1.003906 -3.089844 L 0.945312 -2.910156 L 0.945312 -2.804688 L 0.914062 -2.714844 L 0.914062 -2.597656 L 0.871094 -2.460938 L 0.855469 -2.25 L 0.824219 -2.160156 L 0.824219 -2.027344 L 0.765625 -1.875 L 0.707031 -1.664062 L 0.691406 -1.546875 L 0.675781 -1.351562 L 0.660156 -1.246094 L 0.644531 -1.15625 L 0.585938 -1.035156 L 0.554688 -0.871094 L 0.539062 -0.765625 L 0.523438 -0.675781 L 0.539062 -0.464844 L 0.480469 -0.34375 L 0.480469 -0.179688 L 0.539062 -0.03125 L 0.71875 0 Z M 0.871094 0.015625 "/></g></g></g><g fill="#30691c" fill-opacity="1"><g transform="translate(136.8311, 42.226913)"><g><path d="M 3.570312 -11.195312 L 3.765625 -11.207031 L 4.1875 -11.195312 L 4.472656 -11.195312 L 4.636719 -11.253906 L 4.695312 -11.328125 L 4.890625 -11.433594 L 5.132812 -11.671875 L 5.328125 -11.824219 L 5.445312 -11.914062 L 5.640625 -12.09375 L 5.835938 -12.289062 L 5.988281 -12.394531 L 6.09375 -12.5 L 6.210938 -12.605469 L 6.40625 -12.769531 L 6.511719 -12.875 L 6.601562 -13.023438 L 6.660156 -13.097656 L 6.632812 -13.203125 L 6.558594 -13.234375 L 6.40625 -13.277344 L 4.921875 -13.277344 L 4.769531 -13.21875 L 4.726562 -13.1875 L 4.589844 -13.085938 L 4.351562 -12.753906 L 4.261719 -12.664062 L 4.15625 -12.527344 L 4.035156 -12.410156 L 3.945312 -12.332031 L 3.839844 -12.230469 L 3.75 -12.125 L 3.617188 -11.972656 L 3.464844 -11.824219 L 3.375 -11.6875 L 3.316406 -11.613281 L 3.195312 -11.476562 L 3.089844 -11.375 L 3.046875 -11.253906 L 3.179688 -11.238281 L 3.421875 -11.207031 Z M 2.207031 0.015625 L 2.324219 0 L 2.566406 -0.015625 L 2.882812 -0.015625 L 2.972656 -0.03125 L 3.164062 -0.015625 L 3.40625 -0.03125 L 4.832031 -0.03125 L 4.875 -0.195312 L 4.90625 -0.332031 L 4.921875 -0.585938 L 4.964844 -0.808594 L 4.980469 -0.914062 L 5.011719 -1.003906 L 5.042969 -1.109375 L 5.042969 -1.304688 L 5.101562 -1.636719 L 5.117188 -1.753906 L 5.148438 -1.921875 L 5.160156 -1.980469 L 5.175781 -2.101562 L 5.070312 -2.144531 L 4.652344 -2.128906 L 4.320312 -2.144531 L 4.109375 -2.160156 L 3.226562 -2.160156 L 3.015625 -2.191406 L 2.957031 -2.25 L 2.957031 -2.371094 L 3.015625 -2.761719 L 3.0625 -3.03125 L 3.089844 -3.136719 L 3.105469 -3.285156 L 3.136719 -3.421875 L 3.179688 -3.570312 L 3.242188 -3.992188 L 3.285156 -4.1875 L 3.347656 -4.351562 L 3.480469 -4.351562 L 3.675781 -4.367188 L 3.839844 -4.367188 L 4.097656 -4.351562 L 4.472656 -4.367188 L 4.605469 -4.367188 L 4.832031 -4.382812 L 4.980469 -4.382812 L 5.011719 -4.410156 L 5.042969 -4.621094 L 5.085938 -4.863281 L 5.117188 -5.070312 L 5.160156 -5.191406 L 5.160156 -5.296875 L 5.207031 -5.523438 L 5.238281 -5.625 L 5.28125 -5.835938 L 5.3125 -6 L 5.3125 -6.121094 L 5.339844 -6.300781 L 5.25 -6.421875 L 5.132812 -6.453125 L 4.742188 -6.453125 L 4.457031 -6.421875 L 3.929688 -6.4375 L 3.660156 -6.4375 L 3.691406 -6.707031 L 3.734375 -6.855469 L 3.722656 -6.976562 L 3.75 -7.082031 L 3.796875 -7.292969 L 3.824219 -7.503906 L 3.871094 -7.789062 L 3.871094 -7.90625 L 3.917969 -7.996094 L 3.917969 -8.207031 L 3.929688 -8.3125 L 3.976562 -8.492188 L 4.335938 -8.507812 L 5.3125 -8.507812 L 5.492188 -8.523438 L 6.121094 -8.523438 L 6.273438 -8.539062 L 6.316406 -8.734375 L 6.332031 -8.824219 L 6.390625 -9.03125 L 6.390625 -9.152344 L 6.4375 -9.378906 L 6.453125 -9.46875 L 6.46875 -9.574219 L 6.511719 -9.679688 L 6.511719 -9.769531 L 6.542969 -10.144531 L 6.542969 -10.234375 L 6.585938 -10.398438 L 6.511719 -10.503906 L 6.375 -10.519531 L 6.226562 -10.535156 L 6.09375 -10.519531 L 5.761719 -10.519531 L 5.328125 -10.503906 L 5.207031 -10.519531 L 4.863281 -10.535156 L 3.734375 -10.519531 L 3.40625 -10.503906 L 3.257812 -10.503906 L 3.136719 -10.519531 L 3.03125 -10.519531 L 2.851562 -10.503906 L 2.746094 -10.519531 L 2.65625 -10.503906 L 2.402344 -10.503906 L 2.28125 -10.414062 L 2.265625 -10.324219 L 2.21875 -10.234375 L 2.175781 -10.054688 L 2.207031 -9.949219 L 2.191406 -9.859375 L 2.175781 -9.664062 L 2.160156 -9.574219 L 2.128906 -9.484375 L 2.117188 -9.289062 L 2.085938 -9.183594 L 2.101562 -9.09375 L 2.054688 -8.988281 L 2.054688 -8.882812 L 2.011719 -8.792969 L 1.980469 -8.582031 L 1.921875 -8.386719 L 1.90625 -8.28125 L 1.921875 -8.191406 L 1.90625 -8.085938 L 1.875 -7.96875 L 1.816406 -7.878906 L 1.800781 -7.5625 L 1.753906 -7.457031 L 1.742188 -7.039062 L 1.679688 -6.8125 L 1.636719 -6.601562 L 1.652344 -6.511719 L 1.621094 -6.40625 L 1.574219 -6.285156 L 1.484375 -5.835938 L 1.425781 -5.746094 L 1.425781 -5.640625 L 1.410156 -5.535156 L 1.394531 -5.417969 L 1.351562 -5.3125 L 1.320312 -5.085938 L 1.261719 -4.875 L 1.261719 -4.652344 L 1.199219 -4.335938 L 1.171875 -4.230469 L 1.125 -4.007812 L 1.109375 -3.902344 L 1.066406 -3.796875 L 1.019531 -3.601562 L 1.035156 -3.511719 L 0.976562 -3.332031 L 0.976562 -3.257812 L 0.945312 -3.0625 L 0.914062 -2.941406 L 0.914062 -2.835938 L 0.886719 -2.597656 L 0.824219 -2.476562 L 0.796875 -2.28125 L 0.78125 -2.070312 L 0.765625 -1.964844 L 0.734375 -1.84375 L 0.734375 -1.742188 L 0.707031 -1.636719 L 0.707031 -1.5 L 0.660156 -1.378906 L 0.644531 -1.140625 L 0.585938 -0.914062 L 0.554688 -0.675781 L 0.523438 -0.449219 L 0.496094 -0.316406 L 0.449219 -0.179688 L 0.496094 -0.046875 L 0.628906 -0.015625 L 1.425781 -0.015625 L 1.53125 0 L 1.921875 0 Z M 2.207031 0.015625 "/></g></g></g></svg>